M48
; DRILL file {KiCad (5.1.10)-1} date 06/15/23 19:01:19
; FORMAT={-:-/ absolute / inch / decimal}
; #@! TF.CreationDate,2023-06-15T19:01:19+02:00
; #@! TF.GenerationSoftware,Kicad,Pcbnew,(5.1.10)-1
; #@! TF.FileFunction,Plated,1,2,PTH
FMAT,2
INCH
T1C0.0079
T2C0.0157
T3C0.0315
T4C0.0394
T5C0.0598
%
G90
G05
T1
X6.9148Y-0.8616
X6.9148Y-0.8904
X6.9435Y-0.8616
X6.9435Y-0.8904
T2
X5.0689Y-1.1713
X5.128Y-1.1713
X5.187Y-1.1713
X5.2559Y-1.1713
X5.3346Y-1.1713
X5.3937Y-1.1713
X5.4626Y-1.1713
X5.6063Y-0.7343
X5.6102Y-1.7126
X5.6102Y-1.7815
X5.6102Y-1.8799
X5.6102Y-1.9685
X5.6102Y-2.0571
X5.6102Y-2.126
X5.6102Y-2.1949
X5.6102Y-2.2933
X5.6693Y-1.7323
X5.6693Y-1.8209
X5.6693Y-1.9193
X5.6693Y-2.0079
X5.6693Y-2.0866
X5.6693Y-2.1555
X5.6693Y-2.2343
X5.6693Y-2.3228
X5.7185Y-1.4075
X5.7185Y-1.4862
X5.7283Y-1.5846
X5.7579Y-1.1811
X5.7677Y-1.9783
X5.7677Y-2.0866
X5.7776Y-1.7618
X5.7776Y-1.8602
X5.7874Y-1.5748
X5.8071Y-1.0728
X5.8071Y-2.0374
X5.8169Y-1.7126
X5.8169Y-1.811
X5.8169Y-1.9193
X5.8465Y-2.0768
X5.8563Y-1.7618
X5.8563Y-1.8602
X5.8563Y-1.9783
X5.8858Y-1.5748
X5.8957Y-1.811
X5.8957Y-1.9193
X5.9055Y-1.0433
X5.9055Y-1.4961
X5.9154Y-1.7126
X5.935Y-1.9783
X5.9449Y-0.8957
X5.9449Y-0.9547
X5.9449Y-1.0138
X5.9449Y-1.7618
X5.9449Y-1.8602
X5.9646Y-1.0433
X5.9646Y-1.5354
X5.9744Y-1.811
X5.9744Y-1.9193
X5.9843Y-0.9547
X5.9843Y-1.7126
X5.9941Y-1.5748
X6.0138Y-1.7618
X6.0138Y-1.8602
X6.0138Y-1.9783
X6.0236Y-0.8563
X6.0335Y-0.9252
X6.0335Y-0.9843
X6.0335Y-1.3976
X6.0433Y-1.0335
X6.0433Y-1.5748
X6.0433Y-1.811
X6.0531Y-1.7126
X6.0531Y-1.9193
X6.0728Y-1.437
X6.0827Y-0.8661
X6.0925Y-1.7618
X6.0925Y-1.8602
X6.0925Y-1.9783
X6.1024Y-0.9252
X6.1024Y-0.9941
X6.1024Y-1.0335
X6.1122Y-1.3976
X6.122Y-1.5748
X6.1319Y-1.7126
X6.1319Y-1.811
X6.1319Y-1.9193
X6.1417Y-0.8563
X6.1516Y-1.437
X6.1713Y-1.7618
X6.1713Y-1.8602
X6.1713Y-1.9783
X6.1811Y-1.5748
X6.1909Y-0.8661
X6.1909Y-0.9252
X6.1909Y-0.9843
X6.1909Y-1.0433
X6.1909Y-1.122
X6.2008Y-1.3976
X6.2106Y-1.7126
X6.2106Y-1.811
X6.2106Y-1.9193
X6.2205Y-2.0669
X6.2402Y-1.7618
X6.2402Y-1.8602
X6.2402Y-1.9783
X6.25Y-0.9252
X6.25Y-0.9843
X6.25Y-1.0433
X6.25Y-1.122
X6.25Y-1.437
X6.25Y-2.185
X6.2598Y-1.5748
X6.2795Y-1.7126
X6.2795Y-1.811
X6.2795Y-1.9193
X6.2894Y-2.1457
X6.3091Y-1.3976
X6.3091Y-1.9783
X6.3189Y-1.7618
X6.3189Y-1.8602
X6.3287Y-2.185
X6.3386Y-1.5748
X6.3484Y-1.437
X6.3484Y-1.9193
X6.3583Y-1.7126
X6.3583Y-1.811
X6.3583Y-2.1358
X6.378Y-2.1949
X6.3878Y-1.9783
X6.3976Y-1.3976
X6.3976Y-1.7618
X6.3976Y-1.8602
X6.4075Y-1.5748
X6.4272Y-2.1457
X6.437Y-1.7126
X6.437Y-1.811
X6.437Y-1.9193
X6.4469Y-1.437
X6.4567Y-0.8957
X6.4764Y-1.9783
X6.4862Y-1.5748
X6.4862Y-1.7618
X6.4862Y-1.8504
X6.5256Y-1.7126
X6.5256Y-1.811
X6.5256Y-1.9193
X6.5551Y-1.5748
X6.565Y-1.4665
X6.6732Y-1.5846
X6.6732Y-1.6339
X6.6732Y-1.7126
X6.6732Y-1.7815
X6.6732Y-1.8701
X6.6732Y-1.9488
X6.6831Y-1.1319
X6.6831Y-1.1811
X6.7717Y-1.1811
X6.8076Y-1.1319
X6.8209Y-1.6043
X6.8209Y-1.6732
X6.8209Y-1.7618
X6.8209Y-1.8504
X6.8209Y-1.9193
X6.8209Y-2.0079
X6.8209Y-2.0866
X6.8233Y-1.533
X6.8602Y-0.7874
X6.8602Y-0.9941
X6.8602Y-1.0433
X6.8602Y-1.0925
X6.8701Y-0.7087
X6.8701Y-1.1909
X6.8996Y-0.748
X6.9193Y-0.7087
X6.9291Y-2.1654
X6.939Y-0.748
X6.9685Y-0.7087
X7.0177Y-0.7087
X7.0472Y-1.5945
X7.0472Y-1.6634
X7.0472Y-1.752
X7.0472Y-1.8307
X7.0472Y-1.9193
X7.0472Y-2.0079
X7.0472Y-2.0669
X7.0472Y-2.1457
X7.0472Y-2.185
X7.0571Y-0.9449
X7.0669Y-0.7087
X7.0669Y-0.7579
X7.0669Y-0.7972
X7.0669Y-0.8366
X7.1161Y-1.6929
X7.1161Y-1.7815
X7.1161Y-1.8602
X7.1161Y-1.9587
X7.1161Y-2.0276
X7.1161Y-2.0866
X7.1161Y-2.1555
X7.126Y-1.624
X7.1358Y-1.1811
X7.1457Y-1.1319
X7.185Y-1.1811
X7.2047Y-1.1319
X7.2539Y-1.1319
X7.2933Y-1.6437
X7.2933Y-1.7126
X7.2933Y-1.7717
X7.2933Y-1.8406
X7.2933Y-1.9094
X7.2933Y-1.9882
X7.2933Y-2.0472
X7.2933Y-2.1161
X7.2933Y-2.1752
X7.313Y-1.1614
X7.3622Y-1.5354
X7.3819Y-1.1909
X7.4508Y-2.2736
X7.4705Y-1.1024
X7.4803Y-2.2146
X7.4902Y-1.3189
X7.5098Y-2.2736
X7.5394Y-2.2146
X7.5591Y-1.4567
X7.5689Y-1.2402
X7.5689Y-2.2736
X7.5886Y-1.3976
X7.5984Y-2.2146
X7.6772Y-1.4665
X7.6772Y-1.5453
X7.6772Y-1.6437
X7.6772Y-1.7323
X7.6772Y-1.8406
X7.6772Y-1.9193
X7.6772Y-1.9882
X7.6772Y-2.0571
X7.6772Y-2.126
X7.7362Y-1.5157
X7.7362Y-1.6043
X7.7362Y-1.6831
X7.7362Y-1.7618
X7.7362Y-1.811
X7.7362Y-1.8799
X7.7362Y-1.9587
X7.7362Y-2.0276
X7.7362Y-2.0866
X7.7362Y-2.1555
T3
X5.1051Y-1.4764
X5.1051Y-1.7764
X5.3051Y-1.4764
X5.3051Y-1.7764
T4
X5.9744Y-1.2795
X5.9744Y-2.2835
X6.0744Y-1.2795
X6.0744Y-2.2835
X6.1744Y-1.2795
X6.1744Y-2.2835
X6.2744Y-1.2795
X6.2744Y-2.2835
X6.3583Y-1.0266
X6.3583Y-1.1266
X6.3744Y-1.2795
X6.3744Y-2.2835
X6.4744Y-1.2795
X6.4744Y-2.2835
X6.5059Y-1.0266
X6.5059Y-1.1266
X6.5744Y-1.2795
X6.5744Y-2.2835
X6.6744Y-1.2795
X6.6744Y-2.2835
X6.7744Y-1.2795
X6.7744Y-2.2835
X6.8744Y-1.2795
X6.8744Y-2.2835
X6.9744Y-1.2795
X6.9744Y-2.2835
X7.0744Y-1.2795
X7.0744Y-2.2835
X7.1744Y-1.2795
X7.1744Y-2.2835
X7.2744Y-1.2795
X7.2744Y-2.2835
X7.3744Y-1.2795
X7.3744Y-2.2835
X7.6772Y-0.7516
X7.6772Y-0.8516
X7.6772Y-0.9516
X7.6772Y-1.0516
X7.6772Y-1.1516
T5
X5.2756Y-2.0374
X5.2756Y-2.2374
X7.3228Y-0.7874
X7.3228Y-0.9874
T0
M30
