%TF.GenerationSoftware,KiCad,Pcbnew,(5.1.10)-1*%
%TF.CreationDate,2023-06-11T13:52:09+02:00*%
%TF.ProjectId,Disney_door_opener,4469736e-6579-45f6-946f-6f725f6f7065,rev?*%
%TF.SameCoordinates,Original*%
%TF.FileFunction,Copper,L1,Top*%
%TF.FilePolarity,Positive*%
%FSLAX46Y46*%
G04 Gerber Fmt 4.6, Leading zero omitted, Abs format (unit mm)*
G04 Created by KiCad (PCBNEW (5.1.10)-1) date 2023-06-11 13:52:09*
%MOMM*%
%LPD*%
G01*
G04 APERTURE LIST*
%TA.AperFunction,ComponentPad*%
%ADD10R,1.700000X1.700000*%
%TD*%
%TA.AperFunction,ComponentPad*%
%ADD11O,1.700000X1.700000*%
%TD*%
%TA.AperFunction,ComponentPad*%
%ADD12R,3.000000X3.000000*%
%TD*%
%TA.AperFunction,ComponentPad*%
%ADD13C,3.000000*%
%TD*%
%TA.AperFunction,ComponentPad*%
%ADD14O,1.600000X1.600000*%
%TD*%
%TA.AperFunction,ComponentPad*%
%ADD15R,1.600000X1.600000*%
%TD*%
%TA.AperFunction,SMDPad,CuDef*%
%ADD16R,2.500000X1.800000*%
%TD*%
%TA.AperFunction,SMDPad,CuDef*%
%ADD17R,5.400000X2.900000*%
%TD*%
%TA.AperFunction,SMDPad,CuDef*%
%ADD18R,4.600000X1.100000*%
%TD*%
%TA.AperFunction,SMDPad,CuDef*%
%ADD19R,9.400000X10.800000*%
%TD*%
%TA.AperFunction,SMDPad,CuDef*%
%ADD20R,1.230000X1.230000*%
%TD*%
%TA.AperFunction,ComponentPad*%
%ADD21C,0.500000*%
%TD*%
%TA.AperFunction,ViaPad*%
%ADD22C,0.800000*%
%TD*%
%TA.AperFunction,Conductor*%
%ADD23C,1.000000*%
%TD*%
%TA.AperFunction,Conductor*%
%ADD24C,0.250000*%
%TD*%
%TA.AperFunction,Conductor*%
%ADD25C,0.600000*%
%TD*%
%TA.AperFunction,Conductor*%
%ADD26C,0.254000*%
%TD*%
%TA.AperFunction,Conductor*%
%ADD27C,0.100000*%
%TD*%
G04 APERTURE END LIST*
D10*
%TO.P,J7,1*%
%TO.N,Net-(J7-Pad1)*%
X151750000Y-58000000D03*
D11*
%TO.P,J7,2*%
%TO.N,Net-(J7-Pad2)*%
X154290000Y-58000000D03*
%TO.P,J7,3*%
%TO.N,Net-(J7-Pad3)*%
X156830000Y-58000000D03*
%TO.P,J7,4*%
%TO.N,Net-(J7-Pad4)*%
X159370000Y-58000000D03*
%TO.P,J7,5*%
%TO.N,Net-(J7-Pad5)*%
X161910000Y-58000000D03*
%TO.P,J7,6*%
%TO.N,/lrclk*%
X164450000Y-58000000D03*
%TO.P,J7,7*%
%TO.N,/bclk*%
X166990000Y-58000000D03*
%TO.P,J7,8*%
%TO.N,/dout*%
X169530000Y-58000000D03*
%TO.P,J7,9*%
%TO.N,Net-(J7-Pad9)*%
X172070000Y-58000000D03*
%TO.P,J7,10*%
%TO.N,Net-(J7-Pad10)*%
X174610000Y-58000000D03*
%TO.P,J7,11*%
%TO.N,Net-(J7-Pad11)*%
X177150000Y-58000000D03*
%TO.P,J7,12*%
%TO.N,Net-(J7-Pad12)*%
X179690000Y-58000000D03*
%TO.P,J7,13*%
%TO.N,Net-(J4-Pad5)*%
X182230000Y-58000000D03*
%TO.P,J7,14*%
%TO.N,GND*%
X184770000Y-58000000D03*
%TO.P,J7,15*%
%TO.N,+5V*%
X187310000Y-58000000D03*
%TD*%
%TO.P,J6,15*%
%TO.N,Net-(J6-Pad15)*%
X187310000Y-32500000D03*
%TO.P,J6,14*%
%TO.N,GND*%
X184770000Y-32500000D03*
%TO.P,J6,13*%
%TO.N,Net-(J6-Pad13)*%
X182230000Y-32500000D03*
%TO.P,J6,12*%
%TO.N,Net-(J6-Pad12)*%
X179690000Y-32500000D03*
%TO.P,J6,11*%
%TO.N,Net-(J6-Pad11)*%
X177150000Y-32500000D03*
%TO.P,J6,10*%
%TO.N,Net-(J4-Pad4)*%
X174610000Y-32500000D03*
%TO.P,J6,9*%
%TO.N,Net-(J6-Pad9)*%
X172070000Y-32500000D03*
%TO.P,J6,8*%
%TO.N,Net-(J6-Pad8)*%
X169530000Y-32500000D03*
%TO.P,J6,7*%
%TO.N,Net-(J4-Pad3)*%
X166990000Y-32500000D03*
%TO.P,J6,6*%
%TO.N,Net-(J4-Pad2)*%
X164450000Y-32500000D03*
%TO.P,J6,5*%
%TO.N,Net-(J6-Pad5)*%
X161910000Y-32500000D03*
%TO.P,J6,4*%
%TO.N,Net-(J6-Pad4)*%
X159370000Y-32500000D03*
%TO.P,J6,3*%
%TO.N,Net-(J6-Pad3)*%
X156830000Y-32500000D03*
%TO.P,J6,2*%
%TO.N,Net-(J6-Pad2)*%
X154290000Y-32500000D03*
D10*
%TO.P,J6,1*%
%TO.N,Net-(J4-Pad1)*%
X151750000Y-32500000D03*
%TD*%
D12*
%TO.P,J5,1*%
%TO.N,Net-(J5-Pad1)*%
X186000000Y-20000000D03*
D13*
%TO.P,J5,2*%
%TO.N,Net-(J5-Pad2)*%
X186000000Y-25080000D03*
%TD*%
D10*
%TO.P,J4,1*%
%TO.N,Net-(J4-Pad1)*%
X195000000Y-29250000D03*
D11*
%TO.P,J4,2*%
%TO.N,Net-(J4-Pad2)*%
X195000000Y-26710000D03*
%TO.P,J4,3*%
%TO.N,Net-(J4-Pad3)*%
X195000000Y-24170000D03*
%TO.P,J4,4*%
%TO.N,Net-(J4-Pad4)*%
X195000000Y-21630000D03*
%TO.P,J4,5*%
%TO.N,Net-(J4-Pad5)*%
X195000000Y-19090000D03*
%TD*%
%TO.P,C6,1*%
%TO.N,GND*%
%TA.AperFunction,SMDPad,CuDef*%
G36*
G01*
X179662500Y-28099998D02*
X179662500Y-29400002D01*
G75*
G02*
X179412502Y-29650000I-249998J0D01*
G01*
X178587498Y-29650000D01*
G75*
G02*
X178337500Y-29400002I0J249998D01*
G01*
X178337500Y-28099998D01*
G75*
G02*
X178587498Y-27850000I249998J0D01*
G01*
X179412502Y-27850000D01*
G75*
G02*
X179662500Y-28099998I0J-249998D01*
G01*
G37*
%TD.AperFunction*%
%TO.P,C6,2*%
%TO.N,+5V*%
%TA.AperFunction,SMDPad,CuDef*%
G36*
G01*
X176537500Y-28099998D02*
X176537500Y-29400002D01*
G75*
G02*
X176287502Y-29650000I-249998J0D01*
G01*
X175462498Y-29650000D01*
G75*
G02*
X175212500Y-29400002I0J249998D01*
G01*
X175212500Y-28099998D01*
G75*
G02*
X175462498Y-27850000I249998J0D01*
G01*
X176287502Y-27850000D01*
G75*
G02*
X176537500Y-28099998I0J-249998D01*
G01*
G37*
%TD.AperFunction*%
%TD*%
%TO.P,C1,2*%
%TO.N,GND*%
%TA.AperFunction,SMDPad,CuDef*%
G36*
G01*
X131300000Y-32700000D02*
X131300000Y-33800000D01*
G75*
G02*
X131050000Y-34050000I-250000J0D01*
G01*
X128550000Y-34050000D01*
G75*
G02*
X128300000Y-33800000I0J250000D01*
G01*
X128300000Y-32700000D01*
G75*
G02*
X128550000Y-32450000I250000J0D01*
G01*
X131050000Y-32450000D01*
G75*
G02*
X131300000Y-32700000I0J-250000D01*
G01*
G37*
%TD.AperFunction*%
%TO.P,C1,1*%
%TO.N,+24V*%
%TA.AperFunction,SMDPad,CuDef*%
G36*
G01*
X135700000Y-32700000D02*
X135700000Y-33800000D01*
G75*
G02*
X135450000Y-34050000I-250000J0D01*
G01*
X132950000Y-34050000D01*
G75*
G02*
X132700000Y-33800000I0J250000D01*
G01*
X132700000Y-32700000D01*
G75*
G02*
X132950000Y-32450000I250000J0D01*
G01*
X135450000Y-32450000D01*
G75*
G02*
X135700000Y-32700000I0J-250000D01*
G01*
G37*
%TD.AperFunction*%
%TD*%
%TO.P,C4,1*%
%TO.N,Net-(C4-Pad1)*%
%TA.AperFunction,SMDPad,CuDef*%
G36*
G01*
X144200000Y-32700000D02*
X144200000Y-33800000D01*
G75*
G02*
X143950000Y-34050000I-250000J0D01*
G01*
X141450000Y-34050000D01*
G75*
G02*
X141200000Y-33800000I0J250000D01*
G01*
X141200000Y-32700000D01*
G75*
G02*
X141450000Y-32450000I250000J0D01*
G01*
X143950000Y-32450000D01*
G75*
G02*
X144200000Y-32700000I0J-250000D01*
G01*
G37*
%TD.AperFunction*%
%TO.P,C4,2*%
%TO.N,GND*%
%TA.AperFunction,SMDPad,CuDef*%
G36*
G01*
X139800000Y-32700000D02*
X139800000Y-33800000D01*
G75*
G02*
X139550000Y-34050000I-250000J0D01*
G01*
X137050000Y-34050000D01*
G75*
G02*
X136800000Y-33800000I0J250000D01*
G01*
X136800000Y-32700000D01*
G75*
G02*
X137050000Y-32450000I250000J0D01*
G01*
X139550000Y-32450000D01*
G75*
G02*
X139800000Y-32700000I0J-250000D01*
G01*
G37*
%TD.AperFunction*%
%TD*%
%TO.P,C5,1*%
%TO.N,+5V*%
%TA.AperFunction,SMDPad,CuDef*%
G36*
G01*
X160050000Y-21050000D02*
X160050000Y-19950000D01*
G75*
G02*
X160300000Y-19700000I250000J0D01*
G01*
X162800000Y-19700000D01*
G75*
G02*
X163050000Y-19950000I0J-250000D01*
G01*
X163050000Y-21050000D01*
G75*
G02*
X162800000Y-21300000I-250000J0D01*
G01*
X160300000Y-21300000D01*
G75*
G02*
X160050000Y-21050000I0J250000D01*
G01*
G37*
%TD.AperFunction*%
%TO.P,C5,2*%
%TO.N,GND*%
%TA.AperFunction,SMDPad,CuDef*%
G36*
G01*
X164450000Y-21050000D02*
X164450000Y-19950000D01*
G75*
G02*
X164700000Y-19700000I250000J0D01*
G01*
X167200000Y-19700000D01*
G75*
G02*
X167450000Y-19950000I0J-250000D01*
G01*
X167450000Y-21050000D01*
G75*
G02*
X167200000Y-21300000I-250000J0D01*
G01*
X164700000Y-21300000D01*
G75*
G02*
X164450000Y-21050000I0J250000D01*
G01*
G37*
%TD.AperFunction*%
%TD*%
D14*
%TO.P,D1,4*%
%TO.N,Net-(D1-Pad4)*%
X134750000Y-45120000D03*
%TO.P,D1,2*%
%TO.N,GND*%
X129670000Y-37500000D03*
%TO.P,D1,3*%
%TO.N,Net-(D1-Pad3)*%
X129670000Y-45120000D03*
D15*
%TO.P,D1,1*%
%TO.N,+24V*%
X134750000Y-37500000D03*
%TD*%
D16*
%TO.P,D2,1*%
%TO.N,Net-(C4-Pad1)*%
X142750000Y-39500000D03*
%TO.P,D2,2*%
%TO.N,+24V*%
X138750000Y-39500000D03*
%TD*%
D17*
%TO.P,L1,2*%
%TO.N,Net-(D3-Pad1)*%
X152750000Y-28950000D03*
%TO.P,L1,1*%
%TO.N,+5V*%
X152750000Y-19250000D03*
%TD*%
D18*
%TO.P,U1,1*%
%TO.N,Net-(C4-Pad1)*%
X142400000Y-26900000D03*
%TO.P,U1,2*%
%TO.N,Net-(D3-Pad1)*%
X142400000Y-25200000D03*
%TO.P,U1,3*%
%TO.N,GND*%
X142400000Y-23500000D03*
%TO.P,U1,4*%
%TO.N,+5V*%
X142400000Y-21800000D03*
%TO.P,U1,5*%
%TO.N,GND*%
X142400000Y-20100000D03*
D19*
%TO.P,U1,3*%
X133250000Y-23500000D03*
%TD*%
D10*
%TO.P,J2,1*%
%TO.N,+5V*%
X161500000Y-26075001D03*
D11*
%TO.P,J2,2*%
%TO.N,GND*%
X161500000Y-28615001D03*
%TD*%
%TO.P,J3,2*%
%TO.N,GND*%
X165250000Y-28615001D03*
D10*
%TO.P,J3,1*%
%TO.N,+5V*%
X165250000Y-26075001D03*
%TD*%
%TO.P,C7,2*%
%TO.N,+5V*%
%TA.AperFunction,SMDPad,CuDef*%
G36*
G01*
X176600000Y-25349998D02*
X176600000Y-26650002D01*
G75*
G02*
X176350002Y-26900000I-249998J0D01*
G01*
X175524998Y-26900000D01*
G75*
G02*
X175275000Y-26650002I0J249998D01*
G01*
X175275000Y-25349998D01*
G75*
G02*
X175524998Y-25100000I249998J0D01*
G01*
X176350002Y-25100000D01*
G75*
G02*
X176600000Y-25349998I0J-249998D01*
G01*
G37*
%TD.AperFunction*%
%TO.P,C7,1*%
%TO.N,GND*%
%TA.AperFunction,SMDPad,CuDef*%
G36*
G01*
X179725000Y-25349998D02*
X179725000Y-26650002D01*
G75*
G02*
X179475002Y-26900000I-249998J0D01*
G01*
X178649998Y-26900000D01*
G75*
G02*
X178400000Y-26650002I0J249998D01*
G01*
X178400000Y-25349998D01*
G75*
G02*
X178649998Y-25100000I249998J0D01*
G01*
X179475002Y-25100000D01*
G75*
G02*
X179725000Y-25349998I0J-249998D01*
G01*
G37*
%TD.AperFunction*%
%TD*%
%TO.P,U3,1*%
%TO.N,/dout*%
%TA.AperFunction,SMDPad,CuDef*%
G36*
G01*
X174150000Y-21562500D02*
X174150000Y-21437500D01*
G75*
G02*
X174212500Y-21375000I62500J0D01*
G01*
X174912500Y-21375000D01*
G75*
G02*
X174975000Y-21437500I0J-62500D01*
G01*
X174975000Y-21562500D01*
G75*
G02*
X174912500Y-21625000I-62500J0D01*
G01*
X174212500Y-21625000D01*
G75*
G02*
X174150000Y-21562500I0J62500D01*
G01*
G37*
%TD.AperFunction*%
%TO.P,U3,2*%
%TO.N,Net-(R1-Pad2)*%
%TA.AperFunction,SMDPad,CuDef*%
G36*
G01*
X174150000Y-22062500D02*
X174150000Y-21937500D01*
G75*
G02*
X174212500Y-21875000I62500J0D01*
G01*
X174912500Y-21875000D01*
G75*
G02*
X174975000Y-21937500I0J-62500D01*
G01*
X174975000Y-22062500D01*
G75*
G02*
X174912500Y-22125000I-62500J0D01*
G01*
X174212500Y-22125000D01*
G75*
G02*
X174150000Y-22062500I0J62500D01*
G01*
G37*
%TD.AperFunction*%
%TO.P,U3,3*%
%TO.N,GND*%
%TA.AperFunction,SMDPad,CuDef*%
G36*
G01*
X174150000Y-22562500D02*
X174150000Y-22437500D01*
G75*
G02*
X174212500Y-22375000I62500J0D01*
G01*
X174912500Y-22375000D01*
G75*
G02*
X174975000Y-22437500I0J-62500D01*
G01*
X174975000Y-22562500D01*
G75*
G02*
X174912500Y-22625000I-62500J0D01*
G01*
X174212500Y-22625000D01*
G75*
G02*
X174150000Y-22562500I0J62500D01*
G01*
G37*
%TD.AperFunction*%
%TO.P,U3,4*%
%TO.N,Net-(R3-Pad2)*%
%TA.AperFunction,SMDPad,CuDef*%
G36*
G01*
X174150000Y-23062500D02*
X174150000Y-22937500D01*
G75*
G02*
X174212500Y-22875000I62500J0D01*
G01*
X174912500Y-22875000D01*
G75*
G02*
X174975000Y-22937500I0J-62500D01*
G01*
X174975000Y-23062500D01*
G75*
G02*
X174912500Y-23125000I-62500J0D01*
G01*
X174212500Y-23125000D01*
G75*
G02*
X174150000Y-23062500I0J62500D01*
G01*
G37*
%TD.AperFunction*%
%TO.P,U3,5*%
%TO.N,N/C*%
%TA.AperFunction,SMDPad,CuDef*%
G36*
G01*
X175125000Y-24037500D02*
X175125000Y-23337500D01*
G75*
G02*
X175187500Y-23275000I62500J0D01*
G01*
X175312500Y-23275000D01*
G75*
G02*
X175375000Y-23337500I0J-62500D01*
G01*
X175375000Y-24037500D01*
G75*
G02*
X175312500Y-24100000I-62500J0D01*
G01*
X175187500Y-24100000D01*
G75*
G02*
X175125000Y-24037500I0J62500D01*
G01*
G37*
%TD.AperFunction*%
%TO.P,U3,6*%
%TA.AperFunction,SMDPad,CuDef*%
G36*
G01*
X175625000Y-24037500D02*
X175625000Y-23337500D01*
G75*
G02*
X175687500Y-23275000I62500J0D01*
G01*
X175812500Y-23275000D01*
G75*
G02*
X175875000Y-23337500I0J-62500D01*
G01*
X175875000Y-24037500D01*
G75*
G02*
X175812500Y-24100000I-62500J0D01*
G01*
X175687500Y-24100000D01*
G75*
G02*
X175625000Y-24037500I0J62500D01*
G01*
G37*
%TD.AperFunction*%
%TO.P,U3,7*%
%TO.N,+5V*%
%TA.AperFunction,SMDPad,CuDef*%
G36*
G01*
X176125000Y-24037500D02*
X176125000Y-23337500D01*
G75*
G02*
X176187500Y-23275000I62500J0D01*
G01*
X176312500Y-23275000D01*
G75*
G02*
X176375000Y-23337500I0J-62500D01*
G01*
X176375000Y-24037500D01*
G75*
G02*
X176312500Y-24100000I-62500J0D01*
G01*
X176187500Y-24100000D01*
G75*
G02*
X176125000Y-24037500I0J62500D01*
G01*
G37*
%TD.AperFunction*%
%TO.P,U3,8*%
%TA.AperFunction,SMDPad,CuDef*%
G36*
G01*
X176625000Y-24037500D02*
X176625000Y-23337500D01*
G75*
G02*
X176687500Y-23275000I62500J0D01*
G01*
X176812500Y-23275000D01*
G75*
G02*
X176875000Y-23337500I0J-62500D01*
G01*
X176875000Y-24037500D01*
G75*
G02*
X176812500Y-24100000I-62500J0D01*
G01*
X176687500Y-24100000D01*
G75*
G02*
X176625000Y-24037500I0J62500D01*
G01*
G37*
%TD.AperFunction*%
%TO.P,U3,9*%
%TO.N,Net-(J5-Pad2)*%
%TA.AperFunction,SMDPad,CuDef*%
G36*
G01*
X177025000Y-23062500D02*
X177025000Y-22937500D01*
G75*
G02*
X177087500Y-22875000I62500J0D01*
G01*
X177787500Y-22875000D01*
G75*
G02*
X177850000Y-22937500I0J-62500D01*
G01*
X177850000Y-23062500D01*
G75*
G02*
X177787500Y-23125000I-62500J0D01*
G01*
X177087500Y-23125000D01*
G75*
G02*
X177025000Y-23062500I0J62500D01*
G01*
G37*
%TD.AperFunction*%
%TO.P,U3,10*%
%TO.N,Net-(J5-Pad1)*%
%TA.AperFunction,SMDPad,CuDef*%
G36*
G01*
X177025000Y-22562500D02*
X177025000Y-22437500D01*
G75*
G02*
X177087500Y-22375000I62500J0D01*
G01*
X177787500Y-22375000D01*
G75*
G02*
X177850000Y-22437500I0J-62500D01*
G01*
X177850000Y-22562500D01*
G75*
G02*
X177787500Y-22625000I-62500J0D01*
G01*
X177087500Y-22625000D01*
G75*
G02*
X177025000Y-22562500I0J62500D01*
G01*
G37*
%TD.AperFunction*%
%TO.P,U3,11*%
%TO.N,GND*%
%TA.AperFunction,SMDPad,CuDef*%
G36*
G01*
X177025000Y-22062500D02*
X177025000Y-21937500D01*
G75*
G02*
X177087500Y-21875000I62500J0D01*
G01*
X177787500Y-21875000D01*
G75*
G02*
X177850000Y-21937500I0J-62500D01*
G01*
X177850000Y-22062500D01*
G75*
G02*
X177787500Y-22125000I-62500J0D01*
G01*
X177087500Y-22125000D01*
G75*
G02*
X177025000Y-22062500I0J62500D01*
G01*
G37*
%TD.AperFunction*%
%TO.P,U3,12*%
%TO.N,N/C*%
%TA.AperFunction,SMDPad,CuDef*%
G36*
G01*
X177025000Y-21562500D02*
X177025000Y-21437500D01*
G75*
G02*
X177087500Y-21375000I62500J0D01*
G01*
X177787500Y-21375000D01*
G75*
G02*
X177850000Y-21437500I0J-62500D01*
G01*
X177850000Y-21562500D01*
G75*
G02*
X177787500Y-21625000I-62500J0D01*
G01*
X177087500Y-21625000D01*
G75*
G02*
X177025000Y-21562500I0J62500D01*
G01*
G37*
%TD.AperFunction*%
%TO.P,U3,13*%
%TA.AperFunction,SMDPad,CuDef*%
G36*
G01*
X176625000Y-21162500D02*
X176625000Y-20462500D01*
G75*
G02*
X176687500Y-20400000I62500J0D01*
G01*
X176812500Y-20400000D01*
G75*
G02*
X176875000Y-20462500I0J-62500D01*
G01*
X176875000Y-21162500D01*
G75*
G02*
X176812500Y-21225000I-62500J0D01*
G01*
X176687500Y-21225000D01*
G75*
G02*
X176625000Y-21162500I0J62500D01*
G01*
G37*
%TD.AperFunction*%
%TO.P,U3,14*%
%TO.N,/lrclk*%
%TA.AperFunction,SMDPad,CuDef*%
G36*
G01*
X176125000Y-21162500D02*
X176125000Y-20462500D01*
G75*
G02*
X176187500Y-20400000I62500J0D01*
G01*
X176312500Y-20400000D01*
G75*
G02*
X176375000Y-20462500I0J-62500D01*
G01*
X176375000Y-21162500D01*
G75*
G02*
X176312500Y-21225000I-62500J0D01*
G01*
X176187500Y-21225000D01*
G75*
G02*
X176125000Y-21162500I0J62500D01*
G01*
G37*
%TD.AperFunction*%
%TO.P,U3,15*%
%TO.N,N/C*%
%TA.AperFunction,SMDPad,CuDef*%
G36*
G01*
X175625000Y-21162500D02*
X175625000Y-20462500D01*
G75*
G02*
X175687500Y-20400000I62500J0D01*
G01*
X175812500Y-20400000D01*
G75*
G02*
X175875000Y-20462500I0J-62500D01*
G01*
X175875000Y-21162500D01*
G75*
G02*
X175812500Y-21225000I-62500J0D01*
G01*
X175687500Y-21225000D01*
G75*
G02*
X175625000Y-21162500I0J62500D01*
G01*
G37*
%TD.AperFunction*%
%TO.P,U3,16*%
%TO.N,/bclk*%
%TA.AperFunction,SMDPad,CuDef*%
G36*
G01*
X175125000Y-21162500D02*
X175125000Y-20462500D01*
G75*
G02*
X175187500Y-20400000I62500J0D01*
G01*
X175312500Y-20400000D01*
G75*
G02*
X175375000Y-20462500I0J-62500D01*
G01*
X175375000Y-21162500D01*
G75*
G02*
X175312500Y-21225000I-62500J0D01*
G01*
X175187500Y-21225000D01*
G75*
G02*
X175125000Y-21162500I0J62500D01*
G01*
G37*
%TD.AperFunction*%
D20*
%TO.P,U3,17*%
%TO.N,GND*%
X176000000Y-22250000D03*
D21*
X175635000Y-21885000D03*
X176365000Y-21885000D03*
X175635000Y-22615000D03*
X176365000Y-22615000D03*
%TD*%
%TO.P,R1,1*%
%TO.N,GND*%
%TA.AperFunction,SMDPad,CuDef*%
G36*
G01*
X171874999Y-18250000D02*
X173125001Y-18250000D01*
G75*
G02*
X173375000Y-18499999I0J-249999D01*
G01*
X173375000Y-19300001D01*
G75*
G02*
X173125001Y-19550000I-249999J0D01*
G01*
X171874999Y-19550000D01*
G75*
G02*
X171625000Y-19300001I0J249999D01*
G01*
X171625000Y-18499999D01*
G75*
G02*
X171874999Y-18250000I249999J0D01*
G01*
G37*
%TD.AperFunction*%
%TO.P,R1,2*%
%TO.N,Net-(R1-Pad2)*%
%TA.AperFunction,SMDPad,CuDef*%
G36*
G01*
X171874999Y-21350000D02*
X173125001Y-21350000D01*
G75*
G02*
X173375000Y-21599999I0J-249999D01*
G01*
X173375000Y-22400001D01*
G75*
G02*
X173125001Y-22650000I-249999J0D01*
G01*
X171874999Y-22650000D01*
G75*
G02*
X171625000Y-22400001I0J249999D01*
G01*
X171625000Y-21599999D01*
G75*
G02*
X171874999Y-21350000I249999J0D01*
G01*
G37*
%TD.AperFunction*%
%TD*%
%TO.P,R2,2*%
%TO.N,Net-(R1-Pad2)*%
%TA.AperFunction,SMDPad,CuDef*%
G36*
G01*
X169124999Y-21350000D02*
X170375001Y-21350000D01*
G75*
G02*
X170625000Y-21599999I0J-249999D01*
G01*
X170625000Y-22400001D01*
G75*
G02*
X170375001Y-22650000I-249999J0D01*
G01*
X169124999Y-22650000D01*
G75*
G02*
X168875000Y-22400001I0J249999D01*
G01*
X168875000Y-21599999D01*
G75*
G02*
X169124999Y-21350000I249999J0D01*
G01*
G37*
%TD.AperFunction*%
%TO.P,R2,1*%
%TO.N,+5V*%
%TA.AperFunction,SMDPad,CuDef*%
G36*
G01*
X169124999Y-18250000D02*
X170375001Y-18250000D01*
G75*
G02*
X170625000Y-18499999I0J-249999D01*
G01*
X170625000Y-19300001D01*
G75*
G02*
X170375001Y-19550000I-249999J0D01*
G01*
X169124999Y-19550000D01*
G75*
G02*
X168875000Y-19300001I0J249999D01*
G01*
X168875000Y-18499999D01*
G75*
G02*
X169124999Y-18250000I249999J0D01*
G01*
G37*
%TD.AperFunction*%
%TD*%
%TO.P,R3,1*%
%TO.N,GND*%
%TA.AperFunction,SMDPad,CuDef*%
G36*
G01*
X169000000Y-27375001D02*
X169000000Y-26124999D01*
G75*
G02*
X169249999Y-25875000I249999J0D01*
G01*
X170050001Y-25875000D01*
G75*
G02*
X170300000Y-26124999I0J-249999D01*
G01*
X170300000Y-27375001D01*
G75*
G02*
X170050001Y-27625000I-249999J0D01*
G01*
X169249999Y-27625000D01*
G75*
G02*
X169000000Y-27375001I0J249999D01*
G01*
G37*
%TD.AperFunction*%
%TO.P,R3,2*%
%TO.N,Net-(R3-Pad2)*%
%TA.AperFunction,SMDPad,CuDef*%
G36*
G01*
X172100000Y-27375001D02*
X172100000Y-26124999D01*
G75*
G02*
X172349999Y-25875000I249999J0D01*
G01*
X173150001Y-25875000D01*
G75*
G02*
X173400000Y-26124999I0J-249999D01*
G01*
X173400000Y-27375001D01*
G75*
G02*
X173150001Y-27625000I-249999J0D01*
G01*
X172349999Y-27625000D01*
G75*
G02*
X172100000Y-27375001I0J249999D01*
G01*
G37*
%TD.AperFunction*%
%TD*%
%TO.P,R4,2*%
%TO.N,Net-(R3-Pad2)*%
%TA.AperFunction,SMDPad,CuDef*%
G36*
G01*
X172100000Y-24875001D02*
X172100000Y-23624999D01*
G75*
G02*
X172349999Y-23375000I249999J0D01*
G01*
X173150001Y-23375000D01*
G75*
G02*
X173400000Y-23624999I0J-249999D01*
G01*
X173400000Y-24875001D01*
G75*
G02*
X173150001Y-25125000I-249999J0D01*
G01*
X172349999Y-25125000D01*
G75*
G02*
X172100000Y-24875001I0J249999D01*
G01*
G37*
%TD.AperFunction*%
%TO.P,R4,1*%
%TO.N,+5V*%
%TA.AperFunction,SMDPad,CuDef*%
G36*
G01*
X169000000Y-24875001D02*
X169000000Y-23624999D01*
G75*
G02*
X169249999Y-23375000I249999J0D01*
G01*
X170050001Y-23375000D01*
G75*
G02*
X170300000Y-23624999I0J-249999D01*
G01*
X170300000Y-24875001D01*
G75*
G02*
X170050001Y-25125000I-249999J0D01*
G01*
X169249999Y-25125000D01*
G75*
G02*
X169000000Y-24875001I0J249999D01*
G01*
G37*
%TD.AperFunction*%
%TD*%
D12*
%TO.P,J1,1*%
%TO.N,Net-(D1-Pad3)*%
X134000000Y-51750000D03*
D13*
%TO.P,J1,2*%
%TO.N,Net-(D1-Pad4)*%
X134000000Y-56830000D03*
%TD*%
D22*
%TO.N,*%
X174250000Y-25250000D03*
X174250000Y-26500000D03*
X174250000Y-27750000D03*
%TO.N,GND*%
X142400000Y-18650000D03*
X173250000Y-40750000D03*
X179000000Y-40500000D03*
X153250000Y-23500000D03*
X157250000Y-23500000D03*
X164000000Y-22750000D03*
X142500000Y-58250000D03*
X142500000Y-55750000D03*
X142500000Y-52250000D03*
X142500000Y-54000000D03*
X142500000Y-50000000D03*
X142500000Y-47750000D03*
X142500000Y-45250000D03*
X142500000Y-43500000D03*
X144000000Y-44000000D03*
X144000000Y-46250000D03*
X144000000Y-48750000D03*
X144000000Y-51000000D03*
X144000000Y-53000000D03*
X144000000Y-54750000D03*
X144000000Y-56750000D03*
X144000000Y-59000000D03*
X189250000Y-57750000D03*
X190750000Y-57750000D03*
X192250000Y-57750000D03*
X196500000Y-54750000D03*
X196500000Y-53000000D03*
X196500000Y-51500000D03*
X196500000Y-49750000D03*
X196500000Y-47750000D03*
X196500000Y-46000000D03*
X196500000Y-44750000D03*
X196500000Y-42750000D03*
X196500000Y-40750000D03*
X196500000Y-38500000D03*
X190000000Y-56250000D03*
X191500000Y-56250000D03*
X193000000Y-56250000D03*
X195000000Y-54000000D03*
X195000000Y-52250000D03*
X195000000Y-50500000D03*
X195000000Y-48750000D03*
X195000000Y-46750000D03*
X195000000Y-44000000D03*
X195000000Y-41750000D03*
X195000000Y-39250000D03*
X195000000Y-37250000D03*
X179000000Y-42250000D03*
X179000000Y-44500000D03*
X179000000Y-46500000D03*
X179000000Y-48750000D03*
X179000000Y-51000000D03*
X173250000Y-42500000D03*
X173250000Y-44750000D03*
X173250000Y-47000000D03*
X173250000Y-48750000D03*
X173250000Y-51000000D03*
X169500000Y-40250000D03*
X169500000Y-41500000D03*
X169500000Y-43500000D03*
X169500000Y-45250000D03*
X169500000Y-47500000D03*
X169500000Y-49500000D03*
X173250000Y-53000000D03*
X179000000Y-52500000D03*
X179000000Y-54500000D03*
X179000000Y-55500000D03*
X181000000Y-41250000D03*
X180750000Y-43000000D03*
X180750000Y-45250000D03*
X180750000Y-47250000D03*
X180750000Y-49750000D03*
X180750000Y-51500000D03*
X180750000Y-53000000D03*
X180750000Y-54750000D03*
X128750000Y-29750000D03*
X130250000Y-29750000D03*
X131750000Y-29750000D03*
X133500000Y-29750000D03*
X135500000Y-29750000D03*
X137000000Y-29750000D03*
X138750000Y-29750000D03*
X154250000Y-36500000D03*
X156250000Y-36500000D03*
X158750000Y-36500000D03*
X161250000Y-36500000D03*
X163750000Y-36500000D03*
X162500000Y-35500000D03*
X160250000Y-35500000D03*
X157500000Y-35500000D03*
X155250000Y-35500000D03*
X153250000Y-35500000D03*
X155000000Y-23500000D03*
X157250000Y-25000000D03*
X157250000Y-26500000D03*
X157250000Y-28500000D03*
X158750000Y-28500000D03*
X158750000Y-26500000D03*
X158750000Y-25000000D03*
X158750000Y-23500000D03*
X155000000Y-25250000D03*
X153250000Y-25000000D03*
X150250000Y-43500000D03*
X152000000Y-43500000D03*
X153750000Y-43500000D03*
X155750000Y-43500000D03*
X157750000Y-43500000D03*
X159500000Y-43500000D03*
X161500000Y-43500000D03*
X163500000Y-43500000D03*
X165750000Y-43500000D03*
X164750000Y-44750000D03*
X162500000Y-44750000D03*
X160500000Y-44750000D03*
X158500000Y-44750000D03*
X156750000Y-44750000D03*
X154750000Y-44750000D03*
X152750000Y-44750000D03*
X151000000Y-44750000D03*
X148750000Y-44750000D03*
X146750000Y-44750000D03*
X147750000Y-43500000D03*
X147750000Y-46000000D03*
%TO.N,Net-(J7-Pad7)*%
X149750000Y-46000000D03*
%TO.N,GND*%
X151750000Y-46000000D03*
X153500000Y-46000000D03*
X155750000Y-46000000D03*
X157750000Y-46000000D03*
X159500000Y-46000000D03*
X161500000Y-46000000D03*
X163500000Y-46000000D03*
X165750000Y-46000000D03*
X164750000Y-47000000D03*
X162500000Y-47250000D03*
X160500000Y-47250000D03*
X158500000Y-47250000D03*
X156750000Y-47250000D03*
X154750000Y-47250000D03*
X152750000Y-47250000D03*
X151000000Y-47250000D03*
X148750000Y-47250000D03*
X146750000Y-47250000D03*
X147750000Y-48750000D03*
%TO.N,Net-(J7-Pad8)*%
X149750000Y-48750000D03*
%TO.N,GND*%
X151750000Y-48750000D03*
X153750000Y-48750000D03*
X155750000Y-48750000D03*
X157750000Y-48750000D03*
X159500000Y-48750000D03*
X161250000Y-48750000D03*
X163500000Y-48750000D03*
X165750000Y-48750000D03*
X164500000Y-50250000D03*
X162250000Y-50250000D03*
X160250000Y-50250000D03*
X158500000Y-50250000D03*
X156750000Y-50250000D03*
X154750000Y-50250000D03*
X152750000Y-50250000D03*
X150750000Y-50250000D03*
X148750000Y-50250000D03*
X146500000Y-50250000D03*
X147500000Y-51750000D03*
X148500000Y-52750000D03*
X146500000Y-53000000D03*
X159750000Y-54500000D03*
X161500000Y-54250000D03*
X163250000Y-54500000D03*
X162000000Y-55750000D03*
X160750000Y-55500000D03*
X158750000Y-55500000D03*
X146250000Y-30000000D03*
X150000000Y-38000000D03*
X151500000Y-39000000D03*
X145500000Y-40250000D03*
X145250000Y-37750000D03*
X145250000Y-35750000D03*
X147000000Y-40000000D03*
X149500000Y-40000000D03*
X152250000Y-40000000D03*
X153500000Y-40000000D03*
X155500000Y-40000000D03*
X157000000Y-40000000D03*
X159000000Y-40000000D03*
X161000000Y-40000000D03*
X162750000Y-40000000D03*
X164750000Y-40000000D03*
X166500000Y-40000000D03*
X174500000Y-18000000D03*
X175750000Y-18000000D03*
X177000000Y-18000000D03*
X178250000Y-18000000D03*
X179500000Y-18000000D03*
X179500000Y-19250000D03*
X179500000Y-20250000D03*
X179500000Y-21250000D03*
X179250000Y-24000000D03*
X184250000Y-28750000D03*
X183000000Y-28750000D03*
X181500000Y-28750000D03*
X182500000Y-30000000D03*
X181250000Y-30000000D03*
X169750000Y-28750000D03*
X169750000Y-30000000D03*
X172000000Y-30000000D03*
X174500000Y-30250000D03*
X153000000Y-21750000D03*
X154500000Y-22000000D03*
X156000000Y-21750000D03*
X157250000Y-22000000D03*
X155000000Y-26250000D03*
X153500000Y-26250000D03*
X151500000Y-26500000D03*
X150000000Y-26500000D03*
X151000000Y-25750000D03*
X151000000Y-24250000D03*
X151000000Y-22750000D03*
X152000000Y-24250000D03*
X185250000Y-41750000D03*
X185250000Y-43500000D03*
X185250000Y-45000000D03*
X185250000Y-46750000D03*
X185250000Y-48500000D03*
X185250000Y-50500000D03*
X185250000Y-52000000D03*
X185250000Y-53750000D03*
X185250000Y-55250000D03*
X192750000Y-35500000D03*
X192000000Y-37000000D03*
X189750000Y-35250000D03*
X190000000Y-33250000D03*
X190250000Y-31000000D03*
X187500000Y-30250000D03*
X189750000Y-28000000D03*
X192250000Y-25750000D03*
X185750000Y-29500000D03*
%TO.N,+5V*%
X172911810Y-28750000D03*
X173311809Y-38938191D03*
X187000000Y-39000000D03*
X158000000Y-52500000D03*
%TO.N,Net-(D3-Pad1)*%
X147500000Y-27250000D03*
%TO.N,/lrclk*%
X176250000Y-19000000D03*
X176000000Y-55000000D03*
%TO.N,/bclk*%
X175250000Y-19000000D03*
%TO.N,/dout*%
X174250000Y-20000000D03*
%TD*%
D23*
%TO.N,GND*%
X129670000Y-33380000D02*
X129800000Y-33250000D01*
X129670000Y-37500000D02*
X129670000Y-33380000D01*
X142400000Y-23500000D02*
X133250000Y-23500000D01*
X142400000Y-20100000D02*
X142400000Y-18650000D01*
D24*
X179750000Y-26062500D02*
X179812500Y-26000000D01*
X179000000Y-28750000D02*
X179000000Y-26062500D01*
X175520000Y-22500000D02*
X175635000Y-22615000D01*
X174562500Y-22500000D02*
X175520000Y-22500000D01*
X176480000Y-22000000D02*
X176365000Y-21885000D01*
X177437500Y-22000000D02*
X176480000Y-22000000D01*
X173838190Y-22500000D02*
X173338190Y-23000000D01*
X174562500Y-22500000D02*
X173838190Y-22500000D01*
X168450000Y-23000000D02*
X165950000Y-20500000D01*
X173338190Y-23000000D02*
X168450000Y-23000000D01*
D23*
%TO.N,+24V*%
X134750000Y-33800000D02*
X134200000Y-33250000D01*
X134750000Y-37500000D02*
X134750000Y-33800000D01*
X136750000Y-39500000D02*
X134750000Y-37500000D01*
X138750000Y-39500000D02*
X136750000Y-39500000D01*
%TO.N,Net-(C4-Pad1)*%
X142500000Y-27000000D02*
X142400000Y-26900000D01*
X142750000Y-33300000D02*
X142700000Y-33250000D01*
X142750000Y-39500000D02*
X142750000Y-33300000D01*
X142400000Y-32950000D02*
X142700000Y-33250000D01*
X142400000Y-26900000D02*
X142400000Y-32950000D01*
%TO.N,+5V*%
X150200000Y-21800000D02*
X152750000Y-19250000D01*
X142400000Y-21800000D02*
X150200000Y-21800000D01*
X161550000Y-20500000D02*
X158750000Y-20500000D01*
X157500000Y-19250000D02*
X152750000Y-19250000D01*
X158750000Y-20500000D02*
X157500000Y-19250000D01*
X161500000Y-20550000D02*
X161550000Y-20500000D01*
X161500000Y-26075001D02*
X161500000Y-20550000D01*
X165250000Y-26075001D02*
X161500000Y-26075001D01*
D24*
X176250000Y-23687500D02*
X176250000Y-24148022D01*
X169750000Y-18900000D02*
X169750000Y-19550000D01*
X176687500Y-23750000D02*
X176750000Y-23687500D01*
X176250000Y-25687500D02*
X176250000Y-23687500D01*
X175937500Y-26000000D02*
X176250000Y-25687500D01*
D25*
X175875000Y-26062500D02*
X175937500Y-26000000D01*
X175875000Y-28750000D02*
X175875000Y-26062500D01*
X176437500Y-25500000D02*
X176437500Y-23687500D01*
X175937500Y-26000000D02*
X176437500Y-25500000D01*
D24*
X176437500Y-23687500D02*
X176750000Y-23687500D01*
X176250000Y-23687500D02*
X176437500Y-23687500D01*
D25*
X175875000Y-28750000D02*
X172911810Y-28750000D01*
X172664322Y-28750000D02*
X171250000Y-27335678D01*
X172911810Y-28750000D02*
X172664322Y-28750000D01*
X171250000Y-24750000D02*
X170750000Y-24250000D01*
X171250000Y-27335678D02*
X171250000Y-24750000D01*
X169650000Y-24250000D02*
X170750000Y-24250000D01*
X165250000Y-25000000D02*
X165250000Y-26075001D01*
X166000000Y-24250000D02*
X165250000Y-25000000D01*
X169650000Y-24250000D02*
X166000000Y-24250000D01*
X173373618Y-39000000D02*
X173311809Y-38938191D01*
X187000000Y-39000000D02*
X173373618Y-39000000D01*
X168900000Y-18900000D02*
X168000000Y-18000000D01*
X169750000Y-18900000D02*
X168900000Y-18900000D01*
X161550000Y-18950000D02*
X162500000Y-18000000D01*
X161550000Y-20500000D02*
X161550000Y-18950000D01*
X162500000Y-18000000D02*
X168000000Y-18000000D01*
D24*
X171750000Y-41176998D02*
X173311809Y-39615189D01*
X173311809Y-39615189D02*
X173311809Y-38938191D01*
X171750000Y-50500000D02*
X171750000Y-41176998D01*
X169750000Y-52500000D02*
X171750000Y-50500000D01*
X158000000Y-52500000D02*
X169750000Y-52500000D01*
D23*
%TO.N,Net-(D1-Pad4)*%
X135670000Y-56830000D02*
X136500000Y-56000000D01*
X136500000Y-46870000D02*
X134750000Y-45120000D01*
X136500000Y-56000000D02*
X136500000Y-46870000D01*
X134000000Y-56830000D02*
X135670000Y-56830000D01*
%TO.N,Net-(D1-Pad3)*%
X129670000Y-50670000D02*
X129670000Y-45120000D01*
X130750000Y-51750000D02*
X129670000Y-50670000D01*
X134000000Y-51750000D02*
X130750000Y-51750000D01*
%TO.N,Net-(D3-Pad1)*%
X145450000Y-25200000D02*
X147500000Y-27250000D01*
X142400000Y-25200000D02*
X145450000Y-25200000D01*
X149200000Y-28950000D02*
X147500000Y-27250000D01*
X152750000Y-28950000D02*
X149200000Y-28950000D01*
D24*
%TO.N,Net-(J4-Pad1)*%
X151750000Y-32550000D02*
X151750000Y-36750000D01*
X151750000Y-36750000D02*
X153000000Y-38000000D01*
X153000000Y-38000000D02*
X192000000Y-38000000D01*
X192000000Y-38000000D02*
X194120000Y-35880000D01*
X194120000Y-30130000D02*
X194120000Y-35880000D01*
X195000000Y-29250000D02*
X194120000Y-30130000D01*
%TO.N,Net-(J4-Pad2)*%
X164450000Y-34700000D02*
X164450000Y-32550000D01*
X166250000Y-36500000D02*
X164450000Y-34700000D01*
X190000000Y-36500000D02*
X166250000Y-36500000D01*
X191580000Y-34920000D02*
X190000000Y-36500000D01*
X191580000Y-30130000D02*
X195000000Y-26710000D01*
X191580000Y-34920000D02*
X191580000Y-30130000D01*
%TO.N,Net-(J4-Pad3)*%
X166990000Y-32550000D02*
X166990000Y-34240000D01*
X166990000Y-34240000D02*
X168000000Y-35250000D01*
X168000000Y-35250000D02*
X188250000Y-35250000D01*
X188250000Y-35250000D02*
X189040000Y-34460000D01*
X189040000Y-30130000D02*
X189040000Y-34460000D01*
X195000000Y-24170000D02*
X189040000Y-30130000D01*
%TO.N,Net-(J4-Pad4)*%
X176160000Y-31000000D02*
X174610000Y-32550000D01*
X185250000Y-31000000D02*
X176160000Y-31000000D01*
X194620000Y-21630000D02*
X185250000Y-31000000D01*
X195000000Y-21630000D02*
X194620000Y-21630000D01*
%TO.N,/lrclk*%
X176250000Y-19000000D02*
X176250000Y-20812500D01*
X164450000Y-57950000D02*
X164450000Y-56300000D01*
X164450000Y-56300000D02*
X165500000Y-55250000D01*
X175750000Y-55250000D02*
X176000000Y-55000000D01*
X165500000Y-55250000D02*
X175750000Y-55250000D01*
%TO.N,/bclk*%
X175250000Y-20812500D02*
X175250000Y-19000000D01*
%TO.N,/dout*%
X174250000Y-21187500D02*
X174562500Y-21500000D01*
X174250000Y-20000000D02*
X174250000Y-21187500D01*
%TO.N,Net-(R1-Pad2)*%
X172500000Y-22000000D02*
X169750000Y-22000000D01*
X174562500Y-22000000D02*
X172500000Y-22000000D01*
%TO.N,Net-(J5-Pad1)*%
X183500000Y-22500000D02*
X186000000Y-20000000D01*
X177437500Y-22500000D02*
X183500000Y-22500000D01*
%TO.N,Net-(J5-Pad2)*%
X185580000Y-25080000D02*
X186000000Y-25080000D01*
X183500000Y-23000000D02*
X185580000Y-25080000D01*
X177437500Y-23000000D02*
X183500000Y-23000000D01*
%TO.N,Net-(R3-Pad2)*%
X174562500Y-23000000D02*
X174562500Y-23687500D01*
X174000000Y-24250000D02*
X172750000Y-24250000D01*
X174562500Y-23687500D02*
X174000000Y-24250000D01*
X172750000Y-26750000D02*
X172750000Y-24250000D01*
%TD*%
D26*
%TO.N,GND*%
X149424188Y-17675518D02*
X149411928Y-17800000D01*
X149411928Y-20665000D01*
X145336595Y-20665000D01*
X145338072Y-20650000D01*
X145335000Y-20385750D01*
X145176250Y-20227000D01*
X142527000Y-20227000D01*
X142527000Y-20247000D01*
X142273000Y-20247000D01*
X142273000Y-20227000D01*
X139623750Y-20227000D01*
X139465000Y-20385750D01*
X139461928Y-20650000D01*
X139474188Y-20774482D01*
X139510498Y-20894180D01*
X139540335Y-20950000D01*
X139510498Y-21005820D01*
X139474188Y-21125518D01*
X139461928Y-21250000D01*
X139461928Y-22350000D01*
X139474188Y-22474482D01*
X139510498Y-22594180D01*
X139540335Y-22650000D01*
X139510498Y-22705820D01*
X139474188Y-22825518D01*
X139461928Y-22950000D01*
X139465000Y-23214250D01*
X139623750Y-23373000D01*
X142273000Y-23373000D01*
X142273000Y-23353000D01*
X142527000Y-23353000D01*
X142527000Y-23373000D01*
X145176250Y-23373000D01*
X145335000Y-23214250D01*
X145338072Y-22950000D01*
X145336595Y-22935000D01*
X150144249Y-22935000D01*
X150200000Y-22940491D01*
X150255751Y-22935000D01*
X150255752Y-22935000D01*
X150422499Y-22918577D01*
X150636447Y-22853676D01*
X150833623Y-22748284D01*
X151006449Y-22606449D01*
X151041996Y-22563135D01*
X152267060Y-21338072D01*
X155450000Y-21338072D01*
X155574482Y-21325812D01*
X155694180Y-21289502D01*
X155804494Y-21230537D01*
X155901185Y-21151185D01*
X155980537Y-21054494D01*
X156039502Y-20944180D01*
X156075812Y-20824482D01*
X156088072Y-20700000D01*
X156088072Y-20385000D01*
X157029869Y-20385000D01*
X157908008Y-21263140D01*
X157943551Y-21306449D01*
X158116377Y-21448284D01*
X158294302Y-21543386D01*
X158313553Y-21553676D01*
X158527501Y-21618577D01*
X158750000Y-21640491D01*
X158805751Y-21635000D01*
X159636780Y-21635000D01*
X159672038Y-21677962D01*
X159806614Y-21788405D01*
X159960150Y-21870472D01*
X160126746Y-21921008D01*
X160300000Y-21938072D01*
X160365001Y-21938072D01*
X160365000Y-24657318D01*
X160295506Y-24694464D01*
X160198815Y-24773816D01*
X160119463Y-24870507D01*
X160060498Y-24980821D01*
X160024188Y-25100519D01*
X160011928Y-25225001D01*
X160011928Y-26925001D01*
X160024188Y-27049483D01*
X160060498Y-27169181D01*
X160119463Y-27279495D01*
X160198815Y-27376186D01*
X160295506Y-27455538D01*
X160405820Y-27514503D01*
X160486466Y-27538967D01*
X160402412Y-27614732D01*
X160228359Y-27848081D01*
X160103175Y-28110902D01*
X160058524Y-28258111D01*
X160179845Y-28488001D01*
X161373000Y-28488001D01*
X161373000Y-28468001D01*
X161627000Y-28468001D01*
X161627000Y-28488001D01*
X162820155Y-28488001D01*
X162941476Y-28258111D01*
X162896825Y-28110902D01*
X162771641Y-27848081D01*
X162597588Y-27614732D01*
X162513534Y-27538967D01*
X162594180Y-27514503D01*
X162704494Y-27455538D01*
X162801185Y-27376186D01*
X162880537Y-27279495D01*
X162917683Y-27210001D01*
X163832317Y-27210001D01*
X163869463Y-27279495D01*
X163948815Y-27376186D01*
X164045506Y-27455538D01*
X164155820Y-27514503D01*
X164236466Y-27538967D01*
X164152412Y-27614732D01*
X163978359Y-27848081D01*
X163853175Y-28110902D01*
X163808524Y-28258111D01*
X163929845Y-28488001D01*
X165123000Y-28488001D01*
X165123000Y-28468001D01*
X165377000Y-28468001D01*
X165377000Y-28488001D01*
X166570155Y-28488001D01*
X166691476Y-28258111D01*
X166646825Y-28110902D01*
X166521641Y-27848081D01*
X166355247Y-27625000D01*
X168361928Y-27625000D01*
X168374188Y-27749482D01*
X168410498Y-27869180D01*
X168469463Y-27979494D01*
X168548815Y-28076185D01*
X168645506Y-28155537D01*
X168755820Y-28214502D01*
X168875518Y-28250812D01*
X169000000Y-28263072D01*
X169364250Y-28260000D01*
X169523000Y-28101250D01*
X169523000Y-26877000D01*
X168523750Y-26877000D01*
X168365000Y-27035750D01*
X168361928Y-27625000D01*
X166355247Y-27625000D01*
X166347588Y-27614732D01*
X166263534Y-27538967D01*
X166344180Y-27514503D01*
X166454494Y-27455538D01*
X166551185Y-27376186D01*
X166630537Y-27279495D01*
X166689502Y-27169181D01*
X166725812Y-27049483D01*
X166738072Y-26925001D01*
X166738072Y-25225001D01*
X166734132Y-25185000D01*
X168420473Y-25185000D01*
X168429528Y-25214851D01*
X168511595Y-25368387D01*
X168553756Y-25419760D01*
X168548815Y-25423815D01*
X168469463Y-25520506D01*
X168410498Y-25630820D01*
X168374188Y-25750518D01*
X168361928Y-25875000D01*
X168365000Y-26464250D01*
X168523750Y-26623000D01*
X169523000Y-26623000D01*
X169523000Y-26603000D01*
X169777000Y-26603000D01*
X169777000Y-26623000D01*
X169797000Y-26623000D01*
X169797000Y-26877000D01*
X169777000Y-26877000D01*
X169777000Y-28101250D01*
X169935750Y-28260000D01*
X170300000Y-28263072D01*
X170424482Y-28250812D01*
X170544180Y-28214502D01*
X170654494Y-28155537D01*
X170705616Y-28113583D01*
X171970696Y-29378664D01*
X171999978Y-29414344D01*
X172142350Y-29531186D01*
X172304782Y-29618007D01*
X172383795Y-29641975D01*
X172421554Y-29667205D01*
X172609912Y-29745226D01*
X172809871Y-29785000D01*
X173013749Y-29785000D01*
X173213708Y-29745226D01*
X173359105Y-29685000D01*
X174625389Y-29685000D01*
X174642028Y-29739852D01*
X174724095Y-29893387D01*
X174834538Y-30027962D01*
X174969113Y-30138405D01*
X175122648Y-30220472D01*
X175289244Y-30271008D01*
X175462498Y-30288072D01*
X175888792Y-30288072D01*
X175867753Y-30294454D01*
X175735723Y-30365026D01*
X175693108Y-30400000D01*
X175619999Y-30459999D01*
X175596201Y-30488997D01*
X175018112Y-31067086D01*
X174756260Y-31015000D01*
X174463740Y-31015000D01*
X174176842Y-31072068D01*
X173906589Y-31184010D01*
X173663368Y-31346525D01*
X173456525Y-31553368D01*
X173340000Y-31727760D01*
X173223475Y-31553368D01*
X173016632Y-31346525D01*
X172773411Y-31184010D01*
X172503158Y-31072068D01*
X172216260Y-31015000D01*
X171923740Y-31015000D01*
X171636842Y-31072068D01*
X171366589Y-31184010D01*
X171123368Y-31346525D01*
X170916525Y-31553368D01*
X170800000Y-31727760D01*
X170683475Y-31553368D01*
X170476632Y-31346525D01*
X170233411Y-31184010D01*
X169963158Y-31072068D01*
X169676260Y-31015000D01*
X169383740Y-31015000D01*
X169096842Y-31072068D01*
X168826589Y-31184010D01*
X168583368Y-31346525D01*
X168376525Y-31553368D01*
X168260000Y-31727760D01*
X168143475Y-31553368D01*
X167936632Y-31346525D01*
X167693411Y-31184010D01*
X167423158Y-31072068D01*
X167136260Y-31015000D01*
X166843740Y-31015000D01*
X166556842Y-31072068D01*
X166286589Y-31184010D01*
X166043368Y-31346525D01*
X165836525Y-31553368D01*
X165720000Y-31727760D01*
X165603475Y-31553368D01*
X165396632Y-31346525D01*
X165153411Y-31184010D01*
X164883158Y-31072068D01*
X164596260Y-31015000D01*
X164303740Y-31015000D01*
X164016842Y-31072068D01*
X163746589Y-31184010D01*
X163503368Y-31346525D01*
X163296525Y-31553368D01*
X163180000Y-31727760D01*
X163063475Y-31553368D01*
X162856632Y-31346525D01*
X162613411Y-31184010D01*
X162343158Y-31072068D01*
X162056260Y-31015000D01*
X161763740Y-31015000D01*
X161476842Y-31072068D01*
X161206589Y-31184010D01*
X160963368Y-31346525D01*
X160756525Y-31553368D01*
X160640000Y-31727760D01*
X160523475Y-31553368D01*
X160316632Y-31346525D01*
X160073411Y-31184010D01*
X159803158Y-31072068D01*
X159516260Y-31015000D01*
X159223740Y-31015000D01*
X158936842Y-31072068D01*
X158666589Y-31184010D01*
X158423368Y-31346525D01*
X158216525Y-31553368D01*
X158100000Y-31727760D01*
X157983475Y-31553368D01*
X157776632Y-31346525D01*
X157533411Y-31184010D01*
X157263158Y-31072068D01*
X156976260Y-31015000D01*
X156683740Y-31015000D01*
X156396842Y-31072068D01*
X156126589Y-31184010D01*
X155883368Y-31346525D01*
X155676525Y-31553368D01*
X155560000Y-31727760D01*
X155443475Y-31553368D01*
X155236632Y-31346525D01*
X154993411Y-31184010D01*
X154723158Y-31072068D01*
X154552250Y-31038072D01*
X155450000Y-31038072D01*
X155574482Y-31025812D01*
X155694180Y-30989502D01*
X155804494Y-30930537D01*
X155901185Y-30851185D01*
X155980537Y-30754494D01*
X156039502Y-30644180D01*
X156075812Y-30524482D01*
X156088072Y-30400000D01*
X156088072Y-28971891D01*
X160058524Y-28971891D01*
X160103175Y-29119100D01*
X160228359Y-29381921D01*
X160402412Y-29615270D01*
X160618645Y-29810179D01*
X160868748Y-29959158D01*
X161143109Y-30056482D01*
X161373000Y-29935815D01*
X161373000Y-28742001D01*
X161627000Y-28742001D01*
X161627000Y-29935815D01*
X161856891Y-30056482D01*
X162131252Y-29959158D01*
X162381355Y-29810179D01*
X162597588Y-29615270D01*
X162771641Y-29381921D01*
X162896825Y-29119100D01*
X162941476Y-28971891D01*
X163808524Y-28971891D01*
X163853175Y-29119100D01*
X163978359Y-29381921D01*
X164152412Y-29615270D01*
X164368645Y-29810179D01*
X164618748Y-29959158D01*
X164893109Y-30056482D01*
X165123000Y-29935815D01*
X165123000Y-28742001D01*
X165377000Y-28742001D01*
X165377000Y-29935815D01*
X165606891Y-30056482D01*
X165881252Y-29959158D01*
X166131355Y-29810179D01*
X166347588Y-29615270D01*
X166521641Y-29381921D01*
X166646825Y-29119100D01*
X166691476Y-28971891D01*
X166570155Y-28742001D01*
X165377000Y-28742001D01*
X165123000Y-28742001D01*
X163929845Y-28742001D01*
X163808524Y-28971891D01*
X162941476Y-28971891D01*
X162820155Y-28742001D01*
X161627000Y-28742001D01*
X161373000Y-28742001D01*
X160179845Y-28742001D01*
X160058524Y-28971891D01*
X156088072Y-28971891D01*
X156088072Y-27500000D01*
X156075812Y-27375518D01*
X156039502Y-27255820D01*
X155980537Y-27145506D01*
X155901185Y-27048815D01*
X155804494Y-26969463D01*
X155694180Y-26910498D01*
X155574482Y-26874188D01*
X155450000Y-26861928D01*
X150050000Y-26861928D01*
X149925518Y-26874188D01*
X149805820Y-26910498D01*
X149695506Y-26969463D01*
X149598815Y-27048815D01*
X149519463Y-27145506D01*
X149460498Y-27255820D01*
X149424188Y-27375518D01*
X149411928Y-27500000D01*
X149411928Y-27556796D01*
X148341992Y-26486861D01*
X148341988Y-26486856D01*
X146291996Y-24436865D01*
X146256449Y-24393551D01*
X146083623Y-24251716D01*
X145886447Y-24146324D01*
X145672499Y-24081423D01*
X145505752Y-24065000D01*
X145505751Y-24065000D01*
X145450000Y-24059509D01*
X145394249Y-24065000D01*
X145336595Y-24065000D01*
X145338072Y-24050000D01*
X145335000Y-23785750D01*
X145176250Y-23627000D01*
X142527000Y-23627000D01*
X142527000Y-23647000D01*
X142273000Y-23647000D01*
X142273000Y-23627000D01*
X139623750Y-23627000D01*
X139465000Y-23785750D01*
X139461928Y-24050000D01*
X139474188Y-24174482D01*
X139510498Y-24294180D01*
X139540335Y-24350000D01*
X139510498Y-24405820D01*
X139474188Y-24525518D01*
X139461928Y-24650000D01*
X139461928Y-25750000D01*
X139474188Y-25874482D01*
X139510498Y-25994180D01*
X139540335Y-26050000D01*
X139510498Y-26105820D01*
X139474188Y-26225518D01*
X139461928Y-26350000D01*
X139461928Y-27450000D01*
X139474188Y-27574482D01*
X139510498Y-27694180D01*
X139569463Y-27804494D01*
X139648815Y-27901185D01*
X139745506Y-27980537D01*
X139855820Y-28039502D01*
X139975518Y-28075812D01*
X140100000Y-28088072D01*
X141265000Y-28088072D01*
X141265001Y-31832555D01*
X141110150Y-31879528D01*
X140956614Y-31961595D01*
X140822038Y-32072038D01*
X140711595Y-32206614D01*
X140629528Y-32360150D01*
X140578992Y-32526746D01*
X140561928Y-32700000D01*
X140561928Y-33800000D01*
X140578992Y-33973254D01*
X140629528Y-34139850D01*
X140711595Y-34293386D01*
X140822038Y-34427962D01*
X140956614Y-34538405D01*
X141110150Y-34620472D01*
X141276746Y-34671008D01*
X141450000Y-34688072D01*
X141615001Y-34688072D01*
X141615000Y-37961928D01*
X141500000Y-37961928D01*
X141375518Y-37974188D01*
X141255820Y-38010498D01*
X141145506Y-38069463D01*
X141048815Y-38148815D01*
X140969463Y-38245506D01*
X140910498Y-38355820D01*
X140874188Y-38475518D01*
X140861928Y-38600000D01*
X140861928Y-40400000D01*
X140874188Y-40524482D01*
X140910498Y-40644180D01*
X140969463Y-40754494D01*
X141048815Y-40851185D01*
X141145506Y-40930537D01*
X141255820Y-40989502D01*
X141375518Y-41025812D01*
X141500000Y-41038072D01*
X144000000Y-41038072D01*
X144124482Y-41025812D01*
X144244180Y-40989502D01*
X144354494Y-40930537D01*
X144451185Y-40851185D01*
X144530537Y-40754494D01*
X144589502Y-40644180D01*
X144625812Y-40524482D01*
X144638072Y-40400000D01*
X144638072Y-38600000D01*
X144625812Y-38475518D01*
X144589502Y-38355820D01*
X144530537Y-38245506D01*
X144451185Y-38148815D01*
X144354494Y-38069463D01*
X144244180Y-38010498D01*
X144124482Y-37974188D01*
X144000000Y-37961928D01*
X143885000Y-37961928D01*
X143885000Y-34688072D01*
X143950000Y-34688072D01*
X144123254Y-34671008D01*
X144289850Y-34620472D01*
X144443386Y-34538405D01*
X144577962Y-34427962D01*
X144688405Y-34293386D01*
X144770472Y-34139850D01*
X144821008Y-33973254D01*
X144838072Y-33800000D01*
X144838072Y-33389117D01*
X145975000Y-33389117D01*
X145975000Y-33730883D01*
X146041675Y-34066081D01*
X146172463Y-34381831D01*
X146362337Y-34665998D01*
X146604002Y-34907663D01*
X146888169Y-35097537D01*
X147203919Y-35228325D01*
X147539117Y-35295000D01*
X147880883Y-35295000D01*
X148216081Y-35228325D01*
X148531831Y-35097537D01*
X148815998Y-34907663D01*
X149057663Y-34665998D01*
X149247537Y-34381831D01*
X149378325Y-34066081D01*
X149445000Y-33730883D01*
X149445000Y-33389117D01*
X149378325Y-33053919D01*
X149247537Y-32738169D01*
X149057663Y-32454002D01*
X148815998Y-32212337D01*
X148531831Y-32022463D01*
X148216081Y-31891675D01*
X147880883Y-31825000D01*
X147539117Y-31825000D01*
X147203919Y-31891675D01*
X146888169Y-32022463D01*
X146604002Y-32212337D01*
X146362337Y-32454002D01*
X146172463Y-32738169D01*
X146041675Y-33053919D01*
X145975000Y-33389117D01*
X144838072Y-33389117D01*
X144838072Y-32700000D01*
X144821008Y-32526746D01*
X144770472Y-32360150D01*
X144688405Y-32206614D01*
X144577962Y-32072038D01*
X144443386Y-31961595D01*
X144289850Y-31879528D01*
X144123254Y-31828992D01*
X143950000Y-31811928D01*
X143535000Y-31811928D01*
X143535000Y-28088072D01*
X144700000Y-28088072D01*
X144824482Y-28075812D01*
X144944180Y-28039502D01*
X145054494Y-27980537D01*
X145151185Y-27901185D01*
X145230537Y-27804494D01*
X145289502Y-27694180D01*
X145325812Y-27574482D01*
X145338072Y-27450000D01*
X145338072Y-26693203D01*
X146736856Y-28091988D01*
X146736861Y-28091992D01*
X148358009Y-29713140D01*
X148393551Y-29756449D01*
X148566377Y-29898284D01*
X148721155Y-29981014D01*
X148763553Y-30003676D01*
X148977501Y-30068577D01*
X149199999Y-30090491D01*
X149255751Y-30085000D01*
X149411928Y-30085000D01*
X149411928Y-30400000D01*
X149424188Y-30524482D01*
X149460498Y-30644180D01*
X149519463Y-30754494D01*
X149598815Y-30851185D01*
X149695506Y-30930537D01*
X149805820Y-30989502D01*
X149925518Y-31025812D01*
X150050000Y-31038072D01*
X150729749Y-31038072D01*
X150655820Y-31060498D01*
X150545506Y-31119463D01*
X150448815Y-31198815D01*
X150369463Y-31295506D01*
X150310498Y-31405820D01*
X150274188Y-31525518D01*
X150261928Y-31650000D01*
X150261928Y-33350000D01*
X150274188Y-33474482D01*
X150310498Y-33594180D01*
X150369463Y-33704494D01*
X150448815Y-33801185D01*
X150545506Y-33880537D01*
X150655820Y-33939502D01*
X150775518Y-33975812D01*
X150900000Y-33988072D01*
X150990000Y-33988072D01*
X150990001Y-36712668D01*
X150986324Y-36750000D01*
X151000998Y-36898985D01*
X151044454Y-37042246D01*
X151115026Y-37174276D01*
X151168965Y-37240000D01*
X151210000Y-37290001D01*
X151238998Y-37313799D01*
X152436201Y-38511003D01*
X152459999Y-38540001D01*
X152488997Y-38563799D01*
X152575723Y-38634974D01*
X152685312Y-38693551D01*
X152707753Y-38705546D01*
X152851014Y-38749003D01*
X152962667Y-38760000D01*
X152962677Y-38760000D01*
X153000000Y-38763676D01*
X153037323Y-38760000D01*
X172291976Y-38760000D01*
X172276809Y-38836252D01*
X172276809Y-39040130D01*
X172316583Y-39240089D01*
X172394604Y-39428447D01*
X172406278Y-39445918D01*
X171238998Y-40613199D01*
X171210000Y-40636997D01*
X171186202Y-40665995D01*
X171186201Y-40665996D01*
X171115026Y-40752722D01*
X171044454Y-40884752D01*
X171030566Y-40930537D01*
X171001666Y-41025812D01*
X171000998Y-41028013D01*
X170986324Y-41176998D01*
X170990001Y-41214330D01*
X170990000Y-50185198D01*
X169435199Y-51740000D01*
X158703711Y-51740000D01*
X158659774Y-51696063D01*
X158490256Y-51582795D01*
X158301898Y-51504774D01*
X158101939Y-51465000D01*
X157898061Y-51465000D01*
X157698102Y-51504774D01*
X157509744Y-51582795D01*
X157340226Y-51696063D01*
X157196063Y-51840226D01*
X157082795Y-52009744D01*
X157004774Y-52198102D01*
X156965000Y-52398061D01*
X156965000Y-52601939D01*
X157004774Y-52801898D01*
X157082795Y-52990256D01*
X157196063Y-53159774D01*
X157340226Y-53303937D01*
X157509744Y-53417205D01*
X157698102Y-53495226D01*
X157898061Y-53535000D01*
X158101939Y-53535000D01*
X158301898Y-53495226D01*
X158490256Y-53417205D01*
X158659774Y-53303937D01*
X158703711Y-53260000D01*
X169712678Y-53260000D01*
X169750000Y-53263676D01*
X169787322Y-53260000D01*
X169787333Y-53260000D01*
X169898986Y-53249003D01*
X170042247Y-53205546D01*
X170174276Y-53134974D01*
X170290001Y-53040001D01*
X170313804Y-53010997D01*
X172261004Y-51063798D01*
X172290001Y-51040001D01*
X172333616Y-50986856D01*
X172384974Y-50924277D01*
X172455546Y-50792247D01*
X172455546Y-50792246D01*
X172499003Y-50648986D01*
X172510000Y-50537333D01*
X172510000Y-50537324D01*
X172513676Y-50500001D01*
X172510000Y-50462678D01*
X172510000Y-41491799D01*
X173822818Y-40178983D01*
X173851810Y-40155190D01*
X173875604Y-40126197D01*
X173875608Y-40126193D01*
X173946782Y-40039466D01*
X173946783Y-40039465D01*
X174002622Y-39935000D01*
X186552705Y-39935000D01*
X186698102Y-39995226D01*
X186898061Y-40035000D01*
X187101939Y-40035000D01*
X187301898Y-39995226D01*
X187490256Y-39917205D01*
X187659774Y-39803937D01*
X187803937Y-39659774D01*
X187917205Y-39490256D01*
X187995226Y-39301898D01*
X188035000Y-39101939D01*
X188035000Y-38898061D01*
X188007538Y-38760000D01*
X191962678Y-38760000D01*
X192000000Y-38763676D01*
X192037322Y-38760000D01*
X192037333Y-38760000D01*
X192148986Y-38749003D01*
X192292247Y-38705546D01*
X192424276Y-38634974D01*
X192540001Y-38540001D01*
X192563804Y-38510997D01*
X194631003Y-36443799D01*
X194660001Y-36420001D01*
X194754974Y-36304276D01*
X194825546Y-36172247D01*
X194869003Y-36028986D01*
X194880000Y-35917333D01*
X194880000Y-35917325D01*
X194883676Y-35880000D01*
X194880000Y-35842675D01*
X194880000Y-35257328D01*
X195019117Y-35285000D01*
X195360883Y-35285000D01*
X195696081Y-35218325D01*
X196011831Y-35087537D01*
X196295998Y-34897663D01*
X196537663Y-34655998D01*
X196727537Y-34371831D01*
X196840001Y-34100320D01*
X196840000Y-56317252D01*
X196757537Y-56118169D01*
X196567663Y-55834002D01*
X196325998Y-55592337D01*
X196041831Y-55402463D01*
X195726081Y-55271675D01*
X195390883Y-55205000D01*
X195049117Y-55205000D01*
X194713919Y-55271675D01*
X194398169Y-55402463D01*
X194114002Y-55592337D01*
X193872337Y-55834002D01*
X193682463Y-56118169D01*
X193551675Y-56433919D01*
X193485000Y-56769117D01*
X193485000Y-57110883D01*
X193551675Y-57446081D01*
X193682463Y-57761831D01*
X193872337Y-58045998D01*
X194114002Y-58287663D01*
X194398169Y-58477537D01*
X194713919Y-58608325D01*
X195049117Y-58675000D01*
X195390883Y-58675000D01*
X195726081Y-58608325D01*
X196041831Y-58477537D01*
X196325998Y-58287663D01*
X196567663Y-58045998D01*
X196757537Y-57761831D01*
X196840000Y-57562748D01*
X196840000Y-59340000D01*
X187955445Y-59340000D01*
X188013411Y-59315990D01*
X188256632Y-59153475D01*
X188463475Y-58946632D01*
X188625990Y-58703411D01*
X188737932Y-58433158D01*
X188795000Y-58146260D01*
X188795000Y-57853740D01*
X188737932Y-57566842D01*
X188625990Y-57296589D01*
X188463475Y-57053368D01*
X188256632Y-56846525D01*
X188013411Y-56684010D01*
X187743158Y-56572068D01*
X187456260Y-56515000D01*
X187163740Y-56515000D01*
X186876842Y-56572068D01*
X186606589Y-56684010D01*
X186363368Y-56846525D01*
X186156525Y-57053368D01*
X186034805Y-57235534D01*
X185965178Y-57118645D01*
X185770269Y-56902412D01*
X185536920Y-56728359D01*
X185274099Y-56603175D01*
X185126890Y-56558524D01*
X184897000Y-56679845D01*
X184897000Y-57873000D01*
X184917000Y-57873000D01*
X184917000Y-58127000D01*
X184897000Y-58127000D01*
X184897000Y-58147000D01*
X184643000Y-58147000D01*
X184643000Y-58127000D01*
X184623000Y-58127000D01*
X184623000Y-57873000D01*
X184643000Y-57873000D01*
X184643000Y-56679845D01*
X184413110Y-56558524D01*
X184265901Y-56603175D01*
X184003080Y-56728359D01*
X183769731Y-56902412D01*
X183574822Y-57118645D01*
X183505195Y-57235534D01*
X183383475Y-57053368D01*
X183176632Y-56846525D01*
X182933411Y-56684010D01*
X182663158Y-56572068D01*
X182376260Y-56515000D01*
X182083740Y-56515000D01*
X181796842Y-56572068D01*
X181526589Y-56684010D01*
X181283368Y-56846525D01*
X181076525Y-57053368D01*
X180960000Y-57227760D01*
X180843475Y-57053368D01*
X180636632Y-56846525D01*
X180393411Y-56684010D01*
X180123158Y-56572068D01*
X179836260Y-56515000D01*
X179543740Y-56515000D01*
X179256842Y-56572068D01*
X178986589Y-56684010D01*
X178743368Y-56846525D01*
X178536525Y-57053368D01*
X178420000Y-57227760D01*
X178303475Y-57053368D01*
X178096632Y-56846525D01*
X177853411Y-56684010D01*
X177583158Y-56572068D01*
X177296260Y-56515000D01*
X177003740Y-56515000D01*
X176716842Y-56572068D01*
X176446589Y-56684010D01*
X176203368Y-56846525D01*
X175996525Y-57053368D01*
X175880000Y-57227760D01*
X175763475Y-57053368D01*
X175556632Y-56846525D01*
X175313411Y-56684010D01*
X175043158Y-56572068D01*
X174756260Y-56515000D01*
X174463740Y-56515000D01*
X174176842Y-56572068D01*
X173906589Y-56684010D01*
X173663368Y-56846525D01*
X173456525Y-57053368D01*
X173340000Y-57227760D01*
X173223475Y-57053368D01*
X173016632Y-56846525D01*
X172773411Y-56684010D01*
X172503158Y-56572068D01*
X172216260Y-56515000D01*
X171923740Y-56515000D01*
X171636842Y-56572068D01*
X171366589Y-56684010D01*
X171123368Y-56846525D01*
X170916525Y-57053368D01*
X170800000Y-57227760D01*
X170683475Y-57053368D01*
X170476632Y-56846525D01*
X170233411Y-56684010D01*
X169963158Y-56572068D01*
X169676260Y-56515000D01*
X169383740Y-56515000D01*
X169096842Y-56572068D01*
X168826589Y-56684010D01*
X168583368Y-56846525D01*
X168376525Y-57053368D01*
X168260000Y-57227760D01*
X168143475Y-57053368D01*
X167936632Y-56846525D01*
X167693411Y-56684010D01*
X167423158Y-56572068D01*
X167136260Y-56515000D01*
X166843740Y-56515000D01*
X166556842Y-56572068D01*
X166286589Y-56684010D01*
X166043368Y-56846525D01*
X165836525Y-57053368D01*
X165720000Y-57227760D01*
X165603475Y-57053368D01*
X165396632Y-56846525D01*
X165210000Y-56721822D01*
X165210000Y-56614801D01*
X165814802Y-56010000D01*
X175712678Y-56010000D01*
X175750000Y-56013676D01*
X175777326Y-56010985D01*
X175898061Y-56035000D01*
X176101939Y-56035000D01*
X176301898Y-55995226D01*
X176490256Y-55917205D01*
X176659774Y-55803937D01*
X176803937Y-55659774D01*
X176917205Y-55490256D01*
X176995226Y-55301898D01*
X177035000Y-55101939D01*
X177035000Y-54898061D01*
X176995226Y-54698102D01*
X176917205Y-54509744D01*
X176803937Y-54340226D01*
X176659774Y-54196063D01*
X176490256Y-54082795D01*
X176301898Y-54004774D01*
X176101939Y-53965000D01*
X175898061Y-53965000D01*
X175698102Y-54004774D01*
X175509744Y-54082795D01*
X175340226Y-54196063D01*
X175196063Y-54340226D01*
X175095987Y-54490000D01*
X165537322Y-54490000D01*
X165499999Y-54486324D01*
X165462676Y-54490000D01*
X165462667Y-54490000D01*
X165351014Y-54500997D01*
X165207753Y-54544454D01*
X165075724Y-54615026D01*
X164959999Y-54709999D01*
X164936201Y-54738997D01*
X163938998Y-55736201D01*
X163910000Y-55759999D01*
X163886202Y-55788997D01*
X163886201Y-55788998D01*
X163815026Y-55875724D01*
X163744454Y-56007754D01*
X163700998Y-56151015D01*
X163686324Y-56300000D01*
X163690001Y-56337332D01*
X163690001Y-56721821D01*
X163503368Y-56846525D01*
X163296525Y-57053368D01*
X163180000Y-57227760D01*
X163063475Y-57053368D01*
X162856632Y-56846525D01*
X162613411Y-56684010D01*
X162343158Y-56572068D01*
X162056260Y-56515000D01*
X161763740Y-56515000D01*
X161476842Y-56572068D01*
X161206589Y-56684010D01*
X160963368Y-56846525D01*
X160756525Y-57053368D01*
X160640000Y-57227760D01*
X160523475Y-57053368D01*
X160316632Y-56846525D01*
X160073411Y-56684010D01*
X159803158Y-56572068D01*
X159516260Y-56515000D01*
X159223740Y-56515000D01*
X158936842Y-56572068D01*
X158666589Y-56684010D01*
X158423368Y-56846525D01*
X158216525Y-57053368D01*
X158100000Y-57227760D01*
X157983475Y-57053368D01*
X157776632Y-56846525D01*
X157533411Y-56684010D01*
X157263158Y-56572068D01*
X156976260Y-56515000D01*
X156683740Y-56515000D01*
X156396842Y-56572068D01*
X156126589Y-56684010D01*
X155883368Y-56846525D01*
X155676525Y-57053368D01*
X155560000Y-57227760D01*
X155443475Y-57053368D01*
X155236632Y-56846525D01*
X154993411Y-56684010D01*
X154723158Y-56572068D01*
X154436260Y-56515000D01*
X154143740Y-56515000D01*
X153856842Y-56572068D01*
X153586589Y-56684010D01*
X153343368Y-56846525D01*
X153211513Y-56978380D01*
X153189502Y-56905820D01*
X153130537Y-56795506D01*
X153051185Y-56698815D01*
X152954494Y-56619463D01*
X152844180Y-56560498D01*
X152724482Y-56524188D01*
X152600000Y-56511928D01*
X150900000Y-56511928D01*
X150775518Y-56524188D01*
X150655820Y-56560498D01*
X150545506Y-56619463D01*
X150448815Y-56698815D01*
X150369463Y-56795506D01*
X150310498Y-56905820D01*
X150274188Y-57025518D01*
X150261928Y-57150000D01*
X150261928Y-58850000D01*
X150274188Y-58974482D01*
X150310498Y-59094180D01*
X150369463Y-59204494D01*
X150448815Y-59301185D01*
X150496111Y-59340000D01*
X141127000Y-59340000D01*
X141127000Y-56779117D01*
X145985000Y-56779117D01*
X145985000Y-57120883D01*
X146051675Y-57456081D01*
X146182463Y-57771831D01*
X146372337Y-58055998D01*
X146614002Y-58297663D01*
X146898169Y-58487537D01*
X147213919Y-58618325D01*
X147549117Y-58685000D01*
X147890883Y-58685000D01*
X148226081Y-58618325D01*
X148541831Y-58487537D01*
X148825998Y-58297663D01*
X149067663Y-58055998D01*
X149257537Y-57771831D01*
X149388325Y-57456081D01*
X149455000Y-57120883D01*
X149455000Y-56779117D01*
X149388325Y-56443919D01*
X149257537Y-56128169D01*
X149067663Y-55844002D01*
X148825998Y-55602337D01*
X148541831Y-55412463D01*
X148226081Y-55281675D01*
X147890883Y-55215000D01*
X147549117Y-55215000D01*
X147213919Y-55281675D01*
X146898169Y-55412463D01*
X146614002Y-55602337D01*
X146372337Y-55844002D01*
X146182463Y-56128169D01*
X146051675Y-56443919D01*
X145985000Y-56779117D01*
X141127000Y-56779117D01*
X141127000Y-48648061D01*
X148715000Y-48648061D01*
X148715000Y-48851939D01*
X148754774Y-49051898D01*
X148832795Y-49240256D01*
X148946063Y-49409774D01*
X149090226Y-49553937D01*
X149259744Y-49667205D01*
X149448102Y-49745226D01*
X149648061Y-49785000D01*
X149851939Y-49785000D01*
X150051898Y-49745226D01*
X150240256Y-49667205D01*
X150409774Y-49553937D01*
X150553937Y-49409774D01*
X150667205Y-49240256D01*
X150745226Y-49051898D01*
X150785000Y-48851939D01*
X150785000Y-48648061D01*
X150745226Y-48448102D01*
X150667205Y-48259744D01*
X150553937Y-48090226D01*
X150409774Y-47946063D01*
X150240256Y-47832795D01*
X150051898Y-47754774D01*
X149851939Y-47715000D01*
X149648061Y-47715000D01*
X149448102Y-47754774D01*
X149259744Y-47832795D01*
X149090226Y-47946063D01*
X148946063Y-48090226D01*
X148832795Y-48259744D01*
X148754774Y-48448102D01*
X148715000Y-48648061D01*
X141127000Y-48648061D01*
X141127000Y-45898061D01*
X148715000Y-45898061D01*
X148715000Y-46101939D01*
X148754774Y-46301898D01*
X148832795Y-46490256D01*
X148946063Y-46659774D01*
X149090226Y-46803937D01*
X149259744Y-46917205D01*
X149448102Y-46995226D01*
X149648061Y-47035000D01*
X149851939Y-47035000D01*
X150051898Y-46995226D01*
X150240256Y-46917205D01*
X150409774Y-46803937D01*
X150553937Y-46659774D01*
X150667205Y-46490256D01*
X150745226Y-46301898D01*
X150785000Y-46101939D01*
X150785000Y-45898061D01*
X150745226Y-45698102D01*
X150667205Y-45509744D01*
X150553937Y-45340226D01*
X150409774Y-45196063D01*
X150240256Y-45082795D01*
X150051898Y-45004774D01*
X149851939Y-44965000D01*
X149648061Y-44965000D01*
X149448102Y-45004774D01*
X149259744Y-45082795D01*
X149090226Y-45196063D01*
X148946063Y-45340226D01*
X148832795Y-45509744D01*
X148754774Y-45698102D01*
X148715000Y-45898061D01*
X141127000Y-45898061D01*
X141127000Y-41500000D01*
X141124560Y-41475224D01*
X141117333Y-41451399D01*
X141105597Y-41429443D01*
X141089803Y-41410197D01*
X141070557Y-41394403D01*
X141048601Y-41382667D01*
X141024776Y-41375440D01*
X141000000Y-41373000D01*
X128160000Y-41373000D01*
X128160000Y-37849040D01*
X128278091Y-37849040D01*
X128372930Y-38113881D01*
X128517615Y-38355131D01*
X128706586Y-38563519D01*
X128932580Y-38731037D01*
X129186913Y-38851246D01*
X129320961Y-38891904D01*
X129543000Y-38769915D01*
X129543000Y-37627000D01*
X129797000Y-37627000D01*
X129797000Y-38769915D01*
X130019039Y-38891904D01*
X130153087Y-38851246D01*
X130407420Y-38731037D01*
X130633414Y-38563519D01*
X130822385Y-38355131D01*
X130967070Y-38113881D01*
X131061909Y-37849040D01*
X130940624Y-37627000D01*
X129797000Y-37627000D01*
X129543000Y-37627000D01*
X128399376Y-37627000D01*
X128278091Y-37849040D01*
X128160000Y-37849040D01*
X128160000Y-37150960D01*
X128278091Y-37150960D01*
X128399376Y-37373000D01*
X129543000Y-37373000D01*
X129543000Y-36230085D01*
X129797000Y-36230085D01*
X129797000Y-37373000D01*
X130940624Y-37373000D01*
X131061909Y-37150960D01*
X130967070Y-36886119D01*
X130822385Y-36644869D01*
X130633414Y-36436481D01*
X130407420Y-36268963D01*
X130153087Y-36148754D01*
X130019039Y-36108096D01*
X129797000Y-36230085D01*
X129543000Y-36230085D01*
X129320961Y-36108096D01*
X129186913Y-36148754D01*
X128932580Y-36268963D01*
X128706586Y-36436481D01*
X128517615Y-36644869D01*
X128372930Y-36886119D01*
X128278091Y-37150960D01*
X128160000Y-37150960D01*
X128160000Y-34671105D01*
X128175518Y-34675812D01*
X128300000Y-34688072D01*
X129514250Y-34685000D01*
X129673000Y-34526250D01*
X129673000Y-33377000D01*
X129927000Y-33377000D01*
X129927000Y-34526250D01*
X130085750Y-34685000D01*
X131300000Y-34688072D01*
X131424482Y-34675812D01*
X131544180Y-34639502D01*
X131654494Y-34580537D01*
X131751185Y-34501185D01*
X131830537Y-34404494D01*
X131889502Y-34294180D01*
X131925812Y-34174482D01*
X131938072Y-34050000D01*
X131935000Y-33535750D01*
X131776250Y-33377000D01*
X129927000Y-33377000D01*
X129673000Y-33377000D01*
X129653000Y-33377000D01*
X129653000Y-33123000D01*
X129673000Y-33123000D01*
X129673000Y-31973750D01*
X129927000Y-31973750D01*
X129927000Y-33123000D01*
X131776250Y-33123000D01*
X131935000Y-32964250D01*
X131936578Y-32700000D01*
X132061928Y-32700000D01*
X132061928Y-33800000D01*
X132078992Y-33973254D01*
X132129528Y-34139850D01*
X132211595Y-34293386D01*
X132322038Y-34427962D01*
X132456614Y-34538405D01*
X132610150Y-34620472D01*
X132776746Y-34671008D01*
X132950000Y-34688072D01*
X133615001Y-34688072D01*
X133615000Y-36159043D01*
X133595506Y-36169463D01*
X133498815Y-36248815D01*
X133419463Y-36345506D01*
X133360498Y-36455820D01*
X133324188Y-36575518D01*
X133311928Y-36700000D01*
X133311928Y-38300000D01*
X133324188Y-38424482D01*
X133360498Y-38544180D01*
X133419463Y-38654494D01*
X133498815Y-38751185D01*
X133595506Y-38830537D01*
X133705820Y-38889502D01*
X133825518Y-38925812D01*
X133950000Y-38938072D01*
X134582941Y-38938072D01*
X135908009Y-40263141D01*
X135943551Y-40306449D01*
X136116377Y-40448284D01*
X136313553Y-40553676D01*
X136477705Y-40603471D01*
X136527500Y-40618577D01*
X136749999Y-40640491D01*
X136805751Y-40635000D01*
X136907713Y-40635000D01*
X136910498Y-40644180D01*
X136969463Y-40754494D01*
X137048815Y-40851185D01*
X137145506Y-40930537D01*
X137255820Y-40989502D01*
X137375518Y-41025812D01*
X137500000Y-41038072D01*
X140000000Y-41038072D01*
X140124482Y-41025812D01*
X140244180Y-40989502D01*
X140354494Y-40930537D01*
X140451185Y-40851185D01*
X140530537Y-40754494D01*
X140589502Y-40644180D01*
X140625812Y-40524482D01*
X140638072Y-40400000D01*
X140638072Y-38600000D01*
X140625812Y-38475518D01*
X140589502Y-38355820D01*
X140530537Y-38245506D01*
X140451185Y-38148815D01*
X140354494Y-38069463D01*
X140244180Y-38010498D01*
X140124482Y-37974188D01*
X140000000Y-37961928D01*
X137500000Y-37961928D01*
X137375518Y-37974188D01*
X137255820Y-38010498D01*
X137145506Y-38069463D01*
X137048815Y-38148815D01*
X137028590Y-38173459D01*
X136188072Y-37332941D01*
X136188072Y-36700000D01*
X136175812Y-36575518D01*
X136139502Y-36455820D01*
X136080537Y-36345506D01*
X136001185Y-36248815D01*
X135904494Y-36169463D01*
X135885000Y-36159043D01*
X135885000Y-34569613D01*
X135943386Y-34538405D01*
X136077962Y-34427962D01*
X136188405Y-34293386D01*
X136202346Y-34267305D01*
X136210498Y-34294180D01*
X136269463Y-34404494D01*
X136348815Y-34501185D01*
X136445506Y-34580537D01*
X136555820Y-34639502D01*
X136675518Y-34675812D01*
X136800000Y-34688072D01*
X138014250Y-34685000D01*
X138173000Y-34526250D01*
X138173000Y-33377000D01*
X138427000Y-33377000D01*
X138427000Y-34526250D01*
X138585750Y-34685000D01*
X139800000Y-34688072D01*
X139924482Y-34675812D01*
X140044180Y-34639502D01*
X140154494Y-34580537D01*
X140251185Y-34501185D01*
X140330537Y-34404494D01*
X140389502Y-34294180D01*
X140425812Y-34174482D01*
X140438072Y-34050000D01*
X140435000Y-33535750D01*
X140276250Y-33377000D01*
X138427000Y-33377000D01*
X138173000Y-33377000D01*
X138153000Y-33377000D01*
X138153000Y-33123000D01*
X138173000Y-33123000D01*
X138173000Y-31973750D01*
X138427000Y-31973750D01*
X138427000Y-33123000D01*
X140276250Y-33123000D01*
X140435000Y-32964250D01*
X140438072Y-32450000D01*
X140425812Y-32325518D01*
X140389502Y-32205820D01*
X140330537Y-32095506D01*
X140251185Y-31998815D01*
X140154494Y-31919463D01*
X140044180Y-31860498D01*
X139924482Y-31824188D01*
X139800000Y-31811928D01*
X138585750Y-31815000D01*
X138427000Y-31973750D01*
X138173000Y-31973750D01*
X138014250Y-31815000D01*
X136800000Y-31811928D01*
X136675518Y-31824188D01*
X136555820Y-31860498D01*
X136445506Y-31919463D01*
X136348815Y-31998815D01*
X136269463Y-32095506D01*
X136210498Y-32205820D01*
X136202346Y-32232695D01*
X136188405Y-32206614D01*
X136077962Y-32072038D01*
X135943386Y-31961595D01*
X135789850Y-31879528D01*
X135623254Y-31828992D01*
X135450000Y-31811928D01*
X132950000Y-31811928D01*
X132776746Y-31828992D01*
X132610150Y-31879528D01*
X132456614Y-31961595D01*
X132322038Y-32072038D01*
X132211595Y-32206614D01*
X132129528Y-32360150D01*
X132078992Y-32526746D01*
X132061928Y-32700000D01*
X131936578Y-32700000D01*
X131938072Y-32450000D01*
X131925812Y-32325518D01*
X131889502Y-32205820D01*
X131830537Y-32095506D01*
X131751185Y-31998815D01*
X131654494Y-31919463D01*
X131544180Y-31860498D01*
X131424482Y-31824188D01*
X131300000Y-31811928D01*
X130085750Y-31815000D01*
X129927000Y-31973750D01*
X129673000Y-31973750D01*
X129514250Y-31815000D01*
X128300000Y-31811928D01*
X128175518Y-31824188D01*
X128160000Y-31828895D01*
X128160000Y-29401398D01*
X128195506Y-29430537D01*
X128305820Y-29489502D01*
X128425518Y-29525812D01*
X128550000Y-29538072D01*
X132964250Y-29535000D01*
X133123000Y-29376250D01*
X133123000Y-23627000D01*
X133377000Y-23627000D01*
X133377000Y-29376250D01*
X133535750Y-29535000D01*
X137950000Y-29538072D01*
X138074482Y-29525812D01*
X138194180Y-29489502D01*
X138304494Y-29430537D01*
X138401185Y-29351185D01*
X138480537Y-29254494D01*
X138539502Y-29144180D01*
X138575812Y-29024482D01*
X138588072Y-28900000D01*
X138585000Y-23785750D01*
X138426250Y-23627000D01*
X133377000Y-23627000D01*
X133123000Y-23627000D01*
X133103000Y-23627000D01*
X133103000Y-23373000D01*
X133123000Y-23373000D01*
X133123000Y-23353000D01*
X133377000Y-23353000D01*
X133377000Y-23373000D01*
X138426250Y-23373000D01*
X138585000Y-23214250D01*
X138587201Y-19550000D01*
X139461928Y-19550000D01*
X139465000Y-19814250D01*
X139623750Y-19973000D01*
X142273000Y-19973000D01*
X142273000Y-19073750D01*
X142527000Y-19073750D01*
X142527000Y-19973000D01*
X145176250Y-19973000D01*
X145335000Y-19814250D01*
X145338072Y-19550000D01*
X145325812Y-19425518D01*
X145289502Y-19305820D01*
X145230537Y-19195506D01*
X145151185Y-19098815D01*
X145054494Y-19019463D01*
X144944180Y-18960498D01*
X144824482Y-18924188D01*
X144700000Y-18911928D01*
X142685750Y-18915000D01*
X142527000Y-19073750D01*
X142273000Y-19073750D01*
X142114250Y-18915000D01*
X140100000Y-18911928D01*
X139975518Y-18924188D01*
X139855820Y-18960498D01*
X139745506Y-19019463D01*
X139648815Y-19098815D01*
X139569463Y-19195506D01*
X139510498Y-19305820D01*
X139474188Y-19425518D01*
X139461928Y-19550000D01*
X138587201Y-19550000D01*
X138588072Y-18100000D01*
X138575812Y-17975518D01*
X138539502Y-17855820D01*
X138480537Y-17745506D01*
X138410364Y-17660000D01*
X149428895Y-17660000D01*
X149424188Y-17675518D01*
%TA.AperFunction,Conductor*%
D27*
G36*
X149424188Y-17675518D02*
G01*
X149411928Y-17800000D01*
X149411928Y-20665000D01*
X145336595Y-20665000D01*
X145338072Y-20650000D01*
X145335000Y-20385750D01*
X145176250Y-20227000D01*
X142527000Y-20227000D01*
X142527000Y-20247000D01*
X142273000Y-20247000D01*
X142273000Y-20227000D01*
X139623750Y-20227000D01*
X139465000Y-20385750D01*
X139461928Y-20650000D01*
X139474188Y-20774482D01*
X139510498Y-20894180D01*
X139540335Y-20950000D01*
X139510498Y-21005820D01*
X139474188Y-21125518D01*
X139461928Y-21250000D01*
X139461928Y-22350000D01*
X139474188Y-22474482D01*
X139510498Y-22594180D01*
X139540335Y-22650000D01*
X139510498Y-22705820D01*
X139474188Y-22825518D01*
X139461928Y-22950000D01*
X139465000Y-23214250D01*
X139623750Y-23373000D01*
X142273000Y-23373000D01*
X142273000Y-23353000D01*
X142527000Y-23353000D01*
X142527000Y-23373000D01*
X145176250Y-23373000D01*
X145335000Y-23214250D01*
X145338072Y-22950000D01*
X145336595Y-22935000D01*
X150144249Y-22935000D01*
X150200000Y-22940491D01*
X150255751Y-22935000D01*
X150255752Y-22935000D01*
X150422499Y-22918577D01*
X150636447Y-22853676D01*
X150833623Y-22748284D01*
X151006449Y-22606449D01*
X151041996Y-22563135D01*
X152267060Y-21338072D01*
X155450000Y-21338072D01*
X155574482Y-21325812D01*
X155694180Y-21289502D01*
X155804494Y-21230537D01*
X155901185Y-21151185D01*
X155980537Y-21054494D01*
X156039502Y-20944180D01*
X156075812Y-20824482D01*
X156088072Y-20700000D01*
X156088072Y-20385000D01*
X157029869Y-20385000D01*
X157908008Y-21263140D01*
X157943551Y-21306449D01*
X158116377Y-21448284D01*
X158294302Y-21543386D01*
X158313553Y-21553676D01*
X158527501Y-21618577D01*
X158750000Y-21640491D01*
X158805751Y-21635000D01*
X159636780Y-21635000D01*
X159672038Y-21677962D01*
X159806614Y-21788405D01*
X159960150Y-21870472D01*
X160126746Y-21921008D01*
X160300000Y-21938072D01*
X160365001Y-21938072D01*
X160365000Y-24657318D01*
X160295506Y-24694464D01*
X160198815Y-24773816D01*
X160119463Y-24870507D01*
X160060498Y-24980821D01*
X160024188Y-25100519D01*
X160011928Y-25225001D01*
X160011928Y-26925001D01*
X160024188Y-27049483D01*
X160060498Y-27169181D01*
X160119463Y-27279495D01*
X160198815Y-27376186D01*
X160295506Y-27455538D01*
X160405820Y-27514503D01*
X160486466Y-27538967D01*
X160402412Y-27614732D01*
X160228359Y-27848081D01*
X160103175Y-28110902D01*
X160058524Y-28258111D01*
X160179845Y-28488001D01*
X161373000Y-28488001D01*
X161373000Y-28468001D01*
X161627000Y-28468001D01*
X161627000Y-28488001D01*
X162820155Y-28488001D01*
X162941476Y-28258111D01*
X162896825Y-28110902D01*
X162771641Y-27848081D01*
X162597588Y-27614732D01*
X162513534Y-27538967D01*
X162594180Y-27514503D01*
X162704494Y-27455538D01*
X162801185Y-27376186D01*
X162880537Y-27279495D01*
X162917683Y-27210001D01*
X163832317Y-27210001D01*
X163869463Y-27279495D01*
X163948815Y-27376186D01*
X164045506Y-27455538D01*
X164155820Y-27514503D01*
X164236466Y-27538967D01*
X164152412Y-27614732D01*
X163978359Y-27848081D01*
X163853175Y-28110902D01*
X163808524Y-28258111D01*
X163929845Y-28488001D01*
X165123000Y-28488001D01*
X165123000Y-28468001D01*
X165377000Y-28468001D01*
X165377000Y-28488001D01*
X166570155Y-28488001D01*
X166691476Y-28258111D01*
X166646825Y-28110902D01*
X166521641Y-27848081D01*
X166355247Y-27625000D01*
X168361928Y-27625000D01*
X168374188Y-27749482D01*
X168410498Y-27869180D01*
X168469463Y-27979494D01*
X168548815Y-28076185D01*
X168645506Y-28155537D01*
X168755820Y-28214502D01*
X168875518Y-28250812D01*
X169000000Y-28263072D01*
X169364250Y-28260000D01*
X169523000Y-28101250D01*
X169523000Y-26877000D01*
X168523750Y-26877000D01*
X168365000Y-27035750D01*
X168361928Y-27625000D01*
X166355247Y-27625000D01*
X166347588Y-27614732D01*
X166263534Y-27538967D01*
X166344180Y-27514503D01*
X166454494Y-27455538D01*
X166551185Y-27376186D01*
X166630537Y-27279495D01*
X166689502Y-27169181D01*
X166725812Y-27049483D01*
X166738072Y-26925001D01*
X166738072Y-25225001D01*
X166734132Y-25185000D01*
X168420473Y-25185000D01*
X168429528Y-25214851D01*
X168511595Y-25368387D01*
X168553756Y-25419760D01*
X168548815Y-25423815D01*
X168469463Y-25520506D01*
X168410498Y-25630820D01*
X168374188Y-25750518D01*
X168361928Y-25875000D01*
X168365000Y-26464250D01*
X168523750Y-26623000D01*
X169523000Y-26623000D01*
X169523000Y-26603000D01*
X169777000Y-26603000D01*
X169777000Y-26623000D01*
X169797000Y-26623000D01*
X169797000Y-26877000D01*
X169777000Y-26877000D01*
X169777000Y-28101250D01*
X169935750Y-28260000D01*
X170300000Y-28263072D01*
X170424482Y-28250812D01*
X170544180Y-28214502D01*
X170654494Y-28155537D01*
X170705616Y-28113583D01*
X171970696Y-29378664D01*
X171999978Y-29414344D01*
X172142350Y-29531186D01*
X172304782Y-29618007D01*
X172383795Y-29641975D01*
X172421554Y-29667205D01*
X172609912Y-29745226D01*
X172809871Y-29785000D01*
X173013749Y-29785000D01*
X173213708Y-29745226D01*
X173359105Y-29685000D01*
X174625389Y-29685000D01*
X174642028Y-29739852D01*
X174724095Y-29893387D01*
X174834538Y-30027962D01*
X174969113Y-30138405D01*
X175122648Y-30220472D01*
X175289244Y-30271008D01*
X175462498Y-30288072D01*
X175888792Y-30288072D01*
X175867753Y-30294454D01*
X175735723Y-30365026D01*
X175693108Y-30400000D01*
X175619999Y-30459999D01*
X175596201Y-30488997D01*
X175018112Y-31067086D01*
X174756260Y-31015000D01*
X174463740Y-31015000D01*
X174176842Y-31072068D01*
X173906589Y-31184010D01*
X173663368Y-31346525D01*
X173456525Y-31553368D01*
X173340000Y-31727760D01*
X173223475Y-31553368D01*
X173016632Y-31346525D01*
X172773411Y-31184010D01*
X172503158Y-31072068D01*
X172216260Y-31015000D01*
X171923740Y-31015000D01*
X171636842Y-31072068D01*
X171366589Y-31184010D01*
X171123368Y-31346525D01*
X170916525Y-31553368D01*
X170800000Y-31727760D01*
X170683475Y-31553368D01*
X170476632Y-31346525D01*
X170233411Y-31184010D01*
X169963158Y-31072068D01*
X169676260Y-31015000D01*
X169383740Y-31015000D01*
X169096842Y-31072068D01*
X168826589Y-31184010D01*
X168583368Y-31346525D01*
X168376525Y-31553368D01*
X168260000Y-31727760D01*
X168143475Y-31553368D01*
X167936632Y-31346525D01*
X167693411Y-31184010D01*
X167423158Y-31072068D01*
X167136260Y-31015000D01*
X166843740Y-31015000D01*
X166556842Y-31072068D01*
X166286589Y-31184010D01*
X166043368Y-31346525D01*
X165836525Y-31553368D01*
X165720000Y-31727760D01*
X165603475Y-31553368D01*
X165396632Y-31346525D01*
X165153411Y-31184010D01*
X164883158Y-31072068D01*
X164596260Y-31015000D01*
X164303740Y-31015000D01*
X164016842Y-31072068D01*
X163746589Y-31184010D01*
X163503368Y-31346525D01*
X163296525Y-31553368D01*
X163180000Y-31727760D01*
X163063475Y-31553368D01*
X162856632Y-31346525D01*
X162613411Y-31184010D01*
X162343158Y-31072068D01*
X162056260Y-31015000D01*
X161763740Y-31015000D01*
X161476842Y-31072068D01*
X161206589Y-31184010D01*
X160963368Y-31346525D01*
X160756525Y-31553368D01*
X160640000Y-31727760D01*
X160523475Y-31553368D01*
X160316632Y-31346525D01*
X160073411Y-31184010D01*
X159803158Y-31072068D01*
X159516260Y-31015000D01*
X159223740Y-31015000D01*
X158936842Y-31072068D01*
X158666589Y-31184010D01*
X158423368Y-31346525D01*
X158216525Y-31553368D01*
X158100000Y-31727760D01*
X157983475Y-31553368D01*
X157776632Y-31346525D01*
X157533411Y-31184010D01*
X157263158Y-31072068D01*
X156976260Y-31015000D01*
X156683740Y-31015000D01*
X156396842Y-31072068D01*
X156126589Y-31184010D01*
X155883368Y-31346525D01*
X155676525Y-31553368D01*
X155560000Y-31727760D01*
X155443475Y-31553368D01*
X155236632Y-31346525D01*
X154993411Y-31184010D01*
X154723158Y-31072068D01*
X154552250Y-31038072D01*
X155450000Y-31038072D01*
X155574482Y-31025812D01*
X155694180Y-30989502D01*
X155804494Y-30930537D01*
X155901185Y-30851185D01*
X155980537Y-30754494D01*
X156039502Y-30644180D01*
X156075812Y-30524482D01*
X156088072Y-30400000D01*
X156088072Y-28971891D01*
X160058524Y-28971891D01*
X160103175Y-29119100D01*
X160228359Y-29381921D01*
X160402412Y-29615270D01*
X160618645Y-29810179D01*
X160868748Y-29959158D01*
X161143109Y-30056482D01*
X161373000Y-29935815D01*
X161373000Y-28742001D01*
X161627000Y-28742001D01*
X161627000Y-29935815D01*
X161856891Y-30056482D01*
X162131252Y-29959158D01*
X162381355Y-29810179D01*
X162597588Y-29615270D01*
X162771641Y-29381921D01*
X162896825Y-29119100D01*
X162941476Y-28971891D01*
X163808524Y-28971891D01*
X163853175Y-29119100D01*
X163978359Y-29381921D01*
X164152412Y-29615270D01*
X164368645Y-29810179D01*
X164618748Y-29959158D01*
X164893109Y-30056482D01*
X165123000Y-29935815D01*
X165123000Y-28742001D01*
X165377000Y-28742001D01*
X165377000Y-29935815D01*
X165606891Y-30056482D01*
X165881252Y-29959158D01*
X166131355Y-29810179D01*
X166347588Y-29615270D01*
X166521641Y-29381921D01*
X166646825Y-29119100D01*
X166691476Y-28971891D01*
X166570155Y-28742001D01*
X165377000Y-28742001D01*
X165123000Y-28742001D01*
X163929845Y-28742001D01*
X163808524Y-28971891D01*
X162941476Y-28971891D01*
X162820155Y-28742001D01*
X161627000Y-28742001D01*
X161373000Y-28742001D01*
X160179845Y-28742001D01*
X160058524Y-28971891D01*
X156088072Y-28971891D01*
X156088072Y-27500000D01*
X156075812Y-27375518D01*
X156039502Y-27255820D01*
X155980537Y-27145506D01*
X155901185Y-27048815D01*
X155804494Y-26969463D01*
X155694180Y-26910498D01*
X155574482Y-26874188D01*
X155450000Y-26861928D01*
X150050000Y-26861928D01*
X149925518Y-26874188D01*
X149805820Y-26910498D01*
X149695506Y-26969463D01*
X149598815Y-27048815D01*
X149519463Y-27145506D01*
X149460498Y-27255820D01*
X149424188Y-27375518D01*
X149411928Y-27500000D01*
X149411928Y-27556796D01*
X148341992Y-26486861D01*
X148341988Y-26486856D01*
X146291996Y-24436865D01*
X146256449Y-24393551D01*
X146083623Y-24251716D01*
X145886447Y-24146324D01*
X145672499Y-24081423D01*
X145505752Y-24065000D01*
X145505751Y-24065000D01*
X145450000Y-24059509D01*
X145394249Y-24065000D01*
X145336595Y-24065000D01*
X145338072Y-24050000D01*
X145335000Y-23785750D01*
X145176250Y-23627000D01*
X142527000Y-23627000D01*
X142527000Y-23647000D01*
X142273000Y-23647000D01*
X142273000Y-23627000D01*
X139623750Y-23627000D01*
X139465000Y-23785750D01*
X139461928Y-24050000D01*
X139474188Y-24174482D01*
X139510498Y-24294180D01*
X139540335Y-24350000D01*
X139510498Y-24405820D01*
X139474188Y-24525518D01*
X139461928Y-24650000D01*
X139461928Y-25750000D01*
X139474188Y-25874482D01*
X139510498Y-25994180D01*
X139540335Y-26050000D01*
X139510498Y-26105820D01*
X139474188Y-26225518D01*
X139461928Y-26350000D01*
X139461928Y-27450000D01*
X139474188Y-27574482D01*
X139510498Y-27694180D01*
X139569463Y-27804494D01*
X139648815Y-27901185D01*
X139745506Y-27980537D01*
X139855820Y-28039502D01*
X139975518Y-28075812D01*
X140100000Y-28088072D01*
X141265000Y-28088072D01*
X141265001Y-31832555D01*
X141110150Y-31879528D01*
X140956614Y-31961595D01*
X140822038Y-32072038D01*
X140711595Y-32206614D01*
X140629528Y-32360150D01*
X140578992Y-32526746D01*
X140561928Y-32700000D01*
X140561928Y-33800000D01*
X140578992Y-33973254D01*
X140629528Y-34139850D01*
X140711595Y-34293386D01*
X140822038Y-34427962D01*
X140956614Y-34538405D01*
X141110150Y-34620472D01*
X141276746Y-34671008D01*
X141450000Y-34688072D01*
X141615001Y-34688072D01*
X141615000Y-37961928D01*
X141500000Y-37961928D01*
X141375518Y-37974188D01*
X141255820Y-38010498D01*
X141145506Y-38069463D01*
X141048815Y-38148815D01*
X140969463Y-38245506D01*
X140910498Y-38355820D01*
X140874188Y-38475518D01*
X140861928Y-38600000D01*
X140861928Y-40400000D01*
X140874188Y-40524482D01*
X140910498Y-40644180D01*
X140969463Y-40754494D01*
X141048815Y-40851185D01*
X141145506Y-40930537D01*
X141255820Y-40989502D01*
X141375518Y-41025812D01*
X141500000Y-41038072D01*
X144000000Y-41038072D01*
X144124482Y-41025812D01*
X144244180Y-40989502D01*
X144354494Y-40930537D01*
X144451185Y-40851185D01*
X144530537Y-40754494D01*
X144589502Y-40644180D01*
X144625812Y-40524482D01*
X144638072Y-40400000D01*
X144638072Y-38600000D01*
X144625812Y-38475518D01*
X144589502Y-38355820D01*
X144530537Y-38245506D01*
X144451185Y-38148815D01*
X144354494Y-38069463D01*
X144244180Y-38010498D01*
X144124482Y-37974188D01*
X144000000Y-37961928D01*
X143885000Y-37961928D01*
X143885000Y-34688072D01*
X143950000Y-34688072D01*
X144123254Y-34671008D01*
X144289850Y-34620472D01*
X144443386Y-34538405D01*
X144577962Y-34427962D01*
X144688405Y-34293386D01*
X144770472Y-34139850D01*
X144821008Y-33973254D01*
X144838072Y-33800000D01*
X144838072Y-33389117D01*
X145975000Y-33389117D01*
X145975000Y-33730883D01*
X146041675Y-34066081D01*
X146172463Y-34381831D01*
X146362337Y-34665998D01*
X146604002Y-34907663D01*
X146888169Y-35097537D01*
X147203919Y-35228325D01*
X147539117Y-35295000D01*
X147880883Y-35295000D01*
X148216081Y-35228325D01*
X148531831Y-35097537D01*
X148815998Y-34907663D01*
X149057663Y-34665998D01*
X149247537Y-34381831D01*
X149378325Y-34066081D01*
X149445000Y-33730883D01*
X149445000Y-33389117D01*
X149378325Y-33053919D01*
X149247537Y-32738169D01*
X149057663Y-32454002D01*
X148815998Y-32212337D01*
X148531831Y-32022463D01*
X148216081Y-31891675D01*
X147880883Y-31825000D01*
X147539117Y-31825000D01*
X147203919Y-31891675D01*
X146888169Y-32022463D01*
X146604002Y-32212337D01*
X146362337Y-32454002D01*
X146172463Y-32738169D01*
X146041675Y-33053919D01*
X145975000Y-33389117D01*
X144838072Y-33389117D01*
X144838072Y-32700000D01*
X144821008Y-32526746D01*
X144770472Y-32360150D01*
X144688405Y-32206614D01*
X144577962Y-32072038D01*
X144443386Y-31961595D01*
X144289850Y-31879528D01*
X144123254Y-31828992D01*
X143950000Y-31811928D01*
X143535000Y-31811928D01*
X143535000Y-28088072D01*
X144700000Y-28088072D01*
X144824482Y-28075812D01*
X144944180Y-28039502D01*
X145054494Y-27980537D01*
X145151185Y-27901185D01*
X145230537Y-27804494D01*
X145289502Y-27694180D01*
X145325812Y-27574482D01*
X145338072Y-27450000D01*
X145338072Y-26693203D01*
X146736856Y-28091988D01*
X146736861Y-28091992D01*
X148358009Y-29713140D01*
X148393551Y-29756449D01*
X148566377Y-29898284D01*
X148721155Y-29981014D01*
X148763553Y-30003676D01*
X148977501Y-30068577D01*
X149199999Y-30090491D01*
X149255751Y-30085000D01*
X149411928Y-30085000D01*
X149411928Y-30400000D01*
X149424188Y-30524482D01*
X149460498Y-30644180D01*
X149519463Y-30754494D01*
X149598815Y-30851185D01*
X149695506Y-30930537D01*
X149805820Y-30989502D01*
X149925518Y-31025812D01*
X150050000Y-31038072D01*
X150729749Y-31038072D01*
X150655820Y-31060498D01*
X150545506Y-31119463D01*
X150448815Y-31198815D01*
X150369463Y-31295506D01*
X150310498Y-31405820D01*
X150274188Y-31525518D01*
X150261928Y-31650000D01*
X150261928Y-33350000D01*
X150274188Y-33474482D01*
X150310498Y-33594180D01*
X150369463Y-33704494D01*
X150448815Y-33801185D01*
X150545506Y-33880537D01*
X150655820Y-33939502D01*
X150775518Y-33975812D01*
X150900000Y-33988072D01*
X150990000Y-33988072D01*
X150990001Y-36712668D01*
X150986324Y-36750000D01*
X151000998Y-36898985D01*
X151044454Y-37042246D01*
X151115026Y-37174276D01*
X151168965Y-37240000D01*
X151210000Y-37290001D01*
X151238998Y-37313799D01*
X152436201Y-38511003D01*
X152459999Y-38540001D01*
X152488997Y-38563799D01*
X152575723Y-38634974D01*
X152685312Y-38693551D01*
X152707753Y-38705546D01*
X152851014Y-38749003D01*
X152962667Y-38760000D01*
X152962677Y-38760000D01*
X153000000Y-38763676D01*
X153037323Y-38760000D01*
X172291976Y-38760000D01*
X172276809Y-38836252D01*
X172276809Y-39040130D01*
X172316583Y-39240089D01*
X172394604Y-39428447D01*
X172406278Y-39445918D01*
X171238998Y-40613199D01*
X171210000Y-40636997D01*
X171186202Y-40665995D01*
X171186201Y-40665996D01*
X171115026Y-40752722D01*
X171044454Y-40884752D01*
X171030566Y-40930537D01*
X171001666Y-41025812D01*
X171000998Y-41028013D01*
X170986324Y-41176998D01*
X170990001Y-41214330D01*
X170990000Y-50185198D01*
X169435199Y-51740000D01*
X158703711Y-51740000D01*
X158659774Y-51696063D01*
X158490256Y-51582795D01*
X158301898Y-51504774D01*
X158101939Y-51465000D01*
X157898061Y-51465000D01*
X157698102Y-51504774D01*
X157509744Y-51582795D01*
X157340226Y-51696063D01*
X157196063Y-51840226D01*
X157082795Y-52009744D01*
X157004774Y-52198102D01*
X156965000Y-52398061D01*
X156965000Y-52601939D01*
X157004774Y-52801898D01*
X157082795Y-52990256D01*
X157196063Y-53159774D01*
X157340226Y-53303937D01*
X157509744Y-53417205D01*
X157698102Y-53495226D01*
X157898061Y-53535000D01*
X158101939Y-53535000D01*
X158301898Y-53495226D01*
X158490256Y-53417205D01*
X158659774Y-53303937D01*
X158703711Y-53260000D01*
X169712678Y-53260000D01*
X169750000Y-53263676D01*
X169787322Y-53260000D01*
X169787333Y-53260000D01*
X169898986Y-53249003D01*
X170042247Y-53205546D01*
X170174276Y-53134974D01*
X170290001Y-53040001D01*
X170313804Y-53010997D01*
X172261004Y-51063798D01*
X172290001Y-51040001D01*
X172333616Y-50986856D01*
X172384974Y-50924277D01*
X172455546Y-50792247D01*
X172455546Y-50792246D01*
X172499003Y-50648986D01*
X172510000Y-50537333D01*
X172510000Y-50537324D01*
X172513676Y-50500001D01*
X172510000Y-50462678D01*
X172510000Y-41491799D01*
X173822818Y-40178983D01*
X173851810Y-40155190D01*
X173875604Y-40126197D01*
X173875608Y-40126193D01*
X173946782Y-40039466D01*
X173946783Y-40039465D01*
X174002622Y-39935000D01*
X186552705Y-39935000D01*
X186698102Y-39995226D01*
X186898061Y-40035000D01*
X187101939Y-40035000D01*
X187301898Y-39995226D01*
X187490256Y-39917205D01*
X187659774Y-39803937D01*
X187803937Y-39659774D01*
X187917205Y-39490256D01*
X187995226Y-39301898D01*
X188035000Y-39101939D01*
X188035000Y-38898061D01*
X188007538Y-38760000D01*
X191962678Y-38760000D01*
X192000000Y-38763676D01*
X192037322Y-38760000D01*
X192037333Y-38760000D01*
X192148986Y-38749003D01*
X192292247Y-38705546D01*
X192424276Y-38634974D01*
X192540001Y-38540001D01*
X192563804Y-38510997D01*
X194631003Y-36443799D01*
X194660001Y-36420001D01*
X194754974Y-36304276D01*
X194825546Y-36172247D01*
X194869003Y-36028986D01*
X194880000Y-35917333D01*
X194880000Y-35917325D01*
X194883676Y-35880000D01*
X194880000Y-35842675D01*
X194880000Y-35257328D01*
X195019117Y-35285000D01*
X195360883Y-35285000D01*
X195696081Y-35218325D01*
X196011831Y-35087537D01*
X196295998Y-34897663D01*
X196537663Y-34655998D01*
X196727537Y-34371831D01*
X196840001Y-34100320D01*
X196840000Y-56317252D01*
X196757537Y-56118169D01*
X196567663Y-55834002D01*
X196325998Y-55592337D01*
X196041831Y-55402463D01*
X195726081Y-55271675D01*
X195390883Y-55205000D01*
X195049117Y-55205000D01*
X194713919Y-55271675D01*
X194398169Y-55402463D01*
X194114002Y-55592337D01*
X193872337Y-55834002D01*
X193682463Y-56118169D01*
X193551675Y-56433919D01*
X193485000Y-56769117D01*
X193485000Y-57110883D01*
X193551675Y-57446081D01*
X193682463Y-57761831D01*
X193872337Y-58045998D01*
X194114002Y-58287663D01*
X194398169Y-58477537D01*
X194713919Y-58608325D01*
X195049117Y-58675000D01*
X195390883Y-58675000D01*
X195726081Y-58608325D01*
X196041831Y-58477537D01*
X196325998Y-58287663D01*
X196567663Y-58045998D01*
X196757537Y-57761831D01*
X196840000Y-57562748D01*
X196840000Y-59340000D01*
X187955445Y-59340000D01*
X188013411Y-59315990D01*
X188256632Y-59153475D01*
X188463475Y-58946632D01*
X188625990Y-58703411D01*
X188737932Y-58433158D01*
X188795000Y-58146260D01*
X188795000Y-57853740D01*
X188737932Y-57566842D01*
X188625990Y-57296589D01*
X188463475Y-57053368D01*
X188256632Y-56846525D01*
X188013411Y-56684010D01*
X187743158Y-56572068D01*
X187456260Y-56515000D01*
X187163740Y-56515000D01*
X186876842Y-56572068D01*
X186606589Y-56684010D01*
X186363368Y-56846525D01*
X186156525Y-57053368D01*
X186034805Y-57235534D01*
X185965178Y-57118645D01*
X185770269Y-56902412D01*
X185536920Y-56728359D01*
X185274099Y-56603175D01*
X185126890Y-56558524D01*
X184897000Y-56679845D01*
X184897000Y-57873000D01*
X184917000Y-57873000D01*
X184917000Y-58127000D01*
X184897000Y-58127000D01*
X184897000Y-58147000D01*
X184643000Y-58147000D01*
X184643000Y-58127000D01*
X184623000Y-58127000D01*
X184623000Y-57873000D01*
X184643000Y-57873000D01*
X184643000Y-56679845D01*
X184413110Y-56558524D01*
X184265901Y-56603175D01*
X184003080Y-56728359D01*
X183769731Y-56902412D01*
X183574822Y-57118645D01*
X183505195Y-57235534D01*
X183383475Y-57053368D01*
X183176632Y-56846525D01*
X182933411Y-56684010D01*
X182663158Y-56572068D01*
X182376260Y-56515000D01*
X182083740Y-56515000D01*
X181796842Y-56572068D01*
X181526589Y-56684010D01*
X181283368Y-56846525D01*
X181076525Y-57053368D01*
X180960000Y-57227760D01*
X180843475Y-57053368D01*
X180636632Y-56846525D01*
X180393411Y-56684010D01*
X180123158Y-56572068D01*
X179836260Y-56515000D01*
X179543740Y-56515000D01*
X179256842Y-56572068D01*
X178986589Y-56684010D01*
X178743368Y-56846525D01*
X178536525Y-57053368D01*
X178420000Y-57227760D01*
X178303475Y-57053368D01*
X178096632Y-56846525D01*
X177853411Y-56684010D01*
X177583158Y-56572068D01*
X177296260Y-56515000D01*
X177003740Y-56515000D01*
X176716842Y-56572068D01*
X176446589Y-56684010D01*
X176203368Y-56846525D01*
X175996525Y-57053368D01*
X175880000Y-57227760D01*
X175763475Y-57053368D01*
X175556632Y-56846525D01*
X175313411Y-56684010D01*
X175043158Y-56572068D01*
X174756260Y-56515000D01*
X174463740Y-56515000D01*
X174176842Y-56572068D01*
X173906589Y-56684010D01*
X173663368Y-56846525D01*
X173456525Y-57053368D01*
X173340000Y-57227760D01*
X173223475Y-57053368D01*
X173016632Y-56846525D01*
X172773411Y-56684010D01*
X172503158Y-56572068D01*
X172216260Y-56515000D01*
X171923740Y-56515000D01*
X171636842Y-56572068D01*
X171366589Y-56684010D01*
X171123368Y-56846525D01*
X170916525Y-57053368D01*
X170800000Y-57227760D01*
X170683475Y-57053368D01*
X170476632Y-56846525D01*
X170233411Y-56684010D01*
X169963158Y-56572068D01*
X169676260Y-56515000D01*
X169383740Y-56515000D01*
X169096842Y-56572068D01*
X168826589Y-56684010D01*
X168583368Y-56846525D01*
X168376525Y-57053368D01*
X168260000Y-57227760D01*
X168143475Y-57053368D01*
X167936632Y-56846525D01*
X167693411Y-56684010D01*
X167423158Y-56572068D01*
X167136260Y-56515000D01*
X166843740Y-56515000D01*
X166556842Y-56572068D01*
X166286589Y-56684010D01*
X166043368Y-56846525D01*
X165836525Y-57053368D01*
X165720000Y-57227760D01*
X165603475Y-57053368D01*
X165396632Y-56846525D01*
X165210000Y-56721822D01*
X165210000Y-56614801D01*
X165814802Y-56010000D01*
X175712678Y-56010000D01*
X175750000Y-56013676D01*
X175777326Y-56010985D01*
X175898061Y-56035000D01*
X176101939Y-56035000D01*
X176301898Y-55995226D01*
X176490256Y-55917205D01*
X176659774Y-55803937D01*
X176803937Y-55659774D01*
X176917205Y-55490256D01*
X176995226Y-55301898D01*
X177035000Y-55101939D01*
X177035000Y-54898061D01*
X176995226Y-54698102D01*
X176917205Y-54509744D01*
X176803937Y-54340226D01*
X176659774Y-54196063D01*
X176490256Y-54082795D01*
X176301898Y-54004774D01*
X176101939Y-53965000D01*
X175898061Y-53965000D01*
X175698102Y-54004774D01*
X175509744Y-54082795D01*
X175340226Y-54196063D01*
X175196063Y-54340226D01*
X175095987Y-54490000D01*
X165537322Y-54490000D01*
X165499999Y-54486324D01*
X165462676Y-54490000D01*
X165462667Y-54490000D01*
X165351014Y-54500997D01*
X165207753Y-54544454D01*
X165075724Y-54615026D01*
X164959999Y-54709999D01*
X164936201Y-54738997D01*
X163938998Y-55736201D01*
X163910000Y-55759999D01*
X163886202Y-55788997D01*
X163886201Y-55788998D01*
X163815026Y-55875724D01*
X163744454Y-56007754D01*
X163700998Y-56151015D01*
X163686324Y-56300000D01*
X163690001Y-56337332D01*
X163690001Y-56721821D01*
X163503368Y-56846525D01*
X163296525Y-57053368D01*
X163180000Y-57227760D01*
X163063475Y-57053368D01*
X162856632Y-56846525D01*
X162613411Y-56684010D01*
X162343158Y-56572068D01*
X162056260Y-56515000D01*
X161763740Y-56515000D01*
X161476842Y-56572068D01*
X161206589Y-56684010D01*
X160963368Y-56846525D01*
X160756525Y-57053368D01*
X160640000Y-57227760D01*
X160523475Y-57053368D01*
X160316632Y-56846525D01*
X160073411Y-56684010D01*
X159803158Y-56572068D01*
X159516260Y-56515000D01*
X159223740Y-56515000D01*
X158936842Y-56572068D01*
X158666589Y-56684010D01*
X158423368Y-56846525D01*
X158216525Y-57053368D01*
X158100000Y-57227760D01*
X157983475Y-57053368D01*
X157776632Y-56846525D01*
X157533411Y-56684010D01*
X157263158Y-56572068D01*
X156976260Y-56515000D01*
X156683740Y-56515000D01*
X156396842Y-56572068D01*
X156126589Y-56684010D01*
X155883368Y-56846525D01*
X155676525Y-57053368D01*
X155560000Y-57227760D01*
X155443475Y-57053368D01*
X155236632Y-56846525D01*
X154993411Y-56684010D01*
X154723158Y-56572068D01*
X154436260Y-56515000D01*
X154143740Y-56515000D01*
X153856842Y-56572068D01*
X153586589Y-56684010D01*
X153343368Y-56846525D01*
X153211513Y-56978380D01*
X153189502Y-56905820D01*
X153130537Y-56795506D01*
X153051185Y-56698815D01*
X152954494Y-56619463D01*
X152844180Y-56560498D01*
X152724482Y-56524188D01*
X152600000Y-56511928D01*
X150900000Y-56511928D01*
X150775518Y-56524188D01*
X150655820Y-56560498D01*
X150545506Y-56619463D01*
X150448815Y-56698815D01*
X150369463Y-56795506D01*
X150310498Y-56905820D01*
X150274188Y-57025518D01*
X150261928Y-57150000D01*
X150261928Y-58850000D01*
X150274188Y-58974482D01*
X150310498Y-59094180D01*
X150369463Y-59204494D01*
X150448815Y-59301185D01*
X150496111Y-59340000D01*
X141127000Y-59340000D01*
X141127000Y-56779117D01*
X145985000Y-56779117D01*
X145985000Y-57120883D01*
X146051675Y-57456081D01*
X146182463Y-57771831D01*
X146372337Y-58055998D01*
X146614002Y-58297663D01*
X146898169Y-58487537D01*
X147213919Y-58618325D01*
X147549117Y-58685000D01*
X147890883Y-58685000D01*
X148226081Y-58618325D01*
X148541831Y-58487537D01*
X148825998Y-58297663D01*
X149067663Y-58055998D01*
X149257537Y-57771831D01*
X149388325Y-57456081D01*
X149455000Y-57120883D01*
X149455000Y-56779117D01*
X149388325Y-56443919D01*
X149257537Y-56128169D01*
X149067663Y-55844002D01*
X148825998Y-55602337D01*
X148541831Y-55412463D01*
X148226081Y-55281675D01*
X147890883Y-55215000D01*
X147549117Y-55215000D01*
X147213919Y-55281675D01*
X146898169Y-55412463D01*
X146614002Y-55602337D01*
X146372337Y-55844002D01*
X146182463Y-56128169D01*
X146051675Y-56443919D01*
X145985000Y-56779117D01*
X141127000Y-56779117D01*
X141127000Y-48648061D01*
X148715000Y-48648061D01*
X148715000Y-48851939D01*
X148754774Y-49051898D01*
X148832795Y-49240256D01*
X148946063Y-49409774D01*
X149090226Y-49553937D01*
X149259744Y-49667205D01*
X149448102Y-49745226D01*
X149648061Y-49785000D01*
X149851939Y-49785000D01*
X150051898Y-49745226D01*
X150240256Y-49667205D01*
X150409774Y-49553937D01*
X150553937Y-49409774D01*
X150667205Y-49240256D01*
X150745226Y-49051898D01*
X150785000Y-48851939D01*
X150785000Y-48648061D01*
X150745226Y-48448102D01*
X150667205Y-48259744D01*
X150553937Y-48090226D01*
X150409774Y-47946063D01*
X150240256Y-47832795D01*
X150051898Y-47754774D01*
X149851939Y-47715000D01*
X149648061Y-47715000D01*
X149448102Y-47754774D01*
X149259744Y-47832795D01*
X149090226Y-47946063D01*
X148946063Y-48090226D01*
X148832795Y-48259744D01*
X148754774Y-48448102D01*
X148715000Y-48648061D01*
X141127000Y-48648061D01*
X141127000Y-45898061D01*
X148715000Y-45898061D01*
X148715000Y-46101939D01*
X148754774Y-46301898D01*
X148832795Y-46490256D01*
X148946063Y-46659774D01*
X149090226Y-46803937D01*
X149259744Y-46917205D01*
X149448102Y-46995226D01*
X149648061Y-47035000D01*
X149851939Y-47035000D01*
X150051898Y-46995226D01*
X150240256Y-46917205D01*
X150409774Y-46803937D01*
X150553937Y-46659774D01*
X150667205Y-46490256D01*
X150745226Y-46301898D01*
X150785000Y-46101939D01*
X150785000Y-45898061D01*
X150745226Y-45698102D01*
X150667205Y-45509744D01*
X150553937Y-45340226D01*
X150409774Y-45196063D01*
X150240256Y-45082795D01*
X150051898Y-45004774D01*
X149851939Y-44965000D01*
X149648061Y-44965000D01*
X149448102Y-45004774D01*
X149259744Y-45082795D01*
X149090226Y-45196063D01*
X148946063Y-45340226D01*
X148832795Y-45509744D01*
X148754774Y-45698102D01*
X148715000Y-45898061D01*
X141127000Y-45898061D01*
X141127000Y-41500000D01*
X141124560Y-41475224D01*
X141117333Y-41451399D01*
X141105597Y-41429443D01*
X141089803Y-41410197D01*
X141070557Y-41394403D01*
X141048601Y-41382667D01*
X141024776Y-41375440D01*
X141000000Y-41373000D01*
X128160000Y-41373000D01*
X128160000Y-37849040D01*
X128278091Y-37849040D01*
X128372930Y-38113881D01*
X128517615Y-38355131D01*
X128706586Y-38563519D01*
X128932580Y-38731037D01*
X129186913Y-38851246D01*
X129320961Y-38891904D01*
X129543000Y-38769915D01*
X129543000Y-37627000D01*
X129797000Y-37627000D01*
X129797000Y-38769915D01*
X130019039Y-38891904D01*
X130153087Y-38851246D01*
X130407420Y-38731037D01*
X130633414Y-38563519D01*
X130822385Y-38355131D01*
X130967070Y-38113881D01*
X131061909Y-37849040D01*
X130940624Y-37627000D01*
X129797000Y-37627000D01*
X129543000Y-37627000D01*
X128399376Y-37627000D01*
X128278091Y-37849040D01*
X128160000Y-37849040D01*
X128160000Y-37150960D01*
X128278091Y-37150960D01*
X128399376Y-37373000D01*
X129543000Y-37373000D01*
X129543000Y-36230085D01*
X129797000Y-36230085D01*
X129797000Y-37373000D01*
X130940624Y-37373000D01*
X131061909Y-37150960D01*
X130967070Y-36886119D01*
X130822385Y-36644869D01*
X130633414Y-36436481D01*
X130407420Y-36268963D01*
X130153087Y-36148754D01*
X130019039Y-36108096D01*
X129797000Y-36230085D01*
X129543000Y-36230085D01*
X129320961Y-36108096D01*
X129186913Y-36148754D01*
X128932580Y-36268963D01*
X128706586Y-36436481D01*
X128517615Y-36644869D01*
X128372930Y-36886119D01*
X128278091Y-37150960D01*
X128160000Y-37150960D01*
X128160000Y-34671105D01*
X128175518Y-34675812D01*
X128300000Y-34688072D01*
X129514250Y-34685000D01*
X129673000Y-34526250D01*
X129673000Y-33377000D01*
X129927000Y-33377000D01*
X129927000Y-34526250D01*
X130085750Y-34685000D01*
X131300000Y-34688072D01*
X131424482Y-34675812D01*
X131544180Y-34639502D01*
X131654494Y-34580537D01*
X131751185Y-34501185D01*
X131830537Y-34404494D01*
X131889502Y-34294180D01*
X131925812Y-34174482D01*
X131938072Y-34050000D01*
X131935000Y-33535750D01*
X131776250Y-33377000D01*
X129927000Y-33377000D01*
X129673000Y-33377000D01*
X129653000Y-33377000D01*
X129653000Y-33123000D01*
X129673000Y-33123000D01*
X129673000Y-31973750D01*
X129927000Y-31973750D01*
X129927000Y-33123000D01*
X131776250Y-33123000D01*
X131935000Y-32964250D01*
X131936578Y-32700000D01*
X132061928Y-32700000D01*
X132061928Y-33800000D01*
X132078992Y-33973254D01*
X132129528Y-34139850D01*
X132211595Y-34293386D01*
X132322038Y-34427962D01*
X132456614Y-34538405D01*
X132610150Y-34620472D01*
X132776746Y-34671008D01*
X132950000Y-34688072D01*
X133615001Y-34688072D01*
X133615000Y-36159043D01*
X133595506Y-36169463D01*
X133498815Y-36248815D01*
X133419463Y-36345506D01*
X133360498Y-36455820D01*
X133324188Y-36575518D01*
X133311928Y-36700000D01*
X133311928Y-38300000D01*
X133324188Y-38424482D01*
X133360498Y-38544180D01*
X133419463Y-38654494D01*
X133498815Y-38751185D01*
X133595506Y-38830537D01*
X133705820Y-38889502D01*
X133825518Y-38925812D01*
X133950000Y-38938072D01*
X134582941Y-38938072D01*
X135908009Y-40263141D01*
X135943551Y-40306449D01*
X136116377Y-40448284D01*
X136313553Y-40553676D01*
X136477705Y-40603471D01*
X136527500Y-40618577D01*
X136749999Y-40640491D01*
X136805751Y-40635000D01*
X136907713Y-40635000D01*
X136910498Y-40644180D01*
X136969463Y-40754494D01*
X137048815Y-40851185D01*
X137145506Y-40930537D01*
X137255820Y-40989502D01*
X137375518Y-41025812D01*
X137500000Y-41038072D01*
X140000000Y-41038072D01*
X140124482Y-41025812D01*
X140244180Y-40989502D01*
X140354494Y-40930537D01*
X140451185Y-40851185D01*
X140530537Y-40754494D01*
X140589502Y-40644180D01*
X140625812Y-40524482D01*
X140638072Y-40400000D01*
X140638072Y-38600000D01*
X140625812Y-38475518D01*
X140589502Y-38355820D01*
X140530537Y-38245506D01*
X140451185Y-38148815D01*
X140354494Y-38069463D01*
X140244180Y-38010498D01*
X140124482Y-37974188D01*
X140000000Y-37961928D01*
X137500000Y-37961928D01*
X137375518Y-37974188D01*
X137255820Y-38010498D01*
X137145506Y-38069463D01*
X137048815Y-38148815D01*
X137028590Y-38173459D01*
X136188072Y-37332941D01*
X136188072Y-36700000D01*
X136175812Y-36575518D01*
X136139502Y-36455820D01*
X136080537Y-36345506D01*
X136001185Y-36248815D01*
X135904494Y-36169463D01*
X135885000Y-36159043D01*
X135885000Y-34569613D01*
X135943386Y-34538405D01*
X136077962Y-34427962D01*
X136188405Y-34293386D01*
X136202346Y-34267305D01*
X136210498Y-34294180D01*
X136269463Y-34404494D01*
X136348815Y-34501185D01*
X136445506Y-34580537D01*
X136555820Y-34639502D01*
X136675518Y-34675812D01*
X136800000Y-34688072D01*
X138014250Y-34685000D01*
X138173000Y-34526250D01*
X138173000Y-33377000D01*
X138427000Y-33377000D01*
X138427000Y-34526250D01*
X138585750Y-34685000D01*
X139800000Y-34688072D01*
X139924482Y-34675812D01*
X140044180Y-34639502D01*
X140154494Y-34580537D01*
X140251185Y-34501185D01*
X140330537Y-34404494D01*
X140389502Y-34294180D01*
X140425812Y-34174482D01*
X140438072Y-34050000D01*
X140435000Y-33535750D01*
X140276250Y-33377000D01*
X138427000Y-33377000D01*
X138173000Y-33377000D01*
X138153000Y-33377000D01*
X138153000Y-33123000D01*
X138173000Y-33123000D01*
X138173000Y-31973750D01*
X138427000Y-31973750D01*
X138427000Y-33123000D01*
X140276250Y-33123000D01*
X140435000Y-32964250D01*
X140438072Y-32450000D01*
X140425812Y-32325518D01*
X140389502Y-32205820D01*
X140330537Y-32095506D01*
X140251185Y-31998815D01*
X140154494Y-31919463D01*
X140044180Y-31860498D01*
X139924482Y-31824188D01*
X139800000Y-31811928D01*
X138585750Y-31815000D01*
X138427000Y-31973750D01*
X138173000Y-31973750D01*
X138014250Y-31815000D01*
X136800000Y-31811928D01*
X136675518Y-31824188D01*
X136555820Y-31860498D01*
X136445506Y-31919463D01*
X136348815Y-31998815D01*
X136269463Y-32095506D01*
X136210498Y-32205820D01*
X136202346Y-32232695D01*
X136188405Y-32206614D01*
X136077962Y-32072038D01*
X135943386Y-31961595D01*
X135789850Y-31879528D01*
X135623254Y-31828992D01*
X135450000Y-31811928D01*
X132950000Y-31811928D01*
X132776746Y-31828992D01*
X132610150Y-31879528D01*
X132456614Y-31961595D01*
X132322038Y-32072038D01*
X132211595Y-32206614D01*
X132129528Y-32360150D01*
X132078992Y-32526746D01*
X132061928Y-32700000D01*
X131936578Y-32700000D01*
X131938072Y-32450000D01*
X131925812Y-32325518D01*
X131889502Y-32205820D01*
X131830537Y-32095506D01*
X131751185Y-31998815D01*
X131654494Y-31919463D01*
X131544180Y-31860498D01*
X131424482Y-31824188D01*
X131300000Y-31811928D01*
X130085750Y-31815000D01*
X129927000Y-31973750D01*
X129673000Y-31973750D01*
X129514250Y-31815000D01*
X128300000Y-31811928D01*
X128175518Y-31824188D01*
X128160000Y-31828895D01*
X128160000Y-29401398D01*
X128195506Y-29430537D01*
X128305820Y-29489502D01*
X128425518Y-29525812D01*
X128550000Y-29538072D01*
X132964250Y-29535000D01*
X133123000Y-29376250D01*
X133123000Y-23627000D01*
X133377000Y-23627000D01*
X133377000Y-29376250D01*
X133535750Y-29535000D01*
X137950000Y-29538072D01*
X138074482Y-29525812D01*
X138194180Y-29489502D01*
X138304494Y-29430537D01*
X138401185Y-29351185D01*
X138480537Y-29254494D01*
X138539502Y-29144180D01*
X138575812Y-29024482D01*
X138588072Y-28900000D01*
X138585000Y-23785750D01*
X138426250Y-23627000D01*
X133377000Y-23627000D01*
X133123000Y-23627000D01*
X133103000Y-23627000D01*
X133103000Y-23373000D01*
X133123000Y-23373000D01*
X133123000Y-23353000D01*
X133377000Y-23353000D01*
X133377000Y-23373000D01*
X138426250Y-23373000D01*
X138585000Y-23214250D01*
X138587201Y-19550000D01*
X139461928Y-19550000D01*
X139465000Y-19814250D01*
X139623750Y-19973000D01*
X142273000Y-19973000D01*
X142273000Y-19073750D01*
X142527000Y-19073750D01*
X142527000Y-19973000D01*
X145176250Y-19973000D01*
X145335000Y-19814250D01*
X145338072Y-19550000D01*
X145325812Y-19425518D01*
X145289502Y-19305820D01*
X145230537Y-19195506D01*
X145151185Y-19098815D01*
X145054494Y-19019463D01*
X144944180Y-18960498D01*
X144824482Y-18924188D01*
X144700000Y-18911928D01*
X142685750Y-18915000D01*
X142527000Y-19073750D01*
X142273000Y-19073750D01*
X142114250Y-18915000D01*
X140100000Y-18911928D01*
X139975518Y-18924188D01*
X139855820Y-18960498D01*
X139745506Y-19019463D01*
X139648815Y-19098815D01*
X139569463Y-19195506D01*
X139510498Y-19305820D01*
X139474188Y-19425518D01*
X139461928Y-19550000D01*
X138587201Y-19550000D01*
X138588072Y-18100000D01*
X138575812Y-17975518D01*
X138539502Y-17855820D01*
X138480537Y-17745506D01*
X138410364Y-17660000D01*
X149428895Y-17660000D01*
X149424188Y-17675518D01*
G37*
%TD.AperFunction*%
D26*
X193511928Y-29672944D02*
X193485026Y-29705724D01*
X193457913Y-29756449D01*
X193414454Y-29837754D01*
X193370997Y-29981015D01*
X193360000Y-30092668D01*
X193360000Y-30092678D01*
X193356324Y-30130000D01*
X193360000Y-30167323D01*
X193360001Y-35565197D01*
X191685199Y-37240000D01*
X190178665Y-37240000D01*
X190292247Y-37205546D01*
X190424276Y-37134974D01*
X190540001Y-37040001D01*
X190563803Y-37010998D01*
X192091009Y-35483794D01*
X192120001Y-35460001D01*
X192143795Y-35431008D01*
X192143799Y-35431004D01*
X192214973Y-35344277D01*
X192214974Y-35344276D01*
X192285546Y-35212247D01*
X192329003Y-35068986D01*
X192340000Y-34957333D01*
X192340000Y-34957324D01*
X192343676Y-34920001D01*
X192340000Y-34882678D01*
X192340000Y-30444801D01*
X193511928Y-29272874D01*
X193511928Y-29672944D01*
%TA.AperFunction,Conductor*%
D27*
G36*
X193511928Y-29672944D02*
G01*
X193485026Y-29705724D01*
X193457913Y-29756449D01*
X193414454Y-29837754D01*
X193370997Y-29981015D01*
X193360000Y-30092668D01*
X193360000Y-30092678D01*
X193356324Y-30130000D01*
X193360000Y-30167323D01*
X193360001Y-35565197D01*
X191685199Y-37240000D01*
X190178665Y-37240000D01*
X190292247Y-37205546D01*
X190424276Y-37134974D01*
X190540001Y-37040001D01*
X190563803Y-37010998D01*
X192091009Y-35483794D01*
X192120001Y-35460001D01*
X192143795Y-35431008D01*
X192143799Y-35431004D01*
X192214973Y-35344277D01*
X192214974Y-35344276D01*
X192285546Y-35212247D01*
X192329003Y-35068986D01*
X192340000Y-34957333D01*
X192340000Y-34957324D01*
X192343676Y-34920001D01*
X192340000Y-34882678D01*
X192340000Y-30444801D01*
X193511928Y-29272874D01*
X193511928Y-29672944D01*
G37*
%TD.AperFunction*%
D26*
X163296525Y-33446632D02*
X163503368Y-33653475D01*
X163690000Y-33778179D01*
X163690000Y-34662677D01*
X163686324Y-34700000D01*
X163690000Y-34737322D01*
X163690000Y-34737332D01*
X163700997Y-34848985D01*
X163733991Y-34957753D01*
X163744454Y-34992246D01*
X163815026Y-35124276D01*
X163848896Y-35165546D01*
X163909999Y-35240001D01*
X163939002Y-35263803D01*
X165686205Y-37011008D01*
X165709999Y-37040001D01*
X165738992Y-37063795D01*
X165738996Y-37063799D01*
X165809685Y-37121811D01*
X165825724Y-37134974D01*
X165957753Y-37205546D01*
X166071335Y-37240000D01*
X153314802Y-37240000D01*
X152510000Y-36435199D01*
X152510000Y-33988072D01*
X152600000Y-33988072D01*
X152724482Y-33975812D01*
X152844180Y-33939502D01*
X152954494Y-33880537D01*
X153051185Y-33801185D01*
X153130537Y-33704494D01*
X153189502Y-33594180D01*
X153211513Y-33521620D01*
X153343368Y-33653475D01*
X153586589Y-33815990D01*
X153856842Y-33927932D01*
X154143740Y-33985000D01*
X154436260Y-33985000D01*
X154723158Y-33927932D01*
X154993411Y-33815990D01*
X155236632Y-33653475D01*
X155443475Y-33446632D01*
X155560000Y-33272240D01*
X155676525Y-33446632D01*
X155883368Y-33653475D01*
X156126589Y-33815990D01*
X156396842Y-33927932D01*
X156683740Y-33985000D01*
X156976260Y-33985000D01*
X157263158Y-33927932D01*
X157533411Y-33815990D01*
X157776632Y-33653475D01*
X157983475Y-33446632D01*
X158100000Y-33272240D01*
X158216525Y-33446632D01*
X158423368Y-33653475D01*
X158666589Y-33815990D01*
X158936842Y-33927932D01*
X159223740Y-33985000D01*
X159516260Y-33985000D01*
X159803158Y-33927932D01*
X160073411Y-33815990D01*
X160316632Y-33653475D01*
X160523475Y-33446632D01*
X160640000Y-33272240D01*
X160756525Y-33446632D01*
X160963368Y-33653475D01*
X161206589Y-33815990D01*
X161476842Y-33927932D01*
X161763740Y-33985000D01*
X162056260Y-33985000D01*
X162343158Y-33927932D01*
X162613411Y-33815990D01*
X162856632Y-33653475D01*
X163063475Y-33446632D01*
X163180000Y-33272240D01*
X163296525Y-33446632D01*
%TA.AperFunction,Conductor*%
D27*
G36*
X163296525Y-33446632D02*
G01*
X163503368Y-33653475D01*
X163690000Y-33778179D01*
X163690000Y-34662677D01*
X163686324Y-34700000D01*
X163690000Y-34737322D01*
X163690000Y-34737332D01*
X163700997Y-34848985D01*
X163733991Y-34957753D01*
X163744454Y-34992246D01*
X163815026Y-35124276D01*
X163848896Y-35165546D01*
X163909999Y-35240001D01*
X163939002Y-35263803D01*
X165686205Y-37011008D01*
X165709999Y-37040001D01*
X165738992Y-37063795D01*
X165738996Y-37063799D01*
X165809685Y-37121811D01*
X165825724Y-37134974D01*
X165957753Y-37205546D01*
X166071335Y-37240000D01*
X153314802Y-37240000D01*
X152510000Y-36435199D01*
X152510000Y-33988072D01*
X152600000Y-33988072D01*
X152724482Y-33975812D01*
X152844180Y-33939502D01*
X152954494Y-33880537D01*
X153051185Y-33801185D01*
X153130537Y-33704494D01*
X153189502Y-33594180D01*
X153211513Y-33521620D01*
X153343368Y-33653475D01*
X153586589Y-33815990D01*
X153856842Y-33927932D01*
X154143740Y-33985000D01*
X154436260Y-33985000D01*
X154723158Y-33927932D01*
X154993411Y-33815990D01*
X155236632Y-33653475D01*
X155443475Y-33446632D01*
X155560000Y-33272240D01*
X155676525Y-33446632D01*
X155883368Y-33653475D01*
X156126589Y-33815990D01*
X156396842Y-33927932D01*
X156683740Y-33985000D01*
X156976260Y-33985000D01*
X157263158Y-33927932D01*
X157533411Y-33815990D01*
X157776632Y-33653475D01*
X157983475Y-33446632D01*
X158100000Y-33272240D01*
X158216525Y-33446632D01*
X158423368Y-33653475D01*
X158666589Y-33815990D01*
X158936842Y-33927932D01*
X159223740Y-33985000D01*
X159516260Y-33985000D01*
X159803158Y-33927932D01*
X160073411Y-33815990D01*
X160316632Y-33653475D01*
X160523475Y-33446632D01*
X160640000Y-33272240D01*
X160756525Y-33446632D01*
X160963368Y-33653475D01*
X161206589Y-33815990D01*
X161476842Y-33927932D01*
X161763740Y-33985000D01*
X162056260Y-33985000D01*
X162343158Y-33927932D01*
X162613411Y-33815990D01*
X162856632Y-33653475D01*
X163063475Y-33446632D01*
X163180000Y-33272240D01*
X163296525Y-33446632D01*
G37*
%TD.AperFunction*%
D26*
X193515000Y-26856260D02*
X193558790Y-27076407D01*
X191068998Y-29566201D01*
X191040000Y-29589999D01*
X191016202Y-29618997D01*
X191016201Y-29618998D01*
X190945026Y-29705724D01*
X190874454Y-29837754D01*
X190830998Y-29981015D01*
X190816324Y-30130000D01*
X190820001Y-30167332D01*
X190820000Y-34605197D01*
X189685199Y-35740000D01*
X188834801Y-35740000D01*
X189551002Y-35023799D01*
X189580001Y-35000001D01*
X189674974Y-34884276D01*
X189745546Y-34752247D01*
X189789003Y-34608986D01*
X189800000Y-34497333D01*
X189800000Y-34497325D01*
X189803676Y-34460000D01*
X189800000Y-34422675D01*
X189800000Y-30444801D01*
X193515000Y-26729802D01*
X193515000Y-26856260D01*
%TA.AperFunction,Conductor*%
D27*
G36*
X193515000Y-26856260D02*
G01*
X193558790Y-27076407D01*
X191068998Y-29566201D01*
X191040000Y-29589999D01*
X191016202Y-29618997D01*
X191016201Y-29618998D01*
X190945026Y-29705724D01*
X190874454Y-29837754D01*
X190830998Y-29981015D01*
X190816324Y-30130000D01*
X190820001Y-30167332D01*
X190820000Y-34605197D01*
X189685199Y-35740000D01*
X188834801Y-35740000D01*
X189551002Y-35023799D01*
X189580001Y-35000001D01*
X189674974Y-34884276D01*
X189745546Y-34752247D01*
X189789003Y-34608986D01*
X189800000Y-34497333D01*
X189800000Y-34497325D01*
X189803676Y-34460000D01*
X189800000Y-34422675D01*
X189800000Y-30444801D01*
X193515000Y-26729802D01*
X193515000Y-26856260D01*
G37*
%TD.AperFunction*%
D26*
X184897000Y-32373000D02*
X184917000Y-32373000D01*
X184917000Y-32627000D01*
X184897000Y-32627000D01*
X184897000Y-33820155D01*
X185126890Y-33941476D01*
X185274099Y-33896825D01*
X185536920Y-33771641D01*
X185770269Y-33597588D01*
X185965178Y-33381355D01*
X186034805Y-33264466D01*
X186156525Y-33446632D01*
X186363368Y-33653475D01*
X186606589Y-33815990D01*
X186876842Y-33927932D01*
X187163740Y-33985000D01*
X187456260Y-33985000D01*
X187743158Y-33927932D01*
X188013411Y-33815990D01*
X188256632Y-33653475D01*
X188280001Y-33630106D01*
X188280001Y-34145197D01*
X187935199Y-34490000D01*
X168314802Y-34490000D01*
X167750000Y-33925199D01*
X167750000Y-33778178D01*
X167936632Y-33653475D01*
X168143475Y-33446632D01*
X168260000Y-33272240D01*
X168376525Y-33446632D01*
X168583368Y-33653475D01*
X168826589Y-33815990D01*
X169096842Y-33927932D01*
X169383740Y-33985000D01*
X169676260Y-33985000D01*
X169963158Y-33927932D01*
X170233411Y-33815990D01*
X170476632Y-33653475D01*
X170683475Y-33446632D01*
X170800000Y-33272240D01*
X170916525Y-33446632D01*
X171123368Y-33653475D01*
X171366589Y-33815990D01*
X171636842Y-33927932D01*
X171923740Y-33985000D01*
X172216260Y-33985000D01*
X172503158Y-33927932D01*
X172773411Y-33815990D01*
X173016632Y-33653475D01*
X173223475Y-33446632D01*
X173340000Y-33272240D01*
X173456525Y-33446632D01*
X173663368Y-33653475D01*
X173906589Y-33815990D01*
X174176842Y-33927932D01*
X174463740Y-33985000D01*
X174756260Y-33985000D01*
X175043158Y-33927932D01*
X175313411Y-33815990D01*
X175556632Y-33653475D01*
X175763475Y-33446632D01*
X175880000Y-33272240D01*
X175996525Y-33446632D01*
X176203368Y-33653475D01*
X176446589Y-33815990D01*
X176716842Y-33927932D01*
X177003740Y-33985000D01*
X177296260Y-33985000D01*
X177583158Y-33927932D01*
X177853411Y-33815990D01*
X178096632Y-33653475D01*
X178303475Y-33446632D01*
X178420000Y-33272240D01*
X178536525Y-33446632D01*
X178743368Y-33653475D01*
X178986589Y-33815990D01*
X179256842Y-33927932D01*
X179543740Y-33985000D01*
X179836260Y-33985000D01*
X180123158Y-33927932D01*
X180393411Y-33815990D01*
X180636632Y-33653475D01*
X180843475Y-33446632D01*
X180960000Y-33272240D01*
X181076525Y-33446632D01*
X181283368Y-33653475D01*
X181526589Y-33815990D01*
X181796842Y-33927932D01*
X182083740Y-33985000D01*
X182376260Y-33985000D01*
X182663158Y-33927932D01*
X182933411Y-33815990D01*
X183176632Y-33653475D01*
X183383475Y-33446632D01*
X183505195Y-33264466D01*
X183574822Y-33381355D01*
X183769731Y-33597588D01*
X184003080Y-33771641D01*
X184265901Y-33896825D01*
X184413110Y-33941476D01*
X184643000Y-33820155D01*
X184643000Y-32627000D01*
X184623000Y-32627000D01*
X184623000Y-32373000D01*
X184643000Y-32373000D01*
X184643000Y-32353000D01*
X184897000Y-32353000D01*
X184897000Y-32373000D01*
%TA.AperFunction,Conductor*%
D27*
G36*
X184897000Y-32373000D02*
G01*
X184917000Y-32373000D01*
X184917000Y-32627000D01*
X184897000Y-32627000D01*
X184897000Y-33820155D01*
X185126890Y-33941476D01*
X185274099Y-33896825D01*
X185536920Y-33771641D01*
X185770269Y-33597588D01*
X185965178Y-33381355D01*
X186034805Y-33264466D01*
X186156525Y-33446632D01*
X186363368Y-33653475D01*
X186606589Y-33815990D01*
X186876842Y-33927932D01*
X187163740Y-33985000D01*
X187456260Y-33985000D01*
X187743158Y-33927932D01*
X188013411Y-33815990D01*
X188256632Y-33653475D01*
X188280001Y-33630106D01*
X188280001Y-34145197D01*
X187935199Y-34490000D01*
X168314802Y-34490000D01*
X167750000Y-33925199D01*
X167750000Y-33778178D01*
X167936632Y-33653475D01*
X168143475Y-33446632D01*
X168260000Y-33272240D01*
X168376525Y-33446632D01*
X168583368Y-33653475D01*
X168826589Y-33815990D01*
X169096842Y-33927932D01*
X169383740Y-33985000D01*
X169676260Y-33985000D01*
X169963158Y-33927932D01*
X170233411Y-33815990D01*
X170476632Y-33653475D01*
X170683475Y-33446632D01*
X170800000Y-33272240D01*
X170916525Y-33446632D01*
X171123368Y-33653475D01*
X171366589Y-33815990D01*
X171636842Y-33927932D01*
X171923740Y-33985000D01*
X172216260Y-33985000D01*
X172503158Y-33927932D01*
X172773411Y-33815990D01*
X173016632Y-33653475D01*
X173223475Y-33446632D01*
X173340000Y-33272240D01*
X173456525Y-33446632D01*
X173663368Y-33653475D01*
X173906589Y-33815990D01*
X174176842Y-33927932D01*
X174463740Y-33985000D01*
X174756260Y-33985000D01*
X175043158Y-33927932D01*
X175313411Y-33815990D01*
X175556632Y-33653475D01*
X175763475Y-33446632D01*
X175880000Y-33272240D01*
X175996525Y-33446632D01*
X176203368Y-33653475D01*
X176446589Y-33815990D01*
X176716842Y-33927932D01*
X177003740Y-33985000D01*
X177296260Y-33985000D01*
X177583158Y-33927932D01*
X177853411Y-33815990D01*
X178096632Y-33653475D01*
X178303475Y-33446632D01*
X178420000Y-33272240D01*
X178536525Y-33446632D01*
X178743368Y-33653475D01*
X178986589Y-33815990D01*
X179256842Y-33927932D01*
X179543740Y-33985000D01*
X179836260Y-33985000D01*
X180123158Y-33927932D01*
X180393411Y-33815990D01*
X180636632Y-33653475D01*
X180843475Y-33446632D01*
X180960000Y-33272240D01*
X181076525Y-33446632D01*
X181283368Y-33653475D01*
X181526589Y-33815990D01*
X181796842Y-33927932D01*
X182083740Y-33985000D01*
X182376260Y-33985000D01*
X182663158Y-33927932D01*
X182933411Y-33815990D01*
X183176632Y-33653475D01*
X183383475Y-33446632D01*
X183505195Y-33264466D01*
X183574822Y-33381355D01*
X183769731Y-33597588D01*
X184003080Y-33771641D01*
X184265901Y-33896825D01*
X184413110Y-33941476D01*
X184643000Y-33820155D01*
X184643000Y-32627000D01*
X184623000Y-32627000D01*
X184623000Y-32373000D01*
X184643000Y-32373000D01*
X184643000Y-32353000D01*
X184897000Y-32353000D01*
X184897000Y-32373000D01*
G37*
%TD.AperFunction*%
D26*
X193515000Y-24023740D02*
X193515000Y-24316260D01*
X193558790Y-24536408D01*
X188529003Y-29566196D01*
X188499999Y-29589999D01*
X188450758Y-29650000D01*
X188405026Y-29705724D01*
X188377913Y-29756449D01*
X188334454Y-29837754D01*
X188290997Y-29981015D01*
X188280000Y-30092668D01*
X188280000Y-30092678D01*
X188276324Y-30130000D01*
X188280000Y-30167323D01*
X188280000Y-31369893D01*
X188256632Y-31346525D01*
X188013411Y-31184010D01*
X187743158Y-31072068D01*
X187456260Y-31015000D01*
X187163740Y-31015000D01*
X186876842Y-31072068D01*
X186606589Y-31184010D01*
X186363368Y-31346525D01*
X186156525Y-31553368D01*
X186034805Y-31735534D01*
X185965178Y-31618645D01*
X185842384Y-31482417D01*
X193568122Y-23756680D01*
X193515000Y-24023740D01*
%TA.AperFunction,Conductor*%
D27*
G36*
X193515000Y-24023740D02*
G01*
X193515000Y-24316260D01*
X193558790Y-24536408D01*
X188529003Y-29566196D01*
X188499999Y-29589999D01*
X188450758Y-29650000D01*
X188405026Y-29705724D01*
X188377913Y-29756449D01*
X188334454Y-29837754D01*
X188290997Y-29981015D01*
X188280000Y-30092668D01*
X188280000Y-30092678D01*
X188276324Y-30130000D01*
X188280000Y-30167323D01*
X188280000Y-31369893D01*
X188256632Y-31346525D01*
X188013411Y-31184010D01*
X187743158Y-31072068D01*
X187456260Y-31015000D01*
X187163740Y-31015000D01*
X186876842Y-31072068D01*
X186606589Y-31184010D01*
X186363368Y-31346525D01*
X186156525Y-31553368D01*
X186034805Y-31735534D01*
X185965178Y-31618645D01*
X185842384Y-31482417D01*
X193568122Y-23756680D01*
X193515000Y-24023740D01*
G37*
%TD.AperFunction*%
D26*
X194566842Y-17662068D02*
X194296589Y-17774010D01*
X194053368Y-17936525D01*
X193846525Y-18143368D01*
X193684010Y-18386589D01*
X193572068Y-18656842D01*
X193515000Y-18943740D01*
X193515000Y-19236260D01*
X193572068Y-19523158D01*
X193684010Y-19793411D01*
X193846525Y-20036632D01*
X194053368Y-20243475D01*
X194227760Y-20360000D01*
X194053368Y-20476525D01*
X193846525Y-20683368D01*
X193684010Y-20926589D01*
X193572068Y-21196842D01*
X193515000Y-21483740D01*
X193515000Y-21660198D01*
X184935199Y-30240000D01*
X179905038Y-30240000D01*
X179906680Y-30239502D01*
X180016994Y-30180537D01*
X180113685Y-30101185D01*
X180193037Y-30004494D01*
X180252002Y-29894180D01*
X180288312Y-29774482D01*
X180300572Y-29650000D01*
X180297500Y-29035750D01*
X180138750Y-28877000D01*
X179127000Y-28877000D01*
X179127000Y-28897000D01*
X178873000Y-28897000D01*
X178873000Y-28877000D01*
X177861250Y-28877000D01*
X177702500Y-29035750D01*
X177699428Y-29650000D01*
X177711688Y-29774482D01*
X177747998Y-29894180D01*
X177806963Y-30004494D01*
X177886315Y-30101185D01*
X177983006Y-30180537D01*
X178093320Y-30239502D01*
X178094962Y-30240000D01*
X176562976Y-30240000D01*
X176627352Y-30220472D01*
X176780887Y-30138405D01*
X176915462Y-30027962D01*
X177025905Y-29893387D01*
X177107972Y-29739852D01*
X177158508Y-29573256D01*
X177175572Y-29400002D01*
X177175572Y-28099998D01*
X177158508Y-27926744D01*
X177135229Y-27850000D01*
X177699428Y-27850000D01*
X177702500Y-28464250D01*
X177861250Y-28623000D01*
X178873000Y-28623000D01*
X178873000Y-27438750D01*
X178935500Y-27376250D01*
X178935500Y-27373750D01*
X179127000Y-27373750D01*
X179127000Y-28623000D01*
X180138750Y-28623000D01*
X180297500Y-28464250D01*
X180300572Y-27850000D01*
X180288312Y-27725518D01*
X180252002Y-27605820D01*
X180193037Y-27495506D01*
X180115481Y-27401003D01*
X180176185Y-27351185D01*
X180255537Y-27254494D01*
X180314502Y-27144180D01*
X180350812Y-27024482D01*
X180363072Y-26900000D01*
X180360000Y-26285750D01*
X180201250Y-26127000D01*
X179189500Y-26127000D01*
X179189500Y-27311250D01*
X179127000Y-27373750D01*
X178935500Y-27373750D01*
X178935500Y-26127000D01*
X177923750Y-26127000D01*
X177765000Y-26285750D01*
X177761928Y-26900000D01*
X177774188Y-27024482D01*
X177810498Y-27144180D01*
X177869463Y-27254494D01*
X177947019Y-27348997D01*
X177886315Y-27398815D01*
X177806963Y-27495506D01*
X177747998Y-27605820D01*
X177711688Y-27725518D01*
X177699428Y-27850000D01*
X177135229Y-27850000D01*
X177107972Y-27760148D01*
X177025905Y-27606613D01*
X176915462Y-27472038D01*
X176825321Y-27398061D01*
X176843387Y-27388405D01*
X176977962Y-27277962D01*
X177088405Y-27143387D01*
X177170472Y-26989852D01*
X177221008Y-26823256D01*
X177238072Y-26650002D01*
X177238072Y-25985703D01*
X177305507Y-25859540D01*
X177329276Y-25781185D01*
X177358972Y-25683292D01*
X177377024Y-25500000D01*
X177372500Y-25454065D01*
X177372500Y-25100000D01*
X177761928Y-25100000D01*
X177765000Y-25714250D01*
X177923750Y-25873000D01*
X178935500Y-25873000D01*
X178935500Y-24623750D01*
X179189500Y-24623750D01*
X179189500Y-25873000D01*
X180201250Y-25873000D01*
X180360000Y-25714250D01*
X180363072Y-25100000D01*
X180350812Y-24975518D01*
X180314502Y-24855820D01*
X180255537Y-24745506D01*
X180176185Y-24648815D01*
X180079494Y-24569463D01*
X179969180Y-24510498D01*
X179849482Y-24474188D01*
X179725000Y-24461928D01*
X179348250Y-24465000D01*
X179189500Y-24623750D01*
X178935500Y-24623750D01*
X178776750Y-24465000D01*
X178400000Y-24461928D01*
X178275518Y-24474188D01*
X178155820Y-24510498D01*
X178045506Y-24569463D01*
X177948815Y-24648815D01*
X177869463Y-24745506D01*
X177810498Y-24855820D01*
X177774188Y-24975518D01*
X177761928Y-25100000D01*
X177372500Y-25100000D01*
X177372500Y-24454138D01*
X177395004Y-24426717D01*
X177459744Y-24305597D01*
X177499611Y-24174175D01*
X177513072Y-24037500D01*
X177513072Y-23763072D01*
X177787500Y-23763072D01*
X177818691Y-23760000D01*
X183185199Y-23760000D01*
X183936328Y-24511130D01*
X183865000Y-24869721D01*
X183865000Y-25290279D01*
X183947047Y-25702756D01*
X184107988Y-26091302D01*
X184341637Y-26440983D01*
X184639017Y-26738363D01*
X184988698Y-26972012D01*
X185377244Y-27132953D01*
X185789721Y-27215000D01*
X186210279Y-27215000D01*
X186622756Y-27132953D01*
X187011302Y-26972012D01*
X187360983Y-26738363D01*
X187658363Y-26440983D01*
X187892012Y-26091302D01*
X188052953Y-25702756D01*
X188135000Y-25290279D01*
X188135000Y-24869721D01*
X188052953Y-24457244D01*
X187892012Y-24068698D01*
X187658363Y-23719017D01*
X187360983Y-23421637D01*
X187011302Y-23187988D01*
X186622756Y-23027047D01*
X186210279Y-22945000D01*
X185789721Y-22945000D01*
X185377244Y-23027047D01*
X184988698Y-23187988D01*
X184853276Y-23278474D01*
X184324801Y-22750000D01*
X184936729Y-22138072D01*
X187500000Y-22138072D01*
X187624482Y-22125812D01*
X187744180Y-22089502D01*
X187854494Y-22030537D01*
X187951185Y-21951185D01*
X188030537Y-21854494D01*
X188089502Y-21744180D01*
X188125812Y-21624482D01*
X188138072Y-21500000D01*
X188138072Y-18500000D01*
X188125812Y-18375518D01*
X188089502Y-18255820D01*
X188030537Y-18145506D01*
X187951185Y-18048815D01*
X187854494Y-17969463D01*
X187744180Y-17910498D01*
X187624482Y-17874188D01*
X187500000Y-17861928D01*
X184500000Y-17861928D01*
X184375518Y-17874188D01*
X184255820Y-17910498D01*
X184145506Y-17969463D01*
X184048815Y-18048815D01*
X183969463Y-18145506D01*
X183910498Y-18255820D01*
X183874188Y-18375518D01*
X183861928Y-18500000D01*
X183861928Y-21063271D01*
X183185199Y-21740000D01*
X178473223Y-21740000D01*
X178472768Y-21736089D01*
X178467902Y-21721290D01*
X178474611Y-21699175D01*
X178488072Y-21562500D01*
X178488072Y-21437500D01*
X178474611Y-21300825D01*
X178434744Y-21169403D01*
X178370004Y-21048283D01*
X178282879Y-20942121D01*
X178176717Y-20854996D01*
X178055597Y-20790256D01*
X177924175Y-20750389D01*
X177787500Y-20736928D01*
X177513072Y-20736928D01*
X177513072Y-20462500D01*
X177499611Y-20325825D01*
X177459744Y-20194403D01*
X177395004Y-20073283D01*
X177307879Y-19967121D01*
X177201717Y-19879996D01*
X177080597Y-19815256D01*
X177010000Y-19793840D01*
X177010000Y-19703711D01*
X177053937Y-19659774D01*
X177167205Y-19490256D01*
X177245226Y-19301898D01*
X177285000Y-19101939D01*
X177285000Y-18898061D01*
X177245226Y-18698102D01*
X177167205Y-18509744D01*
X177053937Y-18340226D01*
X176909774Y-18196063D01*
X176740256Y-18082795D01*
X176551898Y-18004774D01*
X176351939Y-17965000D01*
X176148061Y-17965000D01*
X175948102Y-18004774D01*
X175759744Y-18082795D01*
X175750000Y-18089306D01*
X175740256Y-18082795D01*
X175551898Y-18004774D01*
X175351939Y-17965000D01*
X175148061Y-17965000D01*
X174948102Y-18004774D01*
X174759744Y-18082795D01*
X174590226Y-18196063D01*
X174446063Y-18340226D01*
X174332795Y-18509744D01*
X174254774Y-18698102D01*
X174215000Y-18898061D01*
X174215000Y-18965000D01*
X174148061Y-18965000D01*
X173948102Y-19004774D01*
X173863901Y-19039651D01*
X173851250Y-19027000D01*
X172627000Y-19027000D01*
X172627000Y-20026250D01*
X172785750Y-20185000D01*
X173231984Y-20187326D01*
X173254774Y-20301898D01*
X173332795Y-20490256D01*
X173446063Y-20659774D01*
X173490001Y-20703712D01*
X173490001Y-20792971D01*
X173464851Y-20779528D01*
X173298255Y-20728992D01*
X173125001Y-20711928D01*
X171874999Y-20711928D01*
X171701745Y-20728992D01*
X171535149Y-20779528D01*
X171381613Y-20861595D01*
X171247038Y-20972038D01*
X171136595Y-21106613D01*
X171125000Y-21128306D01*
X171113405Y-21106613D01*
X171002962Y-20972038D01*
X170868387Y-20861595D01*
X170714851Y-20779528D01*
X170548255Y-20728992D01*
X170375001Y-20711928D01*
X169124999Y-20711928D01*
X168951745Y-20728992D01*
X168785149Y-20779528D01*
X168631613Y-20861595D01*
X168497038Y-20972038D01*
X168386595Y-21106613D01*
X168304528Y-21260149D01*
X168253992Y-21426745D01*
X168236928Y-21599999D01*
X168236928Y-22400001D01*
X168253992Y-22573255D01*
X168304528Y-22739851D01*
X168386595Y-22893387D01*
X168497038Y-23027962D01*
X168556566Y-23076816D01*
X168511595Y-23131613D01*
X168429528Y-23285149D01*
X168420473Y-23315000D01*
X166045931Y-23315000D01*
X165999999Y-23310476D01*
X165816707Y-23328529D01*
X165787134Y-23337500D01*
X165640460Y-23381993D01*
X165478028Y-23468814D01*
X165335656Y-23585656D01*
X165306374Y-23621336D01*
X164621341Y-24306370D01*
X164585656Y-24335656D01*
X164468814Y-24478029D01*
X164410606Y-24586929D01*
X164400000Y-24586929D01*
X164275518Y-24599189D01*
X164155820Y-24635499D01*
X164045506Y-24694464D01*
X163948815Y-24773816D01*
X163869463Y-24870507D01*
X163832317Y-24940001D01*
X162917683Y-24940001D01*
X162880537Y-24870507D01*
X162801185Y-24773816D01*
X162704494Y-24694464D01*
X162635000Y-24657318D01*
X162635000Y-21938072D01*
X162800000Y-21938072D01*
X162973254Y-21921008D01*
X163139850Y-21870472D01*
X163293386Y-21788405D01*
X163427962Y-21677962D01*
X163538405Y-21543386D01*
X163620472Y-21389850D01*
X163647727Y-21300000D01*
X163811928Y-21300000D01*
X163824188Y-21424482D01*
X163860498Y-21544180D01*
X163919463Y-21654494D01*
X163998815Y-21751185D01*
X164095506Y-21830537D01*
X164205820Y-21889502D01*
X164325518Y-21925812D01*
X164450000Y-21938072D01*
X165664250Y-21935000D01*
X165823000Y-21776250D01*
X165823000Y-20627000D01*
X166077000Y-20627000D01*
X166077000Y-21776250D01*
X166235750Y-21935000D01*
X167450000Y-21938072D01*
X167574482Y-21925812D01*
X167694180Y-21889502D01*
X167804494Y-21830537D01*
X167901185Y-21751185D01*
X167980537Y-21654494D01*
X168039502Y-21544180D01*
X168075812Y-21424482D01*
X168088072Y-21300000D01*
X168085000Y-20785750D01*
X167926250Y-20627000D01*
X166077000Y-20627000D01*
X165823000Y-20627000D01*
X163973750Y-20627000D01*
X163815000Y-20785750D01*
X163811928Y-21300000D01*
X163647727Y-21300000D01*
X163671008Y-21223254D01*
X163688072Y-21050000D01*
X163688072Y-19950000D01*
X163671008Y-19776746D01*
X163647728Y-19700000D01*
X163811928Y-19700000D01*
X163815000Y-20214250D01*
X163973750Y-20373000D01*
X165823000Y-20373000D01*
X165823000Y-19223750D01*
X166077000Y-19223750D01*
X166077000Y-20373000D01*
X167926250Y-20373000D01*
X168085000Y-20214250D01*
X168088072Y-19700000D01*
X168075812Y-19575518D01*
X168039502Y-19455820D01*
X167980537Y-19345506D01*
X167901185Y-19248815D01*
X167804494Y-19169463D01*
X167694180Y-19110498D01*
X167574482Y-19074188D01*
X167450000Y-19061928D01*
X166235750Y-19065000D01*
X166077000Y-19223750D01*
X165823000Y-19223750D01*
X165664250Y-19065000D01*
X164450000Y-19061928D01*
X164325518Y-19074188D01*
X164205820Y-19110498D01*
X164095506Y-19169463D01*
X163998815Y-19248815D01*
X163919463Y-19345506D01*
X163860498Y-19455820D01*
X163824188Y-19575518D01*
X163811928Y-19700000D01*
X163647728Y-19700000D01*
X163620472Y-19610150D01*
X163538405Y-19456614D01*
X163427962Y-19322038D01*
X163293386Y-19211595D01*
X163139850Y-19129528D01*
X162973254Y-19078992D01*
X162800000Y-19061928D01*
X162760361Y-19061928D01*
X162887289Y-18935000D01*
X167612711Y-18935000D01*
X168206374Y-19528664D01*
X168235656Y-19564344D01*
X168296860Y-19614573D01*
X168304528Y-19639851D01*
X168386595Y-19793387D01*
X168497038Y-19927962D01*
X168631613Y-20038405D01*
X168785149Y-20120472D01*
X168951745Y-20171008D01*
X169124999Y-20188072D01*
X169331521Y-20188072D01*
X169457754Y-20255546D01*
X169601015Y-20299003D01*
X169750000Y-20313677D01*
X169898986Y-20299003D01*
X170042247Y-20255546D01*
X170168480Y-20188072D01*
X170375001Y-20188072D01*
X170548255Y-20171008D01*
X170714851Y-20120472D01*
X170868387Y-20038405D01*
X171002962Y-19927962D01*
X171065969Y-19851187D01*
X171094463Y-19904494D01*
X171173815Y-20001185D01*
X171270506Y-20080537D01*
X171380820Y-20139502D01*
X171500518Y-20175812D01*
X171625000Y-20188072D01*
X172214250Y-20185000D01*
X172373000Y-20026250D01*
X172373000Y-19027000D01*
X172353000Y-19027000D01*
X172353000Y-18773000D01*
X172373000Y-18773000D01*
X172373000Y-18753000D01*
X172627000Y-18753000D01*
X172627000Y-18773000D01*
X173851250Y-18773000D01*
X174010000Y-18614250D01*
X174013072Y-18250000D01*
X174000812Y-18125518D01*
X173964502Y-18005820D01*
X173905537Y-17895506D01*
X173826185Y-17798815D01*
X173729494Y-17719463D01*
X173619180Y-17660498D01*
X173617538Y-17660000D01*
X194577238Y-17660000D01*
X194566842Y-17662068D01*
%TA.AperFunction,Conductor*%
D27*
G36*
X194566842Y-17662068D02*
G01*
X194296589Y-17774010D01*
X194053368Y-17936525D01*
X193846525Y-18143368D01*
X193684010Y-18386589D01*
X193572068Y-18656842D01*
X193515000Y-18943740D01*
X193515000Y-19236260D01*
X193572068Y-19523158D01*
X193684010Y-19793411D01*
X193846525Y-20036632D01*
X194053368Y-20243475D01*
X194227760Y-20360000D01*
X194053368Y-20476525D01*
X193846525Y-20683368D01*
X193684010Y-20926589D01*
X193572068Y-21196842D01*
X193515000Y-21483740D01*
X193515000Y-21660198D01*
X184935199Y-30240000D01*
X179905038Y-30240000D01*
X179906680Y-30239502D01*
X180016994Y-30180537D01*
X180113685Y-30101185D01*
X180193037Y-30004494D01*
X180252002Y-29894180D01*
X180288312Y-29774482D01*
X180300572Y-29650000D01*
X180297500Y-29035750D01*
X180138750Y-28877000D01*
X179127000Y-28877000D01*
X179127000Y-28897000D01*
X178873000Y-28897000D01*
X178873000Y-28877000D01*
X177861250Y-28877000D01*
X177702500Y-29035750D01*
X177699428Y-29650000D01*
X177711688Y-29774482D01*
X177747998Y-29894180D01*
X177806963Y-30004494D01*
X177886315Y-30101185D01*
X177983006Y-30180537D01*
X178093320Y-30239502D01*
X178094962Y-30240000D01*
X176562976Y-30240000D01*
X176627352Y-30220472D01*
X176780887Y-30138405D01*
X176915462Y-30027962D01*
X177025905Y-29893387D01*
X177107972Y-29739852D01*
X177158508Y-29573256D01*
X177175572Y-29400002D01*
X177175572Y-28099998D01*
X177158508Y-27926744D01*
X177135229Y-27850000D01*
X177699428Y-27850000D01*
X177702500Y-28464250D01*
X177861250Y-28623000D01*
X178873000Y-28623000D01*
X178873000Y-27438750D01*
X178935500Y-27376250D01*
X178935500Y-27373750D01*
X179127000Y-27373750D01*
X179127000Y-28623000D01*
X180138750Y-28623000D01*
X180297500Y-28464250D01*
X180300572Y-27850000D01*
X180288312Y-27725518D01*
X180252002Y-27605820D01*
X180193037Y-27495506D01*
X180115481Y-27401003D01*
X180176185Y-27351185D01*
X180255537Y-27254494D01*
X180314502Y-27144180D01*
X180350812Y-27024482D01*
X180363072Y-26900000D01*
X180360000Y-26285750D01*
X180201250Y-26127000D01*
X179189500Y-26127000D01*
X179189500Y-27311250D01*
X179127000Y-27373750D01*
X178935500Y-27373750D01*
X178935500Y-26127000D01*
X177923750Y-26127000D01*
X177765000Y-26285750D01*
X177761928Y-26900000D01*
X177774188Y-27024482D01*
X177810498Y-27144180D01*
X177869463Y-27254494D01*
X177947019Y-27348997D01*
X177886315Y-27398815D01*
X177806963Y-27495506D01*
X177747998Y-27605820D01*
X177711688Y-27725518D01*
X177699428Y-27850000D01*
X177135229Y-27850000D01*
X177107972Y-27760148D01*
X177025905Y-27606613D01*
X176915462Y-27472038D01*
X176825321Y-27398061D01*
X176843387Y-27388405D01*
X176977962Y-27277962D01*
X177088405Y-27143387D01*
X177170472Y-26989852D01*
X177221008Y-26823256D01*
X177238072Y-26650002D01*
X177238072Y-25985703D01*
X177305507Y-25859540D01*
X177329276Y-25781185D01*
X177358972Y-25683292D01*
X177377024Y-25500000D01*
X177372500Y-25454065D01*
X177372500Y-25100000D01*
X177761928Y-25100000D01*
X177765000Y-25714250D01*
X177923750Y-25873000D01*
X178935500Y-25873000D01*
X178935500Y-24623750D01*
X179189500Y-24623750D01*
X179189500Y-25873000D01*
X180201250Y-25873000D01*
X180360000Y-25714250D01*
X180363072Y-25100000D01*
X180350812Y-24975518D01*
X180314502Y-24855820D01*
X180255537Y-24745506D01*
X180176185Y-24648815D01*
X180079494Y-24569463D01*
X179969180Y-24510498D01*
X179849482Y-24474188D01*
X179725000Y-24461928D01*
X179348250Y-24465000D01*
X179189500Y-24623750D01*
X178935500Y-24623750D01*
X178776750Y-24465000D01*
X178400000Y-24461928D01*
X178275518Y-24474188D01*
X178155820Y-24510498D01*
X178045506Y-24569463D01*
X177948815Y-24648815D01*
X177869463Y-24745506D01*
X177810498Y-24855820D01*
X177774188Y-24975518D01*
X177761928Y-25100000D01*
X177372500Y-25100000D01*
X177372500Y-24454138D01*
X177395004Y-24426717D01*
X177459744Y-24305597D01*
X177499611Y-24174175D01*
X177513072Y-24037500D01*
X177513072Y-23763072D01*
X177787500Y-23763072D01*
X177818691Y-23760000D01*
X183185199Y-23760000D01*
X183936328Y-24511130D01*
X183865000Y-24869721D01*
X183865000Y-25290279D01*
X183947047Y-25702756D01*
X184107988Y-26091302D01*
X184341637Y-26440983D01*
X184639017Y-26738363D01*
X184988698Y-26972012D01*
X185377244Y-27132953D01*
X185789721Y-27215000D01*
X186210279Y-27215000D01*
X186622756Y-27132953D01*
X187011302Y-26972012D01*
X187360983Y-26738363D01*
X187658363Y-26440983D01*
X187892012Y-26091302D01*
X188052953Y-25702756D01*
X188135000Y-25290279D01*
X188135000Y-24869721D01*
X188052953Y-24457244D01*
X187892012Y-24068698D01*
X187658363Y-23719017D01*
X187360983Y-23421637D01*
X187011302Y-23187988D01*
X186622756Y-23027047D01*
X186210279Y-22945000D01*
X185789721Y-22945000D01*
X185377244Y-23027047D01*
X184988698Y-23187988D01*
X184853276Y-23278474D01*
X184324801Y-22750000D01*
X184936729Y-22138072D01*
X187500000Y-22138072D01*
X187624482Y-22125812D01*
X187744180Y-22089502D01*
X187854494Y-22030537D01*
X187951185Y-21951185D01*
X188030537Y-21854494D01*
X188089502Y-21744180D01*
X188125812Y-21624482D01*
X188138072Y-21500000D01*
X188138072Y-18500000D01*
X188125812Y-18375518D01*
X188089502Y-18255820D01*
X188030537Y-18145506D01*
X187951185Y-18048815D01*
X187854494Y-17969463D01*
X187744180Y-17910498D01*
X187624482Y-17874188D01*
X187500000Y-17861928D01*
X184500000Y-17861928D01*
X184375518Y-17874188D01*
X184255820Y-17910498D01*
X184145506Y-17969463D01*
X184048815Y-18048815D01*
X183969463Y-18145506D01*
X183910498Y-18255820D01*
X183874188Y-18375518D01*
X183861928Y-18500000D01*
X183861928Y-21063271D01*
X183185199Y-21740000D01*
X178473223Y-21740000D01*
X178472768Y-21736089D01*
X178467902Y-21721290D01*
X178474611Y-21699175D01*
X178488072Y-21562500D01*
X178488072Y-21437500D01*
X178474611Y-21300825D01*
X178434744Y-21169403D01*
X178370004Y-21048283D01*
X178282879Y-20942121D01*
X178176717Y-20854996D01*
X178055597Y-20790256D01*
X177924175Y-20750389D01*
X177787500Y-20736928D01*
X177513072Y-20736928D01*
X177513072Y-20462500D01*
X177499611Y-20325825D01*
X177459744Y-20194403D01*
X177395004Y-20073283D01*
X177307879Y-19967121D01*
X177201717Y-19879996D01*
X177080597Y-19815256D01*
X177010000Y-19793840D01*
X177010000Y-19703711D01*
X177053937Y-19659774D01*
X177167205Y-19490256D01*
X177245226Y-19301898D01*
X177285000Y-19101939D01*
X177285000Y-18898061D01*
X177245226Y-18698102D01*
X177167205Y-18509744D01*
X177053937Y-18340226D01*
X176909774Y-18196063D01*
X176740256Y-18082795D01*
X176551898Y-18004774D01*
X176351939Y-17965000D01*
X176148061Y-17965000D01*
X175948102Y-18004774D01*
X175759744Y-18082795D01*
X175750000Y-18089306D01*
X175740256Y-18082795D01*
X175551898Y-18004774D01*
X175351939Y-17965000D01*
X175148061Y-17965000D01*
X174948102Y-18004774D01*
X174759744Y-18082795D01*
X174590226Y-18196063D01*
X174446063Y-18340226D01*
X174332795Y-18509744D01*
X174254774Y-18698102D01*
X174215000Y-18898061D01*
X174215000Y-18965000D01*
X174148061Y-18965000D01*
X173948102Y-19004774D01*
X173863901Y-19039651D01*
X173851250Y-19027000D01*
X172627000Y-19027000D01*
X172627000Y-20026250D01*
X172785750Y-20185000D01*
X173231984Y-20187326D01*
X173254774Y-20301898D01*
X173332795Y-20490256D01*
X173446063Y-20659774D01*
X173490001Y-20703712D01*
X173490001Y-20792971D01*
X173464851Y-20779528D01*
X173298255Y-20728992D01*
X173125001Y-20711928D01*
X171874999Y-20711928D01*
X171701745Y-20728992D01*
X171535149Y-20779528D01*
X171381613Y-20861595D01*
X171247038Y-20972038D01*
X171136595Y-21106613D01*
X171125000Y-21128306D01*
X171113405Y-21106613D01*
X171002962Y-20972038D01*
X170868387Y-20861595D01*
X170714851Y-20779528D01*
X170548255Y-20728992D01*
X170375001Y-20711928D01*
X169124999Y-20711928D01*
X168951745Y-20728992D01*
X168785149Y-20779528D01*
X168631613Y-20861595D01*
X168497038Y-20972038D01*
X168386595Y-21106613D01*
X168304528Y-21260149D01*
X168253992Y-21426745D01*
X168236928Y-21599999D01*
X168236928Y-22400001D01*
X168253992Y-22573255D01*
X168304528Y-22739851D01*
X168386595Y-22893387D01*
X168497038Y-23027962D01*
X168556566Y-23076816D01*
X168511595Y-23131613D01*
X168429528Y-23285149D01*
X168420473Y-23315000D01*
X166045931Y-23315000D01*
X165999999Y-23310476D01*
X165816707Y-23328529D01*
X165787134Y-23337500D01*
X165640460Y-23381993D01*
X165478028Y-23468814D01*
X165335656Y-23585656D01*
X165306374Y-23621336D01*
X164621341Y-24306370D01*
X164585656Y-24335656D01*
X164468814Y-24478029D01*
X164410606Y-24586929D01*
X164400000Y-24586929D01*
X164275518Y-24599189D01*
X164155820Y-24635499D01*
X164045506Y-24694464D01*
X163948815Y-24773816D01*
X163869463Y-24870507D01*
X163832317Y-24940001D01*
X162917683Y-24940001D01*
X162880537Y-24870507D01*
X162801185Y-24773816D01*
X162704494Y-24694464D01*
X162635000Y-24657318D01*
X162635000Y-21938072D01*
X162800000Y-21938072D01*
X162973254Y-21921008D01*
X163139850Y-21870472D01*
X163293386Y-21788405D01*
X163427962Y-21677962D01*
X163538405Y-21543386D01*
X163620472Y-21389850D01*
X163647727Y-21300000D01*
X163811928Y-21300000D01*
X163824188Y-21424482D01*
X163860498Y-21544180D01*
X163919463Y-21654494D01*
X163998815Y-21751185D01*
X164095506Y-21830537D01*
X164205820Y-21889502D01*
X164325518Y-21925812D01*
X164450000Y-21938072D01*
X165664250Y-21935000D01*
X165823000Y-21776250D01*
X165823000Y-20627000D01*
X166077000Y-20627000D01*
X166077000Y-21776250D01*
X166235750Y-21935000D01*
X167450000Y-21938072D01*
X167574482Y-21925812D01*
X167694180Y-21889502D01*
X167804494Y-21830537D01*
X167901185Y-21751185D01*
X167980537Y-21654494D01*
X168039502Y-21544180D01*
X168075812Y-21424482D01*
X168088072Y-21300000D01*
X168085000Y-20785750D01*
X167926250Y-20627000D01*
X166077000Y-20627000D01*
X165823000Y-20627000D01*
X163973750Y-20627000D01*
X163815000Y-20785750D01*
X163811928Y-21300000D01*
X163647727Y-21300000D01*
X163671008Y-21223254D01*
X163688072Y-21050000D01*
X163688072Y-19950000D01*
X163671008Y-19776746D01*
X163647728Y-19700000D01*
X163811928Y-19700000D01*
X163815000Y-20214250D01*
X163973750Y-20373000D01*
X165823000Y-20373000D01*
X165823000Y-19223750D01*
X166077000Y-19223750D01*
X166077000Y-20373000D01*
X167926250Y-20373000D01*
X168085000Y-20214250D01*
X168088072Y-19700000D01*
X168075812Y-19575518D01*
X168039502Y-19455820D01*
X167980537Y-19345506D01*
X167901185Y-19248815D01*
X167804494Y-19169463D01*
X167694180Y-19110498D01*
X167574482Y-19074188D01*
X167450000Y-19061928D01*
X166235750Y-19065000D01*
X166077000Y-19223750D01*
X165823000Y-19223750D01*
X165664250Y-19065000D01*
X164450000Y-19061928D01*
X164325518Y-19074188D01*
X164205820Y-19110498D01*
X164095506Y-19169463D01*
X163998815Y-19248815D01*
X163919463Y-19345506D01*
X163860498Y-19455820D01*
X163824188Y-19575518D01*
X163811928Y-19700000D01*
X163647728Y-19700000D01*
X163620472Y-19610150D01*
X163538405Y-19456614D01*
X163427962Y-19322038D01*
X163293386Y-19211595D01*
X163139850Y-19129528D01*
X162973254Y-19078992D01*
X162800000Y-19061928D01*
X162760361Y-19061928D01*
X162887289Y-18935000D01*
X167612711Y-18935000D01*
X168206374Y-19528664D01*
X168235656Y-19564344D01*
X168296860Y-19614573D01*
X168304528Y-19639851D01*
X168386595Y-19793387D01*
X168497038Y-19927962D01*
X168631613Y-20038405D01*
X168785149Y-20120472D01*
X168951745Y-20171008D01*
X169124999Y-20188072D01*
X169331521Y-20188072D01*
X169457754Y-20255546D01*
X169601015Y-20299003D01*
X169750000Y-20313677D01*
X169898986Y-20299003D01*
X170042247Y-20255546D01*
X170168480Y-20188072D01*
X170375001Y-20188072D01*
X170548255Y-20171008D01*
X170714851Y-20120472D01*
X170868387Y-20038405D01*
X171002962Y-19927962D01*
X171065969Y-19851187D01*
X171094463Y-19904494D01*
X171173815Y-20001185D01*
X171270506Y-20080537D01*
X171380820Y-20139502D01*
X171500518Y-20175812D01*
X171625000Y-20188072D01*
X172214250Y-20185000D01*
X172373000Y-20026250D01*
X172373000Y-19027000D01*
X172353000Y-19027000D01*
X172353000Y-18773000D01*
X172373000Y-18773000D01*
X172373000Y-18753000D01*
X172627000Y-18753000D01*
X172627000Y-18773000D01*
X173851250Y-18773000D01*
X174010000Y-18614250D01*
X174013072Y-18250000D01*
X174000812Y-18125518D01*
X173964502Y-18005820D01*
X173905537Y-17895506D01*
X173826185Y-17798815D01*
X173729494Y-17719463D01*
X173619180Y-17660498D01*
X173617538Y-17660000D01*
X194577238Y-17660000D01*
X194566842Y-17662068D01*
G37*
%TD.AperFunction*%
%TD*%
M02*
