%TF.GenerationSoftware,KiCad,Pcbnew,(5.1.10)-1*%
%TF.CreationDate,2023-05-28T19:46:44+02:00*%
%TF.ProjectId,Disney_door_opener,4469736e-6579-45f6-946f-6f725f6f7065,rev?*%
%TF.SameCoordinates,Original*%
%TF.FileFunction,Soldermask,Bot*%
%TF.FilePolarity,Negative*%
%FSLAX46Y46*%
G04 Gerber Fmt 4.6, Leading zero omitted, Abs format (unit mm)*
G04 Created by KiCad (PCBNEW (5.1.10)-1) date 2023-05-28 19:46:44*
%MOMM*%
%LPD*%
G01*
G04 APERTURE LIST*
%ADD10R,1.524000X1.524000*%
%ADD11C,1.524000*%
%ADD12C,2.200000*%
%ADD13R,3.000000X3.000000*%
%ADD14C,3.000000*%
%ADD15R,1.700000X1.700000*%
%ADD16O,1.700000X1.700000*%
%ADD17O,1.600000X1.600000*%
%ADD18R,1.600000X1.600000*%
%ADD19R,1.800000X2.500000*%
G04 APERTURE END LIST*
D10*
%TO.C,U2*%
X151750000Y-57950000D03*
D11*
X154290000Y-57950000D03*
X156830000Y-57950000D03*
X159370000Y-57950000D03*
X161910000Y-57950000D03*
X164450000Y-57950000D03*
X166990000Y-57950000D03*
X169530000Y-57950000D03*
X172070000Y-57950000D03*
X174610000Y-57950000D03*
X177150000Y-57950000D03*
X179690000Y-57950000D03*
X182230000Y-57950000D03*
X184770000Y-57950000D03*
X187310000Y-57950000D03*
X187310000Y-32550000D03*
X184770000Y-32550000D03*
X182230000Y-32550000D03*
X179690000Y-32550000D03*
X177150000Y-32550000D03*
X174610000Y-32550000D03*
X172070000Y-32550000D03*
X169530000Y-32550000D03*
X166990000Y-32550000D03*
X164450000Y-32550000D03*
X161910000Y-32550000D03*
X159370000Y-32550000D03*
X156830000Y-32550000D03*
X154290000Y-32550000D03*
X151750000Y-32550000D03*
%TD*%
D12*
%TO.C,H4*%
X195190000Y-33550000D03*
%TD*%
%TO.C,H3*%
X147710000Y-33560000D03*
%TD*%
%TO.C,H2*%
X195220000Y-56940000D03*
%TD*%
%TO.C,H1*%
X147720000Y-56950000D03*
%TD*%
%TO.C,R6*%
G36*
G01*
X152500000Y-52145000D02*
X152500000Y-53395000D01*
G75*
G02*
X152250000Y-53645000I-250000J0D01*
G01*
X151450000Y-53645000D01*
G75*
G02*
X151200000Y-53395000I0J250000D01*
G01*
X151200000Y-52145000D01*
G75*
G02*
X151450000Y-51895000I250000J0D01*
G01*
X152250000Y-51895000D01*
G75*
G02*
X152500000Y-52145000I0J-250000D01*
G01*
G37*
G36*
G01*
X155600000Y-52145000D02*
X155600000Y-53395000D01*
G75*
G02*
X155350000Y-53645000I-250000J0D01*
G01*
X154550000Y-53645000D01*
G75*
G02*
X154300000Y-53395000I0J250000D01*
G01*
X154300000Y-52145000D01*
G75*
G02*
X154550000Y-51895000I250000J0D01*
G01*
X155350000Y-51895000D01*
G75*
G02*
X155600000Y-52145000I0J-250000D01*
G01*
G37*
%TD*%
%TO.C,R5*%
G36*
G01*
X152470000Y-54885000D02*
X152470000Y-56135000D01*
G75*
G02*
X152220000Y-56385000I-250000J0D01*
G01*
X151420000Y-56385000D01*
G75*
G02*
X151170000Y-56135000I0J250000D01*
G01*
X151170000Y-54885000D01*
G75*
G02*
X151420000Y-54635000I250000J0D01*
G01*
X152220000Y-54635000D01*
G75*
G02*
X152470000Y-54885000I0J-250000D01*
G01*
G37*
G36*
G01*
X155570000Y-54885000D02*
X155570000Y-56135000D01*
G75*
G02*
X155320000Y-56385000I-250000J0D01*
G01*
X154520000Y-56385000D01*
G75*
G02*
X154270000Y-56135000I0J250000D01*
G01*
X154270000Y-54885000D01*
G75*
G02*
X154520000Y-54635000I250000J0D01*
G01*
X155320000Y-54635000D01*
G75*
G02*
X155570000Y-54885000I0J-250000D01*
G01*
G37*
%TD*%
D13*
%TO.C,J5*%
X186000000Y-20000000D03*
D14*
X186000000Y-25080000D03*
%TD*%
D15*
%TO.C,J4*%
X195000000Y-29250000D03*
D16*
X195000000Y-26710000D03*
X195000000Y-24170000D03*
X195000000Y-21630000D03*
X195000000Y-19090000D03*
%TD*%
%TO.C,C2*%
G36*
G01*
X134475000Y-39349999D02*
X134475000Y-40650001D01*
G75*
G02*
X134225001Y-40900000I-249999J0D01*
G01*
X133399999Y-40900000D01*
G75*
G02*
X133150000Y-40650001I0J249999D01*
G01*
X133150000Y-39349999D01*
G75*
G02*
X133399999Y-39100000I249999J0D01*
G01*
X134225001Y-39100000D01*
G75*
G02*
X134475000Y-39349999I0J-249999D01*
G01*
G37*
G36*
G01*
X131350000Y-39349999D02*
X131350000Y-40650001D01*
G75*
G02*
X131100001Y-40900000I-249999J0D01*
G01*
X130274999Y-40900000D01*
G75*
G02*
X130025000Y-40650001I0J249999D01*
G01*
X130025000Y-39349999D01*
G75*
G02*
X130274999Y-39100000I249999J0D01*
G01*
X131100001Y-39100000D01*
G75*
G02*
X131350000Y-39349999I0J-249999D01*
G01*
G37*
%TD*%
%TO.C,C3*%
G36*
G01*
X131100000Y-34099999D02*
X131100000Y-35400001D01*
G75*
G02*
X130850001Y-35650000I-249999J0D01*
G01*
X130024999Y-35650000D01*
G75*
G02*
X129775000Y-35400001I0J249999D01*
G01*
X129775000Y-34099999D01*
G75*
G02*
X130024999Y-33850000I249999J0D01*
G01*
X130850001Y-33850000D01*
G75*
G02*
X131100000Y-34099999I0J-249999D01*
G01*
G37*
G36*
G01*
X134225000Y-34099999D02*
X134225000Y-35400001D01*
G75*
G02*
X133975001Y-35650000I-249999J0D01*
G01*
X133149999Y-35650000D01*
G75*
G02*
X132900000Y-35400001I0J249999D01*
G01*
X132900000Y-34099999D01*
G75*
G02*
X133149999Y-33850000I249999J0D01*
G01*
X133975001Y-33850000D01*
G75*
G02*
X134225000Y-34099999I0J-249999D01*
G01*
G37*
%TD*%
D17*
%TO.C,D1*%
X134750000Y-45120000D03*
X129670000Y-37500000D03*
X129670000Y-45120000D03*
D18*
X134750000Y-37500000D03*
%TD*%
D15*
%TO.C,J2*%
X161500000Y-26075001D03*
D16*
X161500000Y-28615001D03*
%TD*%
%TO.C,J3*%
X165250000Y-28615001D03*
D15*
X165250000Y-26075001D03*
%TD*%
D19*
%TO.C,D3*%
X147750000Y-24500000D03*
X147750000Y-20500000D03*
%TD*%
D13*
%TO.C,J1*%
X134000000Y-51750000D03*
D14*
X134000000Y-56830000D03*
%TD*%
M02*
