%TF.GenerationSoftware,KiCad,Pcbnew,(5.1.10)-1*%
%TF.CreationDate,2023-06-11T13:52:09+02:00*%
%TF.ProjectId,Disney_door_opener,4469736e-6579-45f6-946f-6f725f6f7065,rev?*%
%TF.SameCoordinates,Original*%
%TF.FileFunction,Paste,Bot*%
%TF.FilePolarity,Positive*%
%FSLAX46Y46*%
G04 Gerber Fmt 4.6, Leading zero omitted, Abs format (unit mm)*
G04 Created by KiCad (PCBNEW (5.1.10)-1) date 2023-06-11 13:52:09*
%MOMM*%
%LPD*%
G01*
G04 APERTURE LIST*
%ADD10R,1.800000X2.500000*%
G04 APERTURE END LIST*
%TO.C,R6*%
G36*
G01*
X152500000Y-52144999D02*
X152500000Y-53395001D01*
G75*
G02*
X152250001Y-53645000I-249999J0D01*
G01*
X151449999Y-53645000D01*
G75*
G02*
X151200000Y-53395001I0J249999D01*
G01*
X151200000Y-52144999D01*
G75*
G02*
X151449999Y-51895000I249999J0D01*
G01*
X152250001Y-51895000D01*
G75*
G02*
X152500000Y-52144999I0J-249999D01*
G01*
G37*
G36*
G01*
X155600000Y-52144999D02*
X155600000Y-53395001D01*
G75*
G02*
X155350001Y-53645000I-249999J0D01*
G01*
X154549999Y-53645000D01*
G75*
G02*
X154300000Y-53395001I0J249999D01*
G01*
X154300000Y-52144999D01*
G75*
G02*
X154549999Y-51895000I249999J0D01*
G01*
X155350001Y-51895000D01*
G75*
G02*
X155600000Y-52144999I0J-249999D01*
G01*
G37*
%TD*%
%TO.C,R5*%
G36*
G01*
X152470000Y-54884999D02*
X152470000Y-56135001D01*
G75*
G02*
X152220001Y-56385000I-249999J0D01*
G01*
X151419999Y-56385000D01*
G75*
G02*
X151170000Y-56135001I0J249999D01*
G01*
X151170000Y-54884999D01*
G75*
G02*
X151419999Y-54635000I249999J0D01*
G01*
X152220001Y-54635000D01*
G75*
G02*
X152470000Y-54884999I0J-249999D01*
G01*
G37*
G36*
G01*
X155570000Y-54884999D02*
X155570000Y-56135001D01*
G75*
G02*
X155320001Y-56385000I-249999J0D01*
G01*
X154519999Y-56385000D01*
G75*
G02*
X154270000Y-56135001I0J249999D01*
G01*
X154270000Y-54884999D01*
G75*
G02*
X154519999Y-54635000I249999J0D01*
G01*
X155320001Y-54635000D01*
G75*
G02*
X155570000Y-54884999I0J-249999D01*
G01*
G37*
%TD*%
%TO.C,C2*%
G36*
G01*
X134475000Y-39349998D02*
X134475000Y-40650002D01*
G75*
G02*
X134225002Y-40900000I-249998J0D01*
G01*
X133399998Y-40900000D01*
G75*
G02*
X133150000Y-40650002I0J249998D01*
G01*
X133150000Y-39349998D01*
G75*
G02*
X133399998Y-39100000I249998J0D01*
G01*
X134225002Y-39100000D01*
G75*
G02*
X134475000Y-39349998I0J-249998D01*
G01*
G37*
G36*
G01*
X131350000Y-39349998D02*
X131350000Y-40650002D01*
G75*
G02*
X131100002Y-40900000I-249998J0D01*
G01*
X130274998Y-40900000D01*
G75*
G02*
X130025000Y-40650002I0J249998D01*
G01*
X130025000Y-39349998D01*
G75*
G02*
X130274998Y-39100000I249998J0D01*
G01*
X131100002Y-39100000D01*
G75*
G02*
X131350000Y-39349998I0J-249998D01*
G01*
G37*
%TD*%
%TO.C,C3*%
G36*
G01*
X131100000Y-34099998D02*
X131100000Y-35400002D01*
G75*
G02*
X130850002Y-35650000I-249998J0D01*
G01*
X130024998Y-35650000D01*
G75*
G02*
X129775000Y-35400002I0J249998D01*
G01*
X129775000Y-34099998D01*
G75*
G02*
X130024998Y-33850000I249998J0D01*
G01*
X130850002Y-33850000D01*
G75*
G02*
X131100000Y-34099998I0J-249998D01*
G01*
G37*
G36*
G01*
X134225000Y-34099998D02*
X134225000Y-35400002D01*
G75*
G02*
X133975002Y-35650000I-249998J0D01*
G01*
X133149998Y-35650000D01*
G75*
G02*
X132900000Y-35400002I0J249998D01*
G01*
X132900000Y-34099998D01*
G75*
G02*
X133149998Y-33850000I249998J0D01*
G01*
X133975002Y-33850000D01*
G75*
G02*
X134225000Y-34099998I0J-249998D01*
G01*
G37*
%TD*%
D10*
%TO.C,D3*%
X147750000Y-24500000D03*
X147750000Y-20500000D03*
%TD*%
M02*
