%TF.GenerationSoftware,KiCad,Pcbnew,(5.1.10)-1*%
%TF.CreationDate,2023-06-15T19:01:16+02:00*%
%TF.ProjectId,Disney_door_opener,4469736e-6579-45f6-946f-6f725f6f7065,rev?*%
%TF.SameCoordinates,Original*%
%TF.FileFunction,Soldermask,Top*%
%TF.FilePolarity,Negative*%
%FSLAX46Y46*%
G04 Gerber Fmt 4.6, Leading zero omitted, Abs format (unit mm)*
G04 Created by KiCad (PCBNEW (5.1.10)-1) date 2023-06-15 19:01:16*
%MOMM*%
%LPD*%
G01*
G04 APERTURE LIST*
%ADD10R,1.700000X1.700000*%
%ADD11O,1.700000X1.700000*%
%ADD12C,2.200000*%
%ADD13R,3.000000X3.000000*%
%ADD14C,3.000000*%
%ADD15O,1.600000X1.600000*%
%ADD16R,1.600000X1.600000*%
%ADD17R,2.500000X1.800000*%
%ADD18R,5.400000X2.900000*%
%ADD19R,4.600000X1.100000*%
%ADD20R,9.400000X10.800000*%
%ADD21R,1.230000X1.230000*%
G04 APERTURE END LIST*
D10*
%TO.C,J7*%
X151750000Y-58000000D03*
D11*
X154290000Y-58000000D03*
X156830000Y-58000000D03*
X159370000Y-58000000D03*
X161910000Y-58000000D03*
X164450000Y-58000000D03*
X166990000Y-58000000D03*
X169530000Y-58000000D03*
X172070000Y-58000000D03*
X174610000Y-58000000D03*
X177150000Y-58000000D03*
X179690000Y-58000000D03*
X182230000Y-58000000D03*
X184770000Y-58000000D03*
X187310000Y-58000000D03*
%TD*%
%TO.C,J6*%
X187310000Y-32500000D03*
X184770000Y-32500000D03*
X182230000Y-32500000D03*
X179690000Y-32500000D03*
X177150000Y-32500000D03*
X174610000Y-32500000D03*
X172070000Y-32500000D03*
X169530000Y-32500000D03*
X166990000Y-32500000D03*
X164450000Y-32500000D03*
X161910000Y-32500000D03*
X159370000Y-32500000D03*
X156830000Y-32500000D03*
X154290000Y-32500000D03*
D10*
X151750000Y-32500000D03*
%TD*%
D12*
%TO.C,H4*%
X195190000Y-33550000D03*
%TD*%
%TO.C,H3*%
X147710000Y-33560000D03*
%TD*%
%TO.C,H2*%
X195220000Y-56940000D03*
%TD*%
%TO.C,H1*%
X147720000Y-56950000D03*
%TD*%
D13*
%TO.C,J5*%
X186000000Y-20000000D03*
D14*
X186000000Y-25080000D03*
%TD*%
D10*
%TO.C,J4*%
X195000000Y-29250000D03*
D11*
X195000000Y-26710000D03*
X195000000Y-24170000D03*
X195000000Y-21630000D03*
X195000000Y-19090000D03*
%TD*%
%TO.C,C6*%
G36*
G01*
X179662500Y-28099997D02*
X179662500Y-29400003D01*
G75*
G02*
X179412503Y-29650000I-249997J0D01*
G01*
X178587497Y-29650000D01*
G75*
G02*
X178337500Y-29400003I0J249997D01*
G01*
X178337500Y-28099997D01*
G75*
G02*
X178587497Y-27850000I249997J0D01*
G01*
X179412503Y-27850000D01*
G75*
G02*
X179662500Y-28099997I0J-249997D01*
G01*
G37*
G36*
G01*
X176537500Y-28099997D02*
X176537500Y-29400003D01*
G75*
G02*
X176287503Y-29650000I-249997J0D01*
G01*
X175462497Y-29650000D01*
G75*
G02*
X175212500Y-29400003I0J249997D01*
G01*
X175212500Y-28099997D01*
G75*
G02*
X175462497Y-27850000I249997J0D01*
G01*
X176287503Y-27850000D01*
G75*
G02*
X176537500Y-28099997I0J-249997D01*
G01*
G37*
%TD*%
%TO.C,C1*%
G36*
G01*
X131300000Y-32700000D02*
X131300000Y-33800000D01*
G75*
G02*
X131050000Y-34050000I-250000J0D01*
G01*
X128550000Y-34050000D01*
G75*
G02*
X128300000Y-33800000I0J250000D01*
G01*
X128300000Y-32700000D01*
G75*
G02*
X128550000Y-32450000I250000J0D01*
G01*
X131050000Y-32450000D01*
G75*
G02*
X131300000Y-32700000I0J-250000D01*
G01*
G37*
G36*
G01*
X135700000Y-32700000D02*
X135700000Y-33800000D01*
G75*
G02*
X135450000Y-34050000I-250000J0D01*
G01*
X132950000Y-34050000D01*
G75*
G02*
X132700000Y-33800000I0J250000D01*
G01*
X132700000Y-32700000D01*
G75*
G02*
X132950000Y-32450000I250000J0D01*
G01*
X135450000Y-32450000D01*
G75*
G02*
X135700000Y-32700000I0J-250000D01*
G01*
G37*
%TD*%
%TO.C,C4*%
G36*
G01*
X144200000Y-32700000D02*
X144200000Y-33800000D01*
G75*
G02*
X143950000Y-34050000I-250000J0D01*
G01*
X141450000Y-34050000D01*
G75*
G02*
X141200000Y-33800000I0J250000D01*
G01*
X141200000Y-32700000D01*
G75*
G02*
X141450000Y-32450000I250000J0D01*
G01*
X143950000Y-32450000D01*
G75*
G02*
X144200000Y-32700000I0J-250000D01*
G01*
G37*
G36*
G01*
X139800000Y-32700000D02*
X139800000Y-33800000D01*
G75*
G02*
X139550000Y-34050000I-250000J0D01*
G01*
X137050000Y-34050000D01*
G75*
G02*
X136800000Y-33800000I0J250000D01*
G01*
X136800000Y-32700000D01*
G75*
G02*
X137050000Y-32450000I250000J0D01*
G01*
X139550000Y-32450000D01*
G75*
G02*
X139800000Y-32700000I0J-250000D01*
G01*
G37*
%TD*%
%TO.C,C5*%
G36*
G01*
X160050000Y-21050000D02*
X160050000Y-19950000D01*
G75*
G02*
X160300000Y-19700000I250000J0D01*
G01*
X162800000Y-19700000D01*
G75*
G02*
X163050000Y-19950000I0J-250000D01*
G01*
X163050000Y-21050000D01*
G75*
G02*
X162800000Y-21300000I-250000J0D01*
G01*
X160300000Y-21300000D01*
G75*
G02*
X160050000Y-21050000I0J250000D01*
G01*
G37*
G36*
G01*
X164450000Y-21050000D02*
X164450000Y-19950000D01*
G75*
G02*
X164700000Y-19700000I250000J0D01*
G01*
X167200000Y-19700000D01*
G75*
G02*
X167450000Y-19950000I0J-250000D01*
G01*
X167450000Y-21050000D01*
G75*
G02*
X167200000Y-21300000I-250000J0D01*
G01*
X164700000Y-21300000D01*
G75*
G02*
X164450000Y-21050000I0J250000D01*
G01*
G37*
%TD*%
D15*
%TO.C,D1*%
X134750000Y-45120000D03*
X129670000Y-37500000D03*
X129670000Y-45120000D03*
D16*
X134750000Y-37500000D03*
%TD*%
D17*
%TO.C,D2*%
X142750000Y-39500000D03*
X138750000Y-39500000D03*
%TD*%
D18*
%TO.C,L1*%
X152750000Y-28950000D03*
X152750000Y-19250000D03*
%TD*%
D19*
%TO.C,U1*%
X142400000Y-26900000D03*
X142400000Y-25200000D03*
X142400000Y-23500000D03*
X142400000Y-21800000D03*
X142400000Y-20100000D03*
D20*
X133250000Y-23500000D03*
%TD*%
D10*
%TO.C,J2*%
X161500000Y-26075001D03*
D11*
X161500000Y-28615001D03*
%TD*%
%TO.C,J3*%
X165250000Y-28615001D03*
D10*
X165250000Y-26075001D03*
%TD*%
%TO.C,C7*%
G36*
G01*
X176600000Y-25349997D02*
X176600000Y-26650003D01*
G75*
G02*
X176350003Y-26900000I-249997J0D01*
G01*
X175524997Y-26900000D01*
G75*
G02*
X175275000Y-26650003I0J249997D01*
G01*
X175275000Y-25349997D01*
G75*
G02*
X175524997Y-25100000I249997J0D01*
G01*
X176350003Y-25100000D01*
G75*
G02*
X176600000Y-25349997I0J-249997D01*
G01*
G37*
G36*
G01*
X179725000Y-25349997D02*
X179725000Y-26650003D01*
G75*
G02*
X179475003Y-26900000I-249997J0D01*
G01*
X178649997Y-26900000D01*
G75*
G02*
X178400000Y-26650003I0J249997D01*
G01*
X178400000Y-25349997D01*
G75*
G02*
X178649997Y-25100000I249997J0D01*
G01*
X179475003Y-25100000D01*
G75*
G02*
X179725000Y-25349997I0J-249997D01*
G01*
G37*
%TD*%
%TO.C,U3*%
G36*
G01*
X174150000Y-21562500D02*
X174150000Y-21437500D01*
G75*
G02*
X174212500Y-21375000I62500J0D01*
G01*
X174912500Y-21375000D01*
G75*
G02*
X174975000Y-21437500I0J-62500D01*
G01*
X174975000Y-21562500D01*
G75*
G02*
X174912500Y-21625000I-62500J0D01*
G01*
X174212500Y-21625000D01*
G75*
G02*
X174150000Y-21562500I0J62500D01*
G01*
G37*
G36*
G01*
X174150000Y-22062500D02*
X174150000Y-21937500D01*
G75*
G02*
X174212500Y-21875000I62500J0D01*
G01*
X174912500Y-21875000D01*
G75*
G02*
X174975000Y-21937500I0J-62500D01*
G01*
X174975000Y-22062500D01*
G75*
G02*
X174912500Y-22125000I-62500J0D01*
G01*
X174212500Y-22125000D01*
G75*
G02*
X174150000Y-22062500I0J62500D01*
G01*
G37*
G36*
G01*
X174150000Y-22562500D02*
X174150000Y-22437500D01*
G75*
G02*
X174212500Y-22375000I62500J0D01*
G01*
X174912500Y-22375000D01*
G75*
G02*
X174975000Y-22437500I0J-62500D01*
G01*
X174975000Y-22562500D01*
G75*
G02*
X174912500Y-22625000I-62500J0D01*
G01*
X174212500Y-22625000D01*
G75*
G02*
X174150000Y-22562500I0J62500D01*
G01*
G37*
G36*
G01*
X174150000Y-23062500D02*
X174150000Y-22937500D01*
G75*
G02*
X174212500Y-22875000I62500J0D01*
G01*
X174912500Y-22875000D01*
G75*
G02*
X174975000Y-22937500I0J-62500D01*
G01*
X174975000Y-23062500D01*
G75*
G02*
X174912500Y-23125000I-62500J0D01*
G01*
X174212500Y-23125000D01*
G75*
G02*
X174150000Y-23062500I0J62500D01*
G01*
G37*
G36*
G01*
X175125000Y-24037500D02*
X175125000Y-23337500D01*
G75*
G02*
X175187500Y-23275000I62500J0D01*
G01*
X175312500Y-23275000D01*
G75*
G02*
X175375000Y-23337500I0J-62500D01*
G01*
X175375000Y-24037500D01*
G75*
G02*
X175312500Y-24100000I-62500J0D01*
G01*
X175187500Y-24100000D01*
G75*
G02*
X175125000Y-24037500I0J62500D01*
G01*
G37*
G36*
G01*
X175625000Y-24037500D02*
X175625000Y-23337500D01*
G75*
G02*
X175687500Y-23275000I62500J0D01*
G01*
X175812500Y-23275000D01*
G75*
G02*
X175875000Y-23337500I0J-62500D01*
G01*
X175875000Y-24037500D01*
G75*
G02*
X175812500Y-24100000I-62500J0D01*
G01*
X175687500Y-24100000D01*
G75*
G02*
X175625000Y-24037500I0J62500D01*
G01*
G37*
G36*
G01*
X176125000Y-24037500D02*
X176125000Y-23337500D01*
G75*
G02*
X176187500Y-23275000I62500J0D01*
G01*
X176312500Y-23275000D01*
G75*
G02*
X176375000Y-23337500I0J-62500D01*
G01*
X176375000Y-24037500D01*
G75*
G02*
X176312500Y-24100000I-62500J0D01*
G01*
X176187500Y-24100000D01*
G75*
G02*
X176125000Y-24037500I0J62500D01*
G01*
G37*
G36*
G01*
X176625000Y-24037500D02*
X176625000Y-23337500D01*
G75*
G02*
X176687500Y-23275000I62500J0D01*
G01*
X176812500Y-23275000D01*
G75*
G02*
X176875000Y-23337500I0J-62500D01*
G01*
X176875000Y-24037500D01*
G75*
G02*
X176812500Y-24100000I-62500J0D01*
G01*
X176687500Y-24100000D01*
G75*
G02*
X176625000Y-24037500I0J62500D01*
G01*
G37*
G36*
G01*
X177025000Y-23062500D02*
X177025000Y-22937500D01*
G75*
G02*
X177087500Y-22875000I62500J0D01*
G01*
X177787500Y-22875000D01*
G75*
G02*
X177850000Y-22937500I0J-62500D01*
G01*
X177850000Y-23062500D01*
G75*
G02*
X177787500Y-23125000I-62500J0D01*
G01*
X177087500Y-23125000D01*
G75*
G02*
X177025000Y-23062500I0J62500D01*
G01*
G37*
G36*
G01*
X177025000Y-22562500D02*
X177025000Y-22437500D01*
G75*
G02*
X177087500Y-22375000I62500J0D01*
G01*
X177787500Y-22375000D01*
G75*
G02*
X177850000Y-22437500I0J-62500D01*
G01*
X177850000Y-22562500D01*
G75*
G02*
X177787500Y-22625000I-62500J0D01*
G01*
X177087500Y-22625000D01*
G75*
G02*
X177025000Y-22562500I0J62500D01*
G01*
G37*
G36*
G01*
X177025000Y-22062500D02*
X177025000Y-21937500D01*
G75*
G02*
X177087500Y-21875000I62500J0D01*
G01*
X177787500Y-21875000D01*
G75*
G02*
X177850000Y-21937500I0J-62500D01*
G01*
X177850000Y-22062500D01*
G75*
G02*
X177787500Y-22125000I-62500J0D01*
G01*
X177087500Y-22125000D01*
G75*
G02*
X177025000Y-22062500I0J62500D01*
G01*
G37*
G36*
G01*
X177025000Y-21562500D02*
X177025000Y-21437500D01*
G75*
G02*
X177087500Y-21375000I62500J0D01*
G01*
X177787500Y-21375000D01*
G75*
G02*
X177850000Y-21437500I0J-62500D01*
G01*
X177850000Y-21562500D01*
G75*
G02*
X177787500Y-21625000I-62500J0D01*
G01*
X177087500Y-21625000D01*
G75*
G02*
X177025000Y-21562500I0J62500D01*
G01*
G37*
G36*
G01*
X176625000Y-21162500D02*
X176625000Y-20462500D01*
G75*
G02*
X176687500Y-20400000I62500J0D01*
G01*
X176812500Y-20400000D01*
G75*
G02*
X176875000Y-20462500I0J-62500D01*
G01*
X176875000Y-21162500D01*
G75*
G02*
X176812500Y-21225000I-62500J0D01*
G01*
X176687500Y-21225000D01*
G75*
G02*
X176625000Y-21162500I0J62500D01*
G01*
G37*
G36*
G01*
X176125000Y-21162500D02*
X176125000Y-20462500D01*
G75*
G02*
X176187500Y-20400000I62500J0D01*
G01*
X176312500Y-20400000D01*
G75*
G02*
X176375000Y-20462500I0J-62500D01*
G01*
X176375000Y-21162500D01*
G75*
G02*
X176312500Y-21225000I-62500J0D01*
G01*
X176187500Y-21225000D01*
G75*
G02*
X176125000Y-21162500I0J62500D01*
G01*
G37*
G36*
G01*
X175625000Y-21162500D02*
X175625000Y-20462500D01*
G75*
G02*
X175687500Y-20400000I62500J0D01*
G01*
X175812500Y-20400000D01*
G75*
G02*
X175875000Y-20462500I0J-62500D01*
G01*
X175875000Y-21162500D01*
G75*
G02*
X175812500Y-21225000I-62500J0D01*
G01*
X175687500Y-21225000D01*
G75*
G02*
X175625000Y-21162500I0J62500D01*
G01*
G37*
G36*
G01*
X175125000Y-21162500D02*
X175125000Y-20462500D01*
G75*
G02*
X175187500Y-20400000I62500J0D01*
G01*
X175312500Y-20400000D01*
G75*
G02*
X175375000Y-20462500I0J-62500D01*
G01*
X175375000Y-21162500D01*
G75*
G02*
X175312500Y-21225000I-62500J0D01*
G01*
X175187500Y-21225000D01*
G75*
G02*
X175125000Y-21162500I0J62500D01*
G01*
G37*
D21*
X176000000Y-22250000D03*
%TD*%
%TO.C,R1*%
G36*
G01*
X171874999Y-18250000D02*
X173125001Y-18250000D01*
G75*
G02*
X173375000Y-18499999I0J-249999D01*
G01*
X173375000Y-19300001D01*
G75*
G02*
X173125001Y-19550000I-249999J0D01*
G01*
X171874999Y-19550000D01*
G75*
G02*
X171625000Y-19300001I0J249999D01*
G01*
X171625000Y-18499999D01*
G75*
G02*
X171874999Y-18250000I249999J0D01*
G01*
G37*
G36*
G01*
X171874999Y-21350000D02*
X173125001Y-21350000D01*
G75*
G02*
X173375000Y-21599999I0J-249999D01*
G01*
X173375000Y-22400001D01*
G75*
G02*
X173125001Y-22650000I-249999J0D01*
G01*
X171874999Y-22650000D01*
G75*
G02*
X171625000Y-22400001I0J249999D01*
G01*
X171625000Y-21599999D01*
G75*
G02*
X171874999Y-21350000I249999J0D01*
G01*
G37*
%TD*%
%TO.C,R2*%
G36*
G01*
X169124999Y-21350000D02*
X170375001Y-21350000D01*
G75*
G02*
X170625000Y-21599999I0J-249999D01*
G01*
X170625000Y-22400001D01*
G75*
G02*
X170375001Y-22650000I-249999J0D01*
G01*
X169124999Y-22650000D01*
G75*
G02*
X168875000Y-22400001I0J249999D01*
G01*
X168875000Y-21599999D01*
G75*
G02*
X169124999Y-21350000I249999J0D01*
G01*
G37*
G36*
G01*
X169124999Y-18250000D02*
X170375001Y-18250000D01*
G75*
G02*
X170625000Y-18499999I0J-249999D01*
G01*
X170625000Y-19300001D01*
G75*
G02*
X170375001Y-19550000I-249999J0D01*
G01*
X169124999Y-19550000D01*
G75*
G02*
X168875000Y-19300001I0J249999D01*
G01*
X168875000Y-18499999D01*
G75*
G02*
X169124999Y-18250000I249999J0D01*
G01*
G37*
%TD*%
%TO.C,R3*%
G36*
G01*
X169000000Y-27375001D02*
X169000000Y-26124999D01*
G75*
G02*
X169249999Y-25875000I249999J0D01*
G01*
X170050001Y-25875000D01*
G75*
G02*
X170300000Y-26124999I0J-249999D01*
G01*
X170300000Y-27375001D01*
G75*
G02*
X170050001Y-27625000I-249999J0D01*
G01*
X169249999Y-27625000D01*
G75*
G02*
X169000000Y-27375001I0J249999D01*
G01*
G37*
G36*
G01*
X172100000Y-27375001D02*
X172100000Y-26124999D01*
G75*
G02*
X172349999Y-25875000I249999J0D01*
G01*
X173150001Y-25875000D01*
G75*
G02*
X173400000Y-26124999I0J-249999D01*
G01*
X173400000Y-27375001D01*
G75*
G02*
X173150001Y-27625000I-249999J0D01*
G01*
X172349999Y-27625000D01*
G75*
G02*
X172100000Y-27375001I0J249999D01*
G01*
G37*
%TD*%
%TO.C,R4*%
G36*
G01*
X172100000Y-24875001D02*
X172100000Y-23624999D01*
G75*
G02*
X172349999Y-23375000I249999J0D01*
G01*
X173150001Y-23375000D01*
G75*
G02*
X173400000Y-23624999I0J-249999D01*
G01*
X173400000Y-24875001D01*
G75*
G02*
X173150001Y-25125000I-249999J0D01*
G01*
X172349999Y-25125000D01*
G75*
G02*
X172100000Y-24875001I0J249999D01*
G01*
G37*
G36*
G01*
X169000000Y-24875001D02*
X169000000Y-23624999D01*
G75*
G02*
X169249999Y-23375000I249999J0D01*
G01*
X170050001Y-23375000D01*
G75*
G02*
X170300000Y-23624999I0J-249999D01*
G01*
X170300000Y-24875001D01*
G75*
G02*
X170050001Y-25125000I-249999J0D01*
G01*
X169249999Y-25125000D01*
G75*
G02*
X169000000Y-24875001I0J249999D01*
G01*
G37*
%TD*%
D13*
%TO.C,J1*%
X134000000Y-51750000D03*
D14*
X134000000Y-56830000D03*
%TD*%
M02*
